<svg id="svg" fill="#ff8c00" stroke="#ff8c00" width="200" height="200" version="1.1" viewBox="144 144 512 512" xmlns="http://www.w3.org/2000/svg" transform="matrix(1, 0, 0, 1, 0, 0)" stroke-width="2">
    <g id="IconSvg_bgCarrier" stroke-width="0"></g>
    <g id="IconSvg_tracerCarrier" stroke-linecap="round" stroke-linejoin="round" stroke="#CCCCCC" stroke-width="0">
      <defs xmlns="http://www.w3.org/2000/svg">
  <clipPath id="b">
   <path d="m415 148.09h206v204.91h-206z"></path>
  </clipPath>
  <clipPath id="a">
   <path d="m337 400h126v251.9h-126z"></path>
  </clipPath>
 </defs>
<path xmlns="http://www.w3.org/2000/svg" d="m360.64 510.21c-2.0156 0-4.0312-0.76953-5.5664-2.3047l-102.34-102.34c-3.0781-3.0781-3.0781-8.0547 0-11.133l181.05-181.05c3.0781-3.0781 8.0547-3.0781 11.133 0s3.0781 8.0547 0 11.133l-175.49 175.49 96.77 96.77c3.0781 3.0781 3.0781 8.0547 0 11.133-1.5352 1.5312-3.5508 2.3047-5.5664 2.3047z"></path>
<path xmlns="http://www.w3.org/2000/svg" d="m455.1 431.49c-2.0156 0-4.0312-0.76953-5.5664-2.3047-3.0781-3.0781-3.0781-8.0547 0-11.133l94.465-94.465c3.0781-3.0781 8.0547-3.0781 11.133 0 3.0781 3.0781 3.0781 8.0547 0 11.133l-94.465 94.465c-1.5352 1.5312-3.5508 2.3047-5.5664 2.3047z"></path>
<path xmlns="http://www.w3.org/2000/svg" d="m400 423.61c-26.047 0-47.23-21.184-47.23-47.23 0-26.047 21.184-47.23 47.23-47.23s47.23 21.184 47.23 47.23c0 26.047-21.184 47.23-47.23 47.23zm0-78.719c-17.367 0-31.488 14.121-31.488 31.488 0 17.367 14.121 31.488 31.488 31.488s31.488-14.121 31.488-31.488c0-17.367-14.125-31.488-31.488-31.488z"></path>
<path xmlns="http://www.w3.org/2000/svg" d="m400 423.61c-26.047 0-47.23-21.184-47.23-47.23 0-26.047 21.184-47.23 47.23-47.23s47.23 21.184 47.23 47.23c0 26.047-21.184 47.23-47.23 47.23zm0-78.719c-17.367 0-31.488 14.121-31.488 31.488 0 17.367 14.121 31.488 31.488 31.488s31.488-14.121 31.488-31.488c0-17.367-14.125-31.488-31.488-31.488z"></path>
<g xmlns="http://www.w3.org/2000/svg" clip-path="url(#b)">
  <path d="m565.31 352.77c-2.0156 0-4.0312-0.76953-5.5664-2.3047l-141.7-141.7c-3.0781-3.0781-3.0781-8.0547 0-11.133l47.23-47.23c3.0781-3.0781 8.0547-3.0781 11.133 0l47.23 47.23c3.0781 3.0781 3.0781 8.0547 0 11.133s-8.0547 3.0781-11.133 0l-41.664-41.668-36.102 36.102 130.57 130.56 36.102-36.098-41.668-41.668c-3.0781-3.0781-3.0781-8.0547 0-11.133s8.0547-3.0781 11.133 0l47.23 47.23c3.0781 3.0781 3.0781 8.0547 0 11.133l-47.23 47.23c-1.5391 1.5391-3.5508 2.3086-5.5664 2.3086z"></path>
 </g>
<path xmlns="http://www.w3.org/2000/svg" d="m297.66 557.44c-2.0156 0-4.0312-0.76953-5.5664-2.3047l-78.719-78.719c-3.0781-3.0781-3.0781-8.0547 0-11.133l55.105-55.105c3.0781-3.0781 8.0547-3.0781 11.133 0 3.0781 3.0781 3.0781 8.0547 0 11.133l-49.543 49.539 67.59 67.59 25.922-25.922c3.0781-3.0781 8.0547-3.0781 11.133 0s3.0781 8.0547 0 11.133l-31.488 31.488c-1.5391 1.5312-3.5547 2.3008-5.5664 2.3008z"></path>
<path xmlns="http://www.w3.org/2000/svg" d="m234.69 588.93c-2.0156 0-4.0312-0.76953-5.5664-2.3047l-47.23-47.23c-3.0781-3.0781-3.0781-8.0547 0-11.133l47.23-47.23c3.0781-3.0781 8.0547-3.0781 11.133 0s3.0781 8.0547 0 11.133l-41.668 41.664 36.102 36.102 41.668-41.668c3.0781-3.0781 8.0547-3.0781 11.133 0 3.0781 3.0781 3.0781 8.0547 0 11.133l-47.23 47.23c-1.543 1.5352-3.5547 2.3047-5.5703 2.3047z"></path>
<g xmlns="http://www.w3.org/2000/svg" clip-path="url(#a)">
  <path d="m455.1 651.9h-110.21c-2.2656 0-4.4336-0.97656-5.918-2.6836-1.4961-1.7148-2.1797-3.9844-1.8828-6.2266l31.488-236.16c0.57422-4.3047 4.5039-7.3359 8.8398-6.7617 4.3125 0.57422 7.3438 4.5352 6.7617 8.8398l-30.293 227.25h92.223l-30.301-227.25c-0.57422-4.3047 2.457-8.2656 6.7617-8.8398 4.3516-0.57422 8.2656 2.457 8.8398 6.7617l31.488 236.16c0.30078 2.2422-0.38672 4.5117-1.8828 6.2266-1.4844 1.707-3.6484 2.6836-5.918 2.6836z"></path>
 </g>
<path xmlns="http://www.w3.org/2000/svg" d="m549.57 226.81c0 4.3477-3.5234 7.875-7.8711 7.875-4.3477 0-7.8711-3.5273-7.8711-7.875s3.5234-7.8711 7.8711-7.8711c4.3477 0 7.8711 3.5234 7.8711 7.8711"></path>

      </g>
     <g id="IconSvg_iconCarrier">
      <defs xmlns="http://www.w3.org/2000/svg">
  <clipPath id="b">
   <path d="m415 148.09h206v204.91h-206z"></path>
  </clipPath>
  <clipPath id="a">
   <path d="m337 400h126v251.9h-126z"></path>
  </clipPath>
 </defs>
<path xmlns="http://www.w3.org/2000/svg" d="m360.64 510.21c-2.0156 0-4.0312-0.76953-5.5664-2.3047l-102.34-102.34c-3.0781-3.0781-3.0781-8.0547 0-11.133l181.05-181.05c3.0781-3.0781 8.0547-3.0781 11.133 0s3.0781 8.0547 0 11.133l-175.49 175.49 96.77 96.77c3.0781 3.0781 3.0781 8.0547 0 11.133-1.5352 1.5312-3.5508 2.3047-5.5664 2.3047z"></path>
<path xmlns="http://www.w3.org/2000/svg" d="m455.1 431.49c-2.0156 0-4.0312-0.76953-5.5664-2.3047-3.0781-3.0781-3.0781-8.0547 0-11.133l94.465-94.465c3.0781-3.0781 8.0547-3.0781 11.133 0 3.0781 3.0781 3.0781 8.0547 0 11.133l-94.465 94.465c-1.5352 1.5312-3.5508 2.3047-5.5664 2.3047z"></path>
<path xmlns="http://www.w3.org/2000/svg" d="m400 423.61c-26.047 0-47.23-21.184-47.23-47.23 0-26.047 21.184-47.23 47.23-47.23s47.23 21.184 47.23 47.23c0 26.047-21.184 47.23-47.23 47.23zm0-78.719c-17.367 0-31.488 14.121-31.488 31.488 0 17.367 14.121 31.488 31.488 31.488s31.488-14.121 31.488-31.488c0-17.367-14.125-31.488-31.488-31.488z"></path>
<path xmlns="http://www.w3.org/2000/svg" d="m400 423.61c-26.047 0-47.23-21.184-47.23-47.23 0-26.047 21.184-47.23 47.23-47.23s47.23 21.184 47.23 47.23c0 26.047-21.184 47.23-47.23 47.23zm0-78.719c-17.367 0-31.488 14.121-31.488 31.488 0 17.367 14.121 31.488 31.488 31.488s31.488-14.121 31.488-31.488c0-17.367-14.125-31.488-31.488-31.488z"></path>
<g xmlns="http://www.w3.org/2000/svg" clip-path="url(#b)">
  <path d="m565.31 352.77c-2.0156 0-4.0312-0.76953-5.5664-2.3047l-141.7-141.7c-3.0781-3.0781-3.0781-8.0547 0-11.133l47.23-47.23c3.0781-3.0781 8.0547-3.0781 11.133 0l47.23 47.23c3.0781 3.0781 3.0781 8.0547 0 11.133s-8.0547 3.0781-11.133 0l-41.664-41.668-36.102 36.102 130.57 130.56 36.102-36.098-41.668-41.668c-3.0781-3.0781-3.0781-8.0547 0-11.133s8.0547-3.0781 11.133 0l47.23 47.23c3.0781 3.0781 3.0781 8.0547 0 11.133l-47.23 47.23c-1.5391 1.5391-3.5508 2.3086-5.5664 2.3086z"></path>
 </g>
<path xmlns="http://www.w3.org/2000/svg" d="m297.66 557.44c-2.0156 0-4.0312-0.76953-5.5664-2.3047l-78.719-78.719c-3.0781-3.0781-3.0781-8.0547 0-11.133l55.105-55.105c3.0781-3.0781 8.0547-3.0781 11.133 0 3.0781 3.0781 3.0781 8.0547 0 11.133l-49.543 49.539 67.59 67.59 25.922-25.922c3.0781-3.0781 8.0547-3.0781 11.133 0s3.0781 8.0547 0 11.133l-31.488 31.488c-1.5391 1.5312-3.5547 2.3008-5.5664 2.3008z"></path>
<path xmlns="http://www.w3.org/2000/svg" d="m234.69 588.93c-2.0156 0-4.0312-0.76953-5.5664-2.3047l-47.23-47.23c-3.0781-3.0781-3.0781-8.0547 0-11.133l47.23-47.23c3.0781-3.0781 8.0547-3.0781 11.133 0s3.0781 8.0547 0 11.133l-41.668 41.664 36.102 36.102 41.668-41.668c3.0781-3.0781 8.0547-3.0781 11.133 0 3.0781 3.0781 3.0781 8.0547 0 11.133l-47.23 47.23c-1.543 1.5352-3.5547 2.3047-5.5703 2.3047z"></path>
<g xmlns="http://www.w3.org/2000/svg" clip-path="url(#a)">
  <path d="m455.1 651.9h-110.21c-2.2656 0-4.4336-0.97656-5.918-2.6836-1.4961-1.7148-2.1797-3.9844-1.8828-6.2266l31.488-236.16c0.57422-4.3047 4.5039-7.3359 8.8398-6.7617 4.3125 0.57422 7.3438 4.5352 6.7617 8.8398l-30.293 227.25h92.223l-30.301-227.25c-0.57422-4.3047 2.457-8.2656 6.7617-8.8398 4.3516-0.57422 8.2656 2.457 8.8398 6.7617l31.488 236.16c0.30078 2.2422-0.38672 4.5117-1.8828 6.2266-1.4844 1.707-3.6484 2.6836-5.918 2.6836z"></path>
 </g>
<path xmlns="http://www.w3.org/2000/svg" d="m549.57 226.81c0 4.3477-3.5234 7.875-7.8711 7.875-4.3477 0-7.8711-3.5273-7.8711-7.875s3.5234-7.8711 7.8711-7.8711c4.3477 0 7.8711 3.5234 7.8711 7.8711"></path>

      </g>
      </svg>