<svg id="svg" fill="#ff8c00" stroke="#ff8c00" width="128" height="128" version="1.1" viewBox="144 144 512 512" xmlns="http://www.w3.org/2000/svg" stroke-width="0">
    <g id="IconSvg_bgCarrier" stroke-width="0"></g>
    <g id="IconSvg_tracerCarrier" stroke-linecap="round" stroke-linejoin="round" stroke="#CCCCCC" stroke-width="0">
      <defs xmlns="http://www.w3.org/2000/svg">
  <clipPath id="a">
   <path d="m155 148.09h490v503.81h-490z"></path>
  </clipPath>
 </defs>
<g xmlns="http://www.w3.org/2000/svg" clip-path="url(#a)">
  <path d="m358.32 486.99 286.34-115.98v38.059l-282.71 112.36-166.73-103.3c-25.371-16.309-30.809 90.613-7.25 103.3l170.35 108.73 286.34-114.17v21.746l-288.15 114.17-172.16-110.55c-39.871-25.371-34.434-125.05-5.4375-146.79-36.246-30.809-27.184-128.67 3.625-146.79 45.305-16.309 90.613-32.621 135.92-50.742 43.496-16.309 85.176-32.621 128.67-47.117l1.8125-1.8125 3.625 1.8125c28.996 14.5 59.805 30.809 90.613 47.117 32.621 16.309 65.242 32.621 97.863 50.742l3.625 1.8125v14.5l-282.71 112.36-166.73-103.3c-25.371-14.5-30.809 90.613-7.25 103.3l170.35 110.55zm-161.29-34.434c-7.25-3.625 0-14.5 7.25-10.875l155.86 97.863 266.4-105.11c7.25-3.625 12.688 9.0625 5.4375 10.875l-270.03 106.92-1.8125 1.8125-3.625-1.8125-159.48-99.676zm0 61.617c-7.25-3.625 0-14.5 7.25-10.875l155.86 97.863 266.4-105.11c7.25-3.625 12.688 7.25 5.4375 10.875l-270.03 106.92h-1.8125l-3.625-1.8125-159.48-97.863zm0-30.809c-7.25-3.625 0-14.5 7.25-10.875 52.555 32.621 105.11 65.242 155.86 97.863 88.801-36.246 177.6-70.68 266.4-105.11 7.25-3.625 12.688 7.25 5.4375 10.875-90.613 36.246-179.41 70.68-270.03 106.92h-1.8125-3.625c-52.555-34.434-105.11-67.055-159.48-99.676zm0-175.79c-7.25-3.625 0-14.5 7.25-10.875l155.86 97.863 266.4-105.11c7.25-3.625 12.688 9.0625 5.4375 10.875l-270.03 106.92-1.8125 1.8125-3.625-1.8125-159.48-99.676zm0 61.617c-7.25-3.625 0-14.5 7.25-10.875l155.86 97.863 266.4-105.11c7.25-3.625 12.688 7.25 5.4375 10.875l-270.03 106.92-1.8125 1.8125-3.625-1.8125-159.48-99.676zm0-30.809c-7.25-3.625 0-14.5 7.25-10.875 52.555 32.621 103.3 65.242 155.86 97.863 88.801-34.434 177.6-70.68 266.4-105.11 7.25-3.625 12.688 9.0625 5.4375 10.875-90.613 36.246-179.41 70.68-270.03 106.92 0 0-1.8125 0-1.8125 1.8125-1.8125-1.8125-1.8125-1.8125-3.625-1.8125-52.555-32.621-106.92-67.055-159.48-99.676zm166.73-123.23 123.23 77.926 97.863-39.871c-18.121-9.0625-38.059-18.121-56.18-28.996-27.184-12.688-54.367-27.184-81.551-41.684l-83.363 32.621z" fill-rule="evenodd"></path>
 </g>

      </g>
     <g id="IconSvg_iconCarrier">
      <defs xmlns="http://www.w3.org/2000/svg">
  <clipPath id="a">
   <path d="m155 148.09h490v503.81h-490z"></path>
  </clipPath>
 </defs>
<g xmlns="http://www.w3.org/2000/svg" clip-path="url(#a)">
  <path d="m358.32 486.99 286.34-115.98v38.059l-282.71 112.36-166.73-103.3c-25.371-16.309-30.809 90.613-7.25 103.3l170.35 108.73 286.34-114.17v21.746l-288.15 114.17-172.16-110.55c-39.871-25.371-34.434-125.05-5.4375-146.79-36.246-30.809-27.184-128.67 3.625-146.79 45.305-16.309 90.613-32.621 135.92-50.742 43.496-16.309 85.176-32.621 128.67-47.117l1.8125-1.8125 3.625 1.8125c28.996 14.5 59.805 30.809 90.613 47.117 32.621 16.309 65.242 32.621 97.863 50.742l3.625 1.8125v14.5l-282.71 112.36-166.73-103.3c-25.371-14.5-30.809 90.613-7.25 103.3l170.35 110.55zm-161.29-34.434c-7.25-3.625 0-14.5 7.25-10.875l155.86 97.863 266.4-105.11c7.25-3.625 12.688 9.0625 5.4375 10.875l-270.03 106.92-1.8125 1.8125-3.625-1.8125-159.48-99.676zm0 61.617c-7.25-3.625 0-14.5 7.25-10.875l155.86 97.863 266.4-105.11c7.25-3.625 12.688 7.25 5.4375 10.875l-270.03 106.92h-1.8125l-3.625-1.8125-159.48-97.863zm0-30.809c-7.25-3.625 0-14.5 7.25-10.875 52.555 32.621 105.11 65.242 155.86 97.863 88.801-36.246 177.6-70.68 266.4-105.11 7.25-3.625 12.688 7.25 5.4375 10.875-90.613 36.246-179.41 70.68-270.03 106.92h-1.8125-3.625c-52.555-34.434-105.11-67.055-159.48-99.676zm0-175.79c-7.25-3.625 0-14.5 7.25-10.875l155.86 97.863 266.4-105.11c7.25-3.625 12.688 9.0625 5.4375 10.875l-270.03 106.92-1.8125 1.8125-3.625-1.8125-159.48-99.676zm0 61.617c-7.25-3.625 0-14.5 7.25-10.875l155.86 97.863 266.4-105.11c7.25-3.625 12.688 7.25 5.4375 10.875l-270.03 106.92-1.8125 1.8125-3.625-1.8125-159.48-99.676zm0-30.809c-7.25-3.625 0-14.5 7.25-10.875 52.555 32.621 103.3 65.242 155.86 97.863 88.801-34.434 177.6-70.68 266.4-105.11 7.25-3.625 12.688 9.0625 5.4375 10.875-90.613 36.246-179.41 70.68-270.03 106.92 0 0-1.8125 0-1.8125 1.8125-1.8125-1.8125-1.8125-1.8125-3.625-1.8125-52.555-32.621-106.92-67.055-159.48-99.676zm166.73-123.23 123.23 77.926 97.863-39.871c-18.121-9.0625-38.059-18.121-56.18-28.996-27.184-12.688-54.367-27.184-81.551-41.684l-83.363 32.621z" fill-rule="evenodd"></path>
 </g>

      </g>
      </svg>