<svg width="23" height="20" viewBox="0 0 23 20" fill="none" xmlns="http://www.w3.org/2000/svg">
<path d="M11.1569 19.625C5.22973 19.625 0.453125 15.3125 0.453125 10C0.453125 4.6875 5.22973 0.40625 11.1569 0.40625C17.0841 0.40625 21.8955 4.6875 21.8955 10C21.8955 15.3125 17.0841 19.625 11.1569 19.625ZM11.1569 1.5C5.92704 1.5 1.67342 5.3125 1.67342 10C1.67342 14.6875 5.92704 18.5312 11.1569 18.5312C16.3868 18.5312 20.6752 14.6875 20.6752 10C20.6752 5.3125 16.3868 1.5 11.1569 1.5Z" fill="#3056D3"/>
<path d="M9.9728 12.1875C9.72874 12.1875 9.51955 12.125 9.31035 11.9687L7.00922 9.96875C6.76516 9.75 6.76516 9.40625 7.00922 9.1875C7.25328 8.96875 7.6368 8.96875 7.88086 9.1875L9.9728 11.0312L14.4356 7.15625C14.6797 6.9375 15.0632 6.9375 15.3073 7.15625C15.5513 7.375 15.5513 7.71875 15.3073 7.9375L10.6701 12C10.4261 12.125 10.182 12.1875 9.9728 12.1875Z" fill="#3056D3"/>
</svg>
