<svg width="15" height="16" viewBox="0 0 15 16" fill="none" xmlns="http://www.w3.org/2000/svg">
<path d="M13.2637 3.83649H7.64754V3.04784C8.19721 2.90445 8.62738 2.37868 8.62738 1.78122C8.62738 1.06426 8.02992 0.466797 7.28906 0.466797C6.54821 0.466797 5.95074 1.06426 5.95074 1.78122C5.95074 2.37868 6.35702 2.88055 6.93058 3.04784V3.83649H1.31442C0.597464 3.83649 0 4.43396 0 5.15092V13.7305C0 14.4475 0.597464 15.0449 1.31442 15.0449H13.2637C13.9807 15.0449 14.5781 14.4475 14.5781 13.7305V5.15092C14.5781 4.43396 13.9807 3.83649 13.2637 3.83649ZM6.6677 1.78122C6.6677 1.44664 6.93058 1.18375 7.28906 1.18375C7.62364 1.18375 7.91042 1.44664 7.91042 1.78122C7.91042 2.1158 7.64754 2.37868 7.28906 2.37868C6.95448 2.37868 6.6677 2.0919 6.6677 1.78122ZM1.31442 4.55345H13.2637C13.5983 4.55345 13.8612 4.81634 13.8612 5.15092V6.91941H0.716957V5.15092C0.716957 4.81634 0.979841 4.55345 1.31442 4.55345ZM13.2637 14.328H1.31442C0.979841 14.328 0.716957 14.0651 0.716957 13.7305V7.63637H13.8612V13.7305C13.8612 14.0651 13.5983 14.328 13.2637 14.328Z" fill="#637381"/>
</svg>
