<svg id="svg" fill="#ff8c00" stroke="#ff8c00" width="128" height="128" version="1.1" viewBox="144 144 512 512" xmlns="http://www.w3.org/2000/svg">
    <g id="IconSvg_bgCarrier" stroke-width="0"></g>
    <g id="IconSvg_tracerCarrier" stroke-linecap="round" stroke-linejoin="round" stroke="#CCCCCC" stroke-width="0">
      <g xmlns="http://www.w3.org/2000/svg" fill-rule="evenodd">
  <path d="m482.45 506.66h60.285v3.1523h-60.285z"></path>
  <path d="m502.12 508.18v18.156l10.59-9.0781 6.0508 12.105s3.0273-21.18 1.5117-21.18h-18.156z"></path>
  <path d="m229.79 424.96h60.285v3.1523h-60.285z"></path>
  <path d="m249.46 426.48v18.156l10.59-9.0781 7.5664 12.105s3.0273-21.18 0-21.18h-18.156z"></path>
  <path d="m203.19 329.89 60.285 20.062v3.1523l-60.285-20.062z"></path>
  <path d="m222.23 338.72c0 1.5117 1.5117 16.641 1.5117 16.641l9.0781-6.0508 7.5664 15.129s3.0273-19.668 1.5117-19.668c-3.0273 0-19.668-6.0508-19.668-6.0508z"></path>
  <path d="m191.97 535.41 25.719-49.926h-18.156l-4.5391-10.59 4.5391-10.59h363.11l4.5391 7.5664c12.105 9.0781 18.156 21.18 18.156 36.312 0 27.234-21.18 48.414-46.902 48.414l-346.46-3.0273v-18.156zm346.46 21.18s1.5117 0 3.0273 1.5117zm25.719-48.414c0-9.0781-4.5391-18.156-13.617-22.695h-316.2v49.926h304.1c13.617 0 25.719-12.105 25.719-27.234z"></path>
  <path d="m586.85 473.38 4.5391-9.0781-4.5391-9.0781-25.719-49.926h27.234l6.0508-15.129-6.0508-13.617-9.0781-12.105c-46.902 12.105-128.6 33.285-152.81 40.848h118.01v49.926h-304.1c-13.617 0-25.719-12.105-25.719-27.234 0-9.0781 4.5391-18.156 13.617-22.695h96.828c-27.234-7.5664-81.699-24.207-102.88-30.258l-10.59 16.641c-12.105 9.0781-18.156 21.18-18.156 36.312 0 27.234 21.18 48.414 46.902 48.414l346.46-3.0273zm-346.46 3.0273s-1.5117 0-3.0273 1.5117z"></path>
  <path d="m600.46 355.37c-3.0273-15.129-3.0273-39.336 10.59-48.414h1.5117c10.59-4.5391 18.156-9.0781 12.105-15.129l-161.88-48.414-261.74 36.312s-30.258 4.5391-27.234 49.926c1.5117 25.719 9.0781 37.824 16.641 43.875l164.91 45.387s16.641 9.0781 48.414-1.5117c25.719-7.5664 158.86-37.824 204.25-49.926 24.207-6.0508 6.0508-9.0781-7.5664-12.105zm-317.72-57.492 59.004 19.668 40.848-9.0781-55.98-18.156-43.875 7.5664zm101.37 55.98 43.875-9.0781 146.75-30.258 21.18-4.5391c-7.5664 13.617-6.0508 30.258-6.0508 42.363 1.5117 3.0273 1.5117 4.5391 1.5117 6.0508l-24.207 6.0508-184.58 46.902 1.5117-57.492zm-195.17-25.719c0-12.105 1.5117-21.18 6.0508-25.719 3.0273-3.0273 6.0508-4.5391 9.0781-4.5391 1.5117 0 1.5117 1.5117 1.5117 1.5117l113.47 36.312 55.98 18.156-1.5117 57.492-158.86-45.387-7.5664-1.5117h-1.5117s-16.641-1.5117-16.641-36.312z"></path>
 </g>

      </g>
     <g id="IconSvg_iconCarrier">
      <g xmlns="http://www.w3.org/2000/svg" fill-rule="evenodd">
  <path d="m482.45 506.66h60.285v3.1523h-60.285z"></path>
  <path d="m502.12 508.18v18.156l10.59-9.0781 6.0508 12.105s3.0273-21.18 1.5117-21.18h-18.156z"></path>
  <path d="m229.79 424.96h60.285v3.1523h-60.285z"></path>
  <path d="m249.46 426.48v18.156l10.59-9.0781 7.5664 12.105s3.0273-21.18 0-21.18h-18.156z"></path>
  <path d="m203.19 329.89 60.285 20.062v3.1523l-60.285-20.062z"></path>
  <path d="m222.23 338.72c0 1.5117 1.5117 16.641 1.5117 16.641l9.0781-6.0508 7.5664 15.129s3.0273-19.668 1.5117-19.668c-3.0273 0-19.668-6.0508-19.668-6.0508z"></path>
  <path d="m191.97 535.41 25.719-49.926h-18.156l-4.5391-10.59 4.5391-10.59h363.11l4.5391 7.5664c12.105 9.0781 18.156 21.18 18.156 36.312 0 27.234-21.18 48.414-46.902 48.414l-346.46-3.0273v-18.156zm346.46 21.18s1.5117 0 3.0273 1.5117zm25.719-48.414c0-9.0781-4.5391-18.156-13.617-22.695h-316.2v49.926h304.1c13.617 0 25.719-12.105 25.719-27.234z"></path>
  <path d="m586.85 473.38 4.5391-9.0781-4.5391-9.0781-25.719-49.926h27.234l6.0508-15.129-6.0508-13.617-9.0781-12.105c-46.902 12.105-128.6 33.285-152.81 40.848h118.01v49.926h-304.1c-13.617 0-25.719-12.105-25.719-27.234 0-9.0781 4.5391-18.156 13.617-22.695h96.828c-27.234-7.5664-81.699-24.207-102.88-30.258l-10.59 16.641c-12.105 9.0781-18.156 21.18-18.156 36.312 0 27.234 21.18 48.414 46.902 48.414l346.46-3.0273zm-346.46 3.0273s-1.5117 0-3.0273 1.5117z"></path>
  <path d="m600.46 355.37c-3.0273-15.129-3.0273-39.336 10.59-48.414h1.5117c10.59-4.5391 18.156-9.0781 12.105-15.129l-161.88-48.414-261.74 36.312s-30.258 4.5391-27.234 49.926c1.5117 25.719 9.0781 37.824 16.641 43.875l164.91 45.387s16.641 9.0781 48.414-1.5117c25.719-7.5664 158.86-37.824 204.25-49.926 24.207-6.0508 6.0508-9.0781-7.5664-12.105zm-317.72-57.492 59.004 19.668 40.848-9.0781-55.98-18.156-43.875 7.5664zm101.37 55.98 43.875-9.0781 146.75-30.258 21.18-4.5391c-7.5664 13.617-6.0508 30.258-6.0508 42.363 1.5117 3.0273 1.5117 4.5391 1.5117 6.0508l-24.207 6.0508-184.58 46.902 1.5117-57.492zm-195.17-25.719c0-12.105 1.5117-21.18 6.0508-25.719 3.0273-3.0273 6.0508-4.5391 9.0781-4.5391 1.5117 0 1.5117 1.5117 1.5117 1.5117l113.47 36.312 55.98 18.156-1.5117 57.492-158.86-45.387-7.5664-1.5117h-1.5117s-16.641-1.5117-16.641-36.312z"></path>
 </g>

      </g>
      </svg>