<svg xmlns="http://www.w3.org/2000/svg" width="64" height="64" viewBox="0 0 256 256">
<path style="fill:#ffffff; stroke:none;" d="M0 0L0 93C3.06423 86.6238 3.43382 78.7333 6.0679 72C11.3113 58.5967 21.9297 47.5544 34 40.0656C47.6954 31.5685 64.1723 27.3552 80 25.1304C90.0437 23.7186 99.9714 23.7846 110 22.8302C122.011 21.6873 133.989 21.6873 146 22.8302C180.816 26.1435 220.094 27.4325 242.702 59C246.287 64.0055 249.005 69.1736 250.997 75C253.016 80.9051 254.73 86.7341 255 93C258.306 85.121 256 72.5339 256 64L256 0L0 0z"/>
<path style="fill:#2147b2; stroke:none;" d="M0 107L53 107C53.4815 100.907 54.6389 94.7666 56.6983 89C58.4569 84.0757 60.8826 79.0142 64.3287 75.0401C80.3795 56.5301 112.395 62 134 62C150.847 62 170.054 60.1766 185 69.4676C193.143 74.5292 197.699 82.9509 200.115 92C201.058 95.5302 200.903 104.605 204.434 106.397C208.371 108.395 215.669 107 220 107L256 107C256 97.4578 255.521 88.1913 252.653 79C250.933 73.4877 249.069 67.9694 246.074 63C234.164 43.2369 212.937 32.5254 191 27.7901C163.259 21.802 135.166 21.7273 107 22.9606C78.0011 24.2305 46.0014 27.5185 23.0008 47.3002C5.53353 62.3229 0 84.9242 0 107z"/>
<path style="fill:#ffffff; stroke:none;" d="M53 107L0 107L0 112L53 112C52.9774 114.691 53.0131 117.402 52.196 120C48.3256 132.307 34.2911 131.001 24 131C14.7274 130.999 5.41195 130.429 1 121C-0.768744 125.215 0 130.464 0 135L0 162L0 256L256 256L256 120C253.867 122.806 252.154 125.795 248.96 127.558C243.534 130.552 236.962 130 231 130C221.494 130 207.682 131.145 203.854 119.996C202.968 117.414 203.023 114.691 203 112L256 112L256 107L221 107C216.443 107 209.452 108.301 205.228 106.397C200.957 104.471 201.394 95.9811 200.37 92C198.08 83.0887 194.061 74.4956 185.999 69.4676C171.077 60.1608 151.829 62 135 62C113.663 62 80.4871 56.1068 64.3287 74.0934C60.3781 78.4909 57.802 84.4202 56.0285 90C54.2909 95.4672 53.2459 101.273 53 107z"/>
<path style="fill:#2147b2; stroke:none;" d="M152 103L99 103C99 99.5012 99.8635 94.3788 97.821 91.3179C95.0219 87.1232 84.3919 88.8767 80.0008 89.0154C78.235 89.0712 76.0716 89.0161 74.6034 90.179C71.4402 92.6843 73.4085 99.4974 72.7716 103C71.9736 107.389 68.5034 110.697 65.7531 114C54.217 127.856 43.4529 142.315 33 157C28.06 163.94 21.028 171.685 18.6381 180C16.3921 187.814 18 197.91 18 206C18 212.634 16.1212 222.719 18.7423 228.895C20.6555 233.403 25.72 233.938 30 233.996C39.996 234.132 50.003 234 60 234L187 234C198.331 234 209.67 234.136 221 233.996C225.778 233.937 231.042 233.34 232.566 227.981C234.268 222.001 233 214.186 233 208C233 199.199 235.042 187.409 232.301 179C229.586 170.672 222.447 163.03 217.421 156C207.18 141.674 196.678 127.543 185.414 114C182.667 110.697 179.179 107.355 178.279 103C177.548 99.4694 179.588 92.5555 176.397 90.0278C174.943 88.8768 172.734 89.0374 170.999 89.0046C166.583 88.9211 155.997 87.0942 153.179 91.3179C151.137 94.3788 152 99.5012 152 103M0 112C0.00325986 116.922 -0.279452 121.966 3.27855 125.867C8.43969 131.524 17.0268 131 24 131C33.8125 131 48.461 132.883 52.196 121C53.1096 118.093 52.9917 115.008 53 112L0 112M203 112C203.008 114.996 202.855 118.111 203.854 120.985C207.749 132.193 223.656 130 233 130C239.367 130 247.606 130.666 252.442 125.606C256.006 121.877 255.987 116.811 256 112L203 112z"/>
<path style="fill:#ffffff; stroke:none;" d="M92.2284 125.029C85.9999 128.788 91.3952 139.231 97.9414 135.953C105.585 132.125 99.4941 120.643 92.2284 125.029M122.148 125.032C115.707 128.742 121.083 139.485 127.941 135.957C135.596 132.019 129.403 120.852 122.148 125.032M152.148 125.032C145.742 128.722 151.086 139.555 157.891 135.957C165.418 131.977 159.445 120.828 152.148 125.032M95.0039 148.917C86.9646 149.592 88.1576 162.073 95.9961 161.338C103.892 160.598 103.023 148.243 95.0039 148.917M125.001 148.917C116.978 149.595 117.887 162.324 125.999 161.353C133.83 160.415 132.857 148.252 125.001 148.917M152.148 150.032C145.723 153.733 151.127 164.325 157.891 160.802C165.449 156.866 159.369 145.872 152.148 150.032M95.0039 173.917C86.9646 174.592 88.1576 187.073 95.9961 186.338C103.892 185.598 103.023 173.243 95.0039 173.917M125.001 173.917C116.964 174.596 118.159 187.072 125.996 186.338C133.87 185.6 132.84 173.254 125.001 173.917M155.012 173.877C146.735 174.207 147.905 187.333 155.988 186.353C163.678 185.42 162.848 173.565 155.012 173.877z"/>
</svg>