<svg xmlns="http://www.w3.org/2000/svg" xmlns:v="https://svgstorm.com"
viewBox = "0 0 730 730"
width="730"
height="730">
<g fill="None" fill-opacity="0.0" stroke="#245003" stroke-opacity="1.00" stroke-width="0.3"><path d="
M 0.00 730.00 
L 730.00 730.00
L 730.00 0.00
L 0.00 0.00
L 0.00 730.00
M 336.00 98.00 
C 342.97 110.63 343.00 124.39 343.00 139.00
C 347.61 186.57 343.15 236.46 344.00 285.00 C 344.85 333.54 344.88 383.40 344.00 432.00 C 343.12 480.60 347.61 531.37 343.00 579.00
C 343.00 588.99 341.90 597.82 339.00 607.00
C 332.58 627.31 314.87 649.07 293.00 654.00
C 287.03 656.12 280.70 658.37 274.00 659.00
C 264.28 659.91 250.06 659.45 241.33 656.67 C 232.59 653.90 223.63 652.15 216.75 646.25 C 209.88 640.35 202.53 639.62 197.75 630.25 C 192.97 620.88 182.56 618.62 172.00 620.00 C 161.44 621.38 152.58 616.27 143.92 613.08 C 135.27 609.88 130.06 604.58 123.25 598.75 C 116.43 592.93 112.57 585.99 109.03 577.97 C 105.49 569.95 101.97 557.88 104.00 549.00
C 91.27 548.81 80.99 544.15 70.30 537.70 C 59.62 531.25 57.50 522.30 50.69 512.31 C 43.89 502.31 50.31 485.32 43.75 476.25 C 37.19 467.18 29.02 461.13 25.23 449.77 C 21.43 438.41 16.95 423.93 18.00 411.00
C 18.00 407.25 18.71 403.01 19.00 400.00
C 19.00 386.42 22.38 373.80 29.92 361.92 C 37.47 350.05 30.00 336.86 30.00 323.00
C 29.39 316.69 29.24 309.27 30.00 303.00
C 30.21 292.66 34.46 282.49 38.31 273.31 C 42.15 264.12 48.33 258.85 53.75 250.75 C 59.17 242.65 68.98 239.90 75.00 234.00
C 77.79 230.17 76.59 217.29 77.00 213.00
C 77.00 179.98 106.75 149.83 139.00 147.00
C 141.71 135.53 144.95 124.85 152.25 115.25 C 159.55 105.65 167.13 100.37 177.70 94.70 C 188.26 89.02 203.23 88.93 215.00 87.00 C 226.77 85.07 232.92 73.82 245.02 71.02 C 257.13 68.23 270.25 61.39 284.00 64.00
C 306.10 65.50 325.31 78.62 336.00 98.00
M 484.00 242.00 
C 484.37 245.80 486.71 250.52 486.00 255.00
C 490.21 246.42 496.60 239.15 501.77 230.77 C 506.94 222.39 515.15 215.12 516.98 204.98 C 518.81 194.83 519.59 180.01 523.77 170.77 C 527.95 161.53 531.84 152.90 539.25 146.25 C 546.66 139.59 555.25 133.19 564.08 130.08 C 572.90 126.96 590.12 119.06 593.00 130.00
C 594.97 137.48 594.92 145.38 594.00 153.00
C 593.77 164.50 589.41 175.08 583.70 184.70 C 577.98 194.31 570.93 198.60 562.25 205.25 C 553.57 211.91 537.69 208.76 530.70 216.70 C 523.70 224.63 519.81 233.26 514.23 242.23 C 508.65 251.20 504.97 260.79 500.68 270.68 C 496.39 280.56 491.73 292.10 490.00 303.00
C 488.67 311.39 485.86 320.12 484.00 328.00
C 480.96 351.38 475.59 374.30 470.00 397.00
C 489.56 389.11 512.74 380.40 529.75 367.75 C 546.75 355.09 571.10 348.34 580.32 328.32 C 589.54 308.30 595.86 289.14 615.25 274.25 C 634.64 259.36 660.43 252.31 686.00 255.00
C 683.12 297.34 651.68 341.66 606.00 343.00
C 603.52 343.30 600.14 344.00 597.00 344.00
C 576.78 344.00 563.56 365.91 546.30 374.30 C 529.05 382.70 513.46 397.68 495.00 404.00
C 521.65 409.04 552.95 414.66 580.22 409.22 C 607.49 403.78 606.09 375.80 628.23 361.23 C 650.37 346.66 678.51 341.88 704.00 353.00
C 700.21 367.80 692.70 381.00 680.75 391.75 C 668.80 402.51 654.27 411.25 637.00 410.00 C 619.73 408.75 600.96 414.02 586.00 421.00
C 597.56 423.42 609.31 432.51 622.00 432.00 C 634.70 431.49 650.13 423.43 663.07 429.93 C 676.01 436.42 679.43 438.67 688.92 451.08 C 698.41 463.49 684.11 468.68 671.00 470.00 C 657.88 471.32 642.55 471.56 631.75 464.25 C 620.96 456.93 617.15 449.23 606.25 442.75 C 595.36 436.26 583.61 433.64 570.93 431.07 C 558.24 428.50 542.00 428.39 529.00 426.00
C 519.13 425.41 509.17 424.61 499.00 425.00
C 465.61 426.27 441.55 455.58 430.68 485.68 C 419.80 515.78 420.10 565.71 435.92 595.08 C 451.75 624.44 479.29 642.46 510.00 651.00
C 501.27 655.02 488.38 652.51 477.00 653.00 C 465.62 653.49 452.63 652.76 441.00 653.00 C 429.37 653.24 417.75 652.88 406.00 653.00 C 394.25 653.12 381.82 652.91 370.00 653.00
C 370.00 634.00 370.00 615.00 370.00 596.00
C 367.72 572.48 367.73 544.45 370.00 521.00
C 370.00 483.17 390.31 455.94 413.30 427.30 C 436.30 398.66 446.16 370.71 457.93 334.93 C 469.69 299.15 467.72 249.43 464.00 211.00
C 463.20 206.80 462.07 201.53 461.00 197.00
C 458.32 185.66 455.38 174.05 450.68 163.32 C 445.98 152.60 437.38 147.97 428.25 140.75 C 419.11 133.54 413.53 128.96 408.08 116.92 C 402.62 104.89 403.10 93.13 403.98 77.98 C 404.85 62.83 419.27 67.05 429.23 73.77 C 439.19 80.49 447.50 82.65 453.75 93.25 C 460.00 103.84 465.08 114.83 464.00 128.00 C 462.92 141.17 465.20 154.45 469.78 166.22 C 474.36 178.00 476.49 189.63 478.93 202.07 C 481.36 214.52 483.74 229.00 484.00 242.00
M 498.00 79.00 
C 504.34 86.48 509.11 90.54 513.31 99.69 C 517.50 108.85 519.12 119.47 518.00 130.00 C 516.89 140.53 513.29 146.58 508.23 156.23 C 503.17 165.88 494.24 166.24 488.25 156.75 C 482.25 147.27 479.91 141.71 477.67 131.33 C 475.44 120.94 477.46 108.55 481.77 99.77 C 486.08 91.00 489.22 83.65 498.00 79.00
M 385.00 138.00 
C 394.08 138.24 405.39 147.20 413.75 151.25 C 422.10 155.31 429.90 164.92 433.77 173.23 C 437.64 181.54 443.11 203.52 431.00 205.00 C 418.88 206.47 405.15 203.86 396.30 197.70 C 387.45 191.53 382.31 180.47 379.69 172.31 C 377.08 164.14 374.32 137.72 385.00 138.00
M 640.00 183.00 
C 644.58 185.61 641.87 197.96 643.00 203.00 C 644.13 208.04 641.64 217.91 640.02 223.02 C 638.41 228.14 635.74 233.77 632.08 238.08 C 628.42 242.39 625.40 246.06 620.25 249.25 C 615.10 252.45 610.61 254.24 603.93 255.93 C 597.25 257.61 593.93 250.49 592.02 244.98 C 590.12 239.46 588.03 231.24 589.00 225.00 C 589.97 218.76 592.06 212.98 594.77 207.77 C 597.48 202.57 601.25 198.92 605.75 195.75 C 610.25 192.59 615.02 188.25 620.22 187.22 C 625.43 186.20 634.54 179.89 640.00 183.00
M 449.00 272.00 
C 449.61 276.25 449.50 280.84 449.00 285.00
C 448.66 301.78 429.63 294.09 418.78 292.22 C 407.92 290.35 398.39 283.52 390.75 276.25 C 383.12 268.98 376.85 258.20 375.02 248.98 C 373.20 239.75 366.47 217.44 377.03 213.03 C 387.59 208.62 402.70 217.31 412.08 220.92 C 421.45 224.54 429.44 232.47 436.75 240.25 C 444.07 248.02 448.59 261.25 449.00 272.00
M 557.00 245.00 
C 563.61 246.70 565.64 257.03 569.31 262.69 C 572.97 268.36 573.64 282.30 573.00 290.00 C 572.36 297.70 569.96 307.09 566.07 314.07 C 562.19 321.06 557.18 323.50 551.25 329.25 C 545.33 335.01 537.04 333.53 533.23 325.77 C 529.42 318.01 525.48 312.16 524.22 303.78 C 522.97 295.40 524.53 283.72 526.78 276.78 C 529.02 269.83 533.60 261.86 538.75 257.75 C 543.91 253.65 550.37 243.30 557.00 245.00
M 383.00 306.00 
C 393.51 307.31 404.07 314.62 412.75 321.25 C 421.43 327.88 426.32 340.36 428.33 350.67 C 430.34 360.98 431.44 386.15 418.00 385.00 C 404.56 383.85 396.97 377.67 387.75 370.25 C 378.53 362.83 374.53 350.18 372.67 340.33 C 370.81 330.47 369.12 304.27 383.00 306.00
M 598.00 496.00 
C 598.43 499.54 598.33 503.55 598.00 507.00
C 598.00 517.59 595.79 529.71 584.99 525.01 C 574.19 520.30 568.84 519.70 560.77 513.23 C 552.70 506.76 548.38 503.13 543.25 494.75 C 538.11 486.37 537.11 475.00 537.00 465.00 C 536.89 455.00 538.91 443.80 543.00 435.00
C 563.19 453.61 599.50 462.10 598.00 496.00 Z"/>
</g>
<g fill="None" fill-opacity="0.0" stroke="#FCFCF9" stroke-opacity="1.00" stroke-width="0.3"><path d="
M 77.00 213.00 
C 77.00 218.86 79.08 230.00 75.00 234.00
C 68.98 239.90 59.17 242.65 53.75 250.75 C 48.33 258.85 42.15 264.12 38.31 273.31 C 34.46 282.49 30.21 292.66 30.00 303.00
C 29.87 309.66 30.00 316.34 30.00 323.00
C 30.00 336.86 37.47 350.05 29.92 361.92 C 22.38 373.80 19.00 386.42 19.00 400.00
C 19.00 403.75 18.29 407.99 18.00 411.00
C 16.95 423.93 21.43 438.41 25.23 449.77 C 29.02 461.13 37.19 467.18 43.75 476.25 C 50.31 485.32 43.89 502.31 50.69 512.31 C 57.50 522.30 59.62 531.25 70.30 537.70 C 80.99 544.15 91.27 548.81 104.00 549.00
C 101.97 557.88 105.49 569.95 109.03 577.97 C 112.57 585.99 116.43 592.93 123.25 598.75 C 130.06 604.58 135.27 609.88 143.92 613.08 C 152.58 616.27 161.44 621.38 172.00 620.00 C 182.56 618.62 192.97 620.88 197.75 630.25 C 202.53 639.62 209.88 640.35 216.75 646.25 C 223.63 652.15 232.59 653.90 241.33 656.67 C 250.06 659.45 264.28 659.91 274.00 659.00
C 274.04 659.00 274.00 658.00 274.00 658.00
C 274.50 654.62 287.89 654.93 292.02 653.02 C 296.16 651.12 303.15 648.42 307.08 645.08 C 311.02 641.74 316.44 639.42 319.75 634.75 C 323.06 630.09 328.07 627.34 329.92 621.92 C 331.76 616.50 336.39 611.73 339.00 607.00
C 341.90 597.82 343.00 588.99 343.00 579.00
C 343.00 432.33 343.00 285.67 343.00 139.00
C 343.00 124.39 342.97 110.63 336.00 98.00
C 329.80 91.49 322.38 83.12 313.75 77.25 C 305.13 71.37 293.89 66.30 284.00 64.00
C 270.25 61.39 257.13 68.23 245.02 71.02 C 232.92 73.82 226.77 85.07 215.00 87.00 C 203.23 88.93 188.26 89.02 177.70 94.70 C 167.13 100.37 159.55 105.65 152.25 115.25 C 144.95 124.85 141.71 135.53 139.00 147.00
C 106.75 149.83 77.00 179.98 77.00 213.00
M 285.00 83.00 
C 301.05 84.09 319.09 95.80 322.78 114.22 C 326.46 132.65 323.00 162.07 324.00 183.00 C 325.00 203.93 323.25 231.47 324.00 253.00
C 317.69 249.44 313.76 244.16 308.25 238.75 C 302.74 233.34 299.04 229.47 292.75 224.25 C 286.47 219.02 282.04 213.50 281.00 205.00 C 279.96 196.50 280.95 185.47 280.00 176.00 C 279.05 166.54 281.06 158.64 287.92 152.92 C 294.78 147.20 292.12 136.97 288.23 130.77 C 284.34 124.57 272.85 121.42 265.93 123.93 C 259.00 126.43 252.90 132.03 252.02 140.02 C 251.15 148.02 256.74 155.67 263.00 160.00
C 266.57 166.68 263.09 177.05 264.00 185.00 C 264.91 192.95 263.69 202.85 264.00 211.00
C 264.36 220.56 270.10 226.17 277.23 231.77 C 284.36 237.37 287.44 243.04 294.75 248.25 C 302.05 253.47 304.60 259.99 312.25 265.75 C 319.90 271.52 325.84 276.86 324.00 288.00 C 322.17 299.14 324.93 310.66 324.00 322.00 C 323.07 333.34 324.70 345.58 324.00 357.00
C 315.25 362.15 309.93 352.09 303.25 346.75 C 296.56 341.42 291.73 335.90 284.77 330.23 C 277.81 324.56 274.21 318.33 266.25 312.75 C 258.28 307.17 265.83 296.55 264.22 287.78 C 262.62 279.01 258.42 271.41 249.92 267.08 C 241.43 262.74 228.83 262.48 220.77 267.77 C 212.71 273.07 208.19 280.46 208.00 290.00 C 207.81 299.54 211.51 307.96 219.23 313.77 C 226.95 319.58 239.49 320.30 249.00 318.00
C 254.79 324.36 260.35 330.31 266.75 336.25 C 273.15 342.19 278.72 347.43 285.25 353.75 C 291.78 360.07 296.77 364.33 303.75 371.25 C 310.73 378.16 326.64 373.14 324.00 387.00 C 321.36 400.86 325.18 410.19 324.00 423.00 C 322.82 435.81 324.51 446.69 324.00 459.00 C 323.49 471.31 324.18 482.98 324.00 495.00 C 323.82 507.02 323.97 519.25 324.00 531.00 C 324.03 542.75 323.74 555.70 324.00 567.00 C 324.26 578.30 324.16 590.59 321.22 600.22 C 318.28 609.85 315.48 616.56 308.25 623.25 C 301.02 629.94 294.86 633.62 285.78 636.78 C 276.69 639.93 263.40 640.77 253.93 639.07 C 244.45 637.38 233.69 637.00 226.30 630.70 C 218.92 624.40 212.46 622.00 208.23 612.77 C 204.00 603.54 196.52 596.55 185.00 601.00
C 180.48 601.44 175.53 601.81 171.00 601.00
C 160.53 600.29 150.00 595.83 141.75 589.25 C 133.51 582.66 127.98 575.99 124.23 565.77 C 120.47 555.55 121.22 543.86 129.92 534.92 C 138.63 525.99 124.98 511.04 116.77 522.77 C 108.56 534.50 97.71 530.27 86.92 526.08 C 76.12 521.89 73.45 514.25 67.23 504.77 C 61.01 495.29 71.32 479.62 65.75 471.25 C 60.17 462.89 51.34 459.04 46.70 449.30 C 42.06 439.56 38.99 428.70 38.00 417.00 C 37.02 405.30 40.79 391.74 42.93 380.93 C 45.06 370.12 55.22 363.77 55.98 352.98 C 56.73 342.18 47.87 331.44 48.22 319.78 C 48.57 308.12 50.19 295.99 54.00 285.00
C 55.26 281.35 56.93 279.10 59.00 276.00
C 63.56 267.46 70.60 260.50 78.25 254.25 C 85.90 248.00 100.23 245.73 97.07 233.93 C 93.92 222.13 95.98 208.43 99.98 197.98 C 103.97 187.53 108.56 181.68 117.75 174.75 C 126.95 167.82 136.90 164.15 150.00 165.00 C 163.10 165.85 159.13 145.65 162.93 136.93 C 166.73 128.20 171.51 118.58 181.23 114.23 C 190.95 109.88 202.27 104.73 214.00 106.00 C 225.73 107.27 234.50 101.16 243.08 94.08 C 251.67 87.01 263.06 83.74 274.00 83.00
C 277.77 82.32 281.29 82.34 285.00 83.00
M 240.00 278.00 
C 256.88 281.12 250.03 309.94 233.00 305.00 C 215.97 300.06 222.86 274.83 240.00 278.00 Z"/>
</g>
<g fill="None" fill-opacity="0.0" stroke="#E5D69C" stroke-opacity="1.00" stroke-width="0.3"><path d="
M 336.00 98.00 
C 325.31 78.62 306.10 65.50 284.00 64.00
C 293.89 66.30 305.13 71.37 313.75 77.25 C 322.38 83.12 329.80 91.49 336.00 98.00 Z"/>
</g>
<g fill="None" fill-opacity="0.0" stroke="#FCFDFC" stroke-opacity="1.00" stroke-width="0.3"><path d="
M 461.00 197.00 
C 462.69 201.58 463.49 205.70 464.00 211.00
C 467.72 249.43 469.69 299.15 457.93 334.93 C 446.16 370.71 436.30 398.66 413.30 427.30 C 390.31 455.94 370.00 483.17 370.00 521.00
C 370.00 546.00 370.00 571.00 370.00 596.00
C 370.00 615.00 370.00 634.00 370.00 653.00
C 381.82 652.91 394.25 653.12 406.00 653.00 C 417.75 652.88 429.37 653.24 441.00 653.00 C 452.63 652.76 465.62 653.49 477.00 653.00 C 488.38 652.51 501.27 655.02 510.00 651.00
C 479.29 642.46 451.75 624.44 435.92 595.08 C 420.10 565.71 419.80 515.78 430.68 485.68 C 441.55 455.58 465.61 426.27 499.00 425.00
C 508.93 423.58 519.42 424.63 529.00 426.00
C 542.00 428.39 558.24 428.50 570.93 431.07 C 583.61 433.64 595.36 436.26 606.25 442.75 C 617.15 449.23 620.96 456.93 631.75 464.25 C 642.55 471.56 657.88 471.32 671.00 470.00 C 684.11 468.68 698.41 463.49 688.92 451.08 C 679.43 438.67 676.01 436.42 663.07 429.93 C 650.13 423.43 634.70 431.49 622.00 432.00 C 609.31 432.51 597.56 423.42 586.00 421.00
C 600.96 414.02 619.73 408.75 637.00 410.00 C 654.27 411.25 668.80 402.51 680.75 391.75 C 692.70 381.00 700.21 367.80 704.00 353.00
C 678.51 341.88 650.37 346.66 628.23 361.23 C 606.09 375.80 607.49 403.78 580.22 409.22 C 552.95 414.66 521.65 409.04 495.00 404.00
C 513.46 397.68 529.05 382.70 546.30 374.30 C 563.56 365.91 576.78 344.00 597.00 344.00
C 599.40 343.77 602.94 343.06 606.00 343.00
C 651.68 341.66 683.12 297.34 686.00 255.00
C 660.43 252.31 634.64 259.36 615.25 274.25 C 595.86 289.14 589.54 308.30 580.32 328.32 C 571.10 348.34 546.75 355.09 529.75 367.75 C 512.74 380.40 489.56 389.11 470.00 397.00
C 475.59 374.30 480.96 351.38 484.00 328.00
C 485.14 319.28 487.80 311.00 490.00 303.00
C 491.73 292.10 496.39 280.56 500.68 270.68 C 504.97 260.79 508.65 251.20 514.23 242.23 C 519.81 233.26 523.70 224.63 530.70 216.70 C 537.69 208.76 553.57 211.91 562.25 205.25 C 570.93 198.60 577.98 194.31 583.70 184.70 C 589.41 175.08 593.77 164.50 594.00 153.00
C 594.16 145.24 594.19 137.47 593.00 130.00
C 590.12 119.06 572.90 126.96 564.08 130.08 C 555.25 133.19 546.66 139.59 539.25 146.25 C 531.84 152.90 527.95 161.53 523.77 170.77 C 519.59 180.01 518.81 194.83 516.98 204.98 C 515.15 215.12 506.94 222.39 501.77 230.77 C 496.60 239.15 490.21 246.42 486.00 255.00
C 484.25 251.34 484.09 246.44 484.00 242.00
C 483.74 229.00 481.36 214.52 478.93 202.07 C 476.49 189.63 474.36 178.00 469.78 166.22 C 465.20 154.45 462.92 141.17 464.00 128.00 C 465.08 114.83 460.00 103.84 453.75 93.25 C 447.50 82.65 439.19 80.49 429.23 73.77 C 419.27 67.05 404.85 62.83 403.98 77.98 C 403.10 93.13 402.62 104.89 408.08 116.92 C 413.53 128.96 419.11 133.54 428.25 140.75 C 437.38 147.97 445.98 152.60 450.68 163.32 C 455.38 174.05 458.32 185.66 461.00 197.00 Z"/>
</g>
<g fill="None" fill-opacity="0.0" stroke="#FCFCFB" stroke-opacity="1.00" stroke-width="0.3"><path d="
M 498.00 79.00 
C 489.22 83.65 486.08 91.00 481.77 99.77 C 477.46 108.55 475.44 120.94 477.67 131.33 C 479.91 141.71 482.25 147.27 488.25 156.75 C 494.24 166.24 503.17 165.88 508.23 156.23 C 513.29 146.58 516.89 140.53 518.00 130.00 C 519.12 119.47 517.50 108.85 513.31 99.69 C 509.11 90.54 504.34 86.48 498.00 79.00 Z"/>
</g>
<g fill="None" fill-opacity="0.0" stroke="#AAAF7D" stroke-opacity="1.00" stroke-width="0.3"><path d="
M 274.00 83.00 
C 277.55 82.76 281.45 82.76 285.00 83.00
C 281.29 82.34 277.77 82.32 274.00 83.00 Z"/>
</g>
<g fill="None" fill-opacity="0.0" stroke="#255105" stroke-opacity="1.00" stroke-width="0.3"><path d="
M 59.00 276.00 
C 57.39 279.02 55.32 282.20 54.00 285.00
C 50.19 295.99 48.57 308.12 48.22 319.78 C 47.87 331.44 56.73 342.18 55.98 352.98 C 55.22 363.77 45.06 370.12 42.93 380.93 C 40.79 391.74 37.02 405.30 38.00 417.00 C 38.99 428.70 42.06 439.56 46.70 449.30 C 51.34 459.04 60.17 462.89 65.75 471.25 C 71.32 479.62 61.01 495.29 67.23 504.77 C 73.45 514.25 76.12 521.89 86.92 526.08 C 97.71 530.27 108.56 534.50 116.77 522.77 C 124.98 511.04 138.63 525.99 129.92 534.92 C 121.22 543.86 120.47 555.55 124.23 565.77 C 127.98 575.99 133.51 582.66 141.75 589.25 C 150.00 595.83 160.53 600.29 171.00 601.00
C 175.62 601.31 180.37 601.00 185.00 601.00
C 196.52 596.55 204.00 603.54 208.23 612.77 C 212.46 622.00 218.92 624.40 226.30 630.70 C 233.69 637.00 244.45 637.38 253.93 639.07 C 263.40 640.77 276.69 639.93 285.78 636.78 C 294.86 633.62 301.02 629.94 308.25 623.25 C 315.48 616.56 318.28 609.85 321.22 600.22 C 324.16 590.59 324.26 578.30 324.00 567.00 C 323.74 555.70 324.03 542.75 324.00 531.00 C 323.97 519.25 323.82 507.02 324.00 495.00 C 324.18 482.98 323.49 471.31 324.00 459.00 C 324.51 446.69 322.82 435.81 324.00 423.00 C 325.18 410.19 321.36 400.86 324.00 387.00 C 326.64 373.14 310.73 378.16 303.75 371.25 C 296.77 364.33 291.78 360.07 285.25 353.75 C 278.72 347.43 273.15 342.19 266.75 336.25 C 260.35 330.31 254.79 324.36 249.00 318.00
C 239.49 320.30 226.95 319.58 219.23 313.77 C 211.51 307.96 207.81 299.54 208.00 290.00 C 208.19 280.46 212.71 273.07 220.77 267.77 C 228.83 262.48 241.43 262.74 249.92 267.08 C 258.42 271.41 262.62 279.01 264.22 287.78 C 265.83 296.55 258.28 307.17 266.25 312.75 C 274.21 318.33 277.81 324.56 284.77 330.23 C 291.73 335.90 296.56 341.42 303.25 346.75 C 309.93 352.09 315.25 362.15 324.00 357.00
C 324.70 345.58 323.07 333.34 324.00 322.00 C 324.93 310.66 322.17 299.14 324.00 288.00 C 325.84 276.86 319.90 271.52 312.25 265.75 C 304.60 259.99 302.05 253.47 294.75 248.25 C 287.44 243.04 284.36 237.37 277.23 231.77 C 270.10 226.17 264.36 220.56 264.00 211.00
C 262.93 203.52 263.85 193.99 263.00 186.00 C 262.15 178.01 265.62 167.46 263.00 160.00
C 256.74 155.67 251.15 148.02 252.02 140.02 C 252.90 132.03 259.00 126.43 265.93 123.93 C 272.85 121.42 284.34 124.57 288.23 130.77 C 292.12 136.97 294.78 147.20 287.92 152.92 C 281.06 158.64 279.05 166.54 280.00 176.00 C 280.95 185.47 279.96 196.50 281.00 205.00 C 282.04 213.50 286.47 219.02 292.75 224.25 C 299.04 229.47 302.74 233.34 308.25 238.75 C 313.76 244.16 317.69 249.44 324.00 253.00
C 323.25 231.47 325.00 203.93 324.00 183.00 C 323.00 162.07 326.46 132.65 322.78 114.22 C 319.09 95.80 301.05 84.09 285.00 83.00
C 281.45 82.76 277.55 82.76 274.00 83.00
C 263.06 83.74 251.67 87.01 243.08 94.08 C 234.50 101.16 225.73 107.27 214.00 106.00 C 202.27 104.73 190.95 109.88 181.23 114.23 C 171.51 118.58 166.73 128.20 162.93 136.93 C 159.13 145.65 163.10 165.85 150.00 165.00 C 136.90 164.15 126.95 167.82 117.75 174.75 C 108.56 181.68 103.97 187.53 99.98 197.98 C 95.98 208.43 93.92 222.13 97.07 233.93 C 100.23 245.73 85.90 248.00 78.25 254.25 C 70.60 260.50 63.56 267.46 59.00 276.00
M 243.00 163.00 
C 243.89 167.29 244.05 171.75 243.00 176.00
C 240.55 185.89 233.25 194.44 223.00 197.00
C 220.94 210.22 225.75 226.05 223.00 239.00 C 220.25 251.95 196.72 241.22 188.00 246.00
C 184.05 275.23 135.75 274.35 133.00 245.00
C 132.27 241.73 132.34 239.21 133.00 236.00
C 134.69 227.82 138.21 221.95 145.25 216.25 C 152.28 210.55 162.70 212.27 171.02 213.98 C 179.35 215.68 181.45 226.46 187.00 230.00
C 189.13 230.92 204.19 231.27 206.00 230.00
C 209.31 226.69 206.03 218.76 207.00 214.00 C 207.97 209.24 206.27 201.98 207.00 197.00
C 196.42 194.01 186.38 184.55 186.00 173.00
C 185.43 169.80 185.44 167.15 186.00 164.00
C 188.18 131.97 236.98 133.92 243.00 163.00
M 128.00 293.00 
C 133.37 294.19 136.26 296.10 140.75 299.25 C 145.24 302.39 145.80 307.73 149.00 311.00
C 151.77 313.02 159.07 312.40 162.00 313.00
C 182.85 314.84 197.24 335.09 198.00 355.00
C 198.58 359.07 199.43 364.23 199.00 369.00
C 198.79 370.30 199.16 371.69 199.00 373.00
C 205.16 373.66 212.66 371.68 218.00 374.00
C 226.33 374.32 225.93 374.70 234.23 377.77 C 242.53 380.84 251.40 389.66 255.75 397.25 C 260.11 404.84 257.93 405.55 260.93 412.07 C 263.92 418.59 259.96 425.79 262.00 432.00 C 264.04 438.21 261.46 445.17 263.00 451.00 C 264.54 456.83 259.75 467.35 263.00 472.00
C 266.07 471.20 269.68 472.62 272.00 473.00
C 281.88 473.54 289.45 477.14 296.75 484.25 C 304.06 491.35 306.87 496.98 309.93 507.07 C 312.98 517.17 310.64 529.58 312.00 541.00 C 313.36 552.42 299.51 560.16 296.00 546.00
C 294.31 539.17 295.00 530.56 295.00 523.00
C 295.00 504.23 284.00 489.00 264.00 489.00 C 244.00 489.00 220.23 486.23 200.00 489.00
C 194.82 508.96 166.66 513.46 152.75 499.25 C 138.85 485.04 147.12 456.17 168.00 454.00
C 171.52 453.27 174.56 453.38 178.00 454.00
C 183.98 454.41 187.09 457.22 191.75 460.25 C 196.41 463.27 196.66 469.41 200.00 472.00
C 215.00 472.00 230.00 472.00 245.00 472.00
C 245.00 456.67 245.00 441.33 245.00 426.00
C 245.00 415.89 240.99 403.40 233.25 396.75 C 225.51 390.10 209.44 386.37 200.00 389.00 C 190.56 391.63 191.84 407.01 180.77 410.77 C 169.70 414.53 161.63 422.63 148.00 419.00 C 134.37 415.37 130.31 426.62 121.92 433.92 C 113.53 441.22 99.92 439.98 90.77 434.23 C 81.62 428.47 78.23 415.74 81.78 405.78 C 85.33 395.81 94.16 388.10 105.01 388.01 C 115.86 387.91 126.99 393.70 131.00 404.00
C 144.68 401.62 161.99 406.07 172.75 395.75 C 183.52 385.44 184.18 369.67 182.02 355.98 C 179.87 342.29 174.29 332.24 160.33 327.67 C 146.36 323.10 141.14 343.88 127.00 344.00
C 123.50 344.91 120.46 345.01 117.00 344.00
C 88.52 335.71 90.42 298.92 119.00 293.00
C 122.26 292.32 124.78 292.29 128.00 293.00
M 209.00 566.00 
C 198.02 566.91 193.72 560.20 184.75 555.25 C 175.78 550.30 179.76 533.32 189.67 537.33 C 199.58 541.34 197.62 553.54 210.00 552.00
C 217.07 519.15 268.11 525.33 268.00 559.00 C 267.89 592.67 217.82 598.58 209.00 566.00 Z"/>
</g>
<g fill="None" fill-opacity="0.0" stroke="#849F6F" stroke-opacity="1.00" stroke-width="0.3"><path d="
M 594.00 153.00 
C 594.92 145.38 594.97 137.48 593.00 130.00
C 594.19 137.47 594.16 145.24 594.00 153.00 Z"/>
</g>
<g fill="None" fill-opacity="0.0" stroke="#FBFCFA" stroke-opacity="1.00" stroke-width="0.3"><path d="
M 385.00 138.00 
C 374.32 137.72 377.08 164.14 379.69 172.31 C 382.31 180.47 387.45 191.53 396.30 197.70 C 405.15 203.86 418.88 206.47 431.00 205.00 C 443.11 203.52 437.64 181.54 433.77 173.23 C 429.90 164.92 422.10 155.31 413.75 151.25 C 405.39 147.20 394.08 138.24 385.00 138.00 Z"/>
</g>
<g fill="None" fill-opacity="0.0" stroke="#ACAE7D" stroke-opacity="1.00" stroke-width="0.3"><path d="
M 343.00 579.00 
C 347.61 531.37 343.12 480.60 344.00 432.00 C 344.88 383.40 344.85 333.54 344.00 285.00 C 343.15 236.46 347.61 186.57 343.00 139.00
C 343.00 285.67 343.00 432.33 343.00 579.00 Z"/>
</g>
<g fill="None" fill-opacity="0.0" stroke="#FBFAF7" stroke-opacity="1.00" stroke-width="0.3"><path d="
M 186.00 164.00 
C 185.80 166.91 185.80 170.09 186.00 173.00
C 186.38 184.55 196.42 194.01 207.00 197.00
C 206.27 201.98 207.97 209.24 207.00 214.00 C 206.03 218.76 209.31 226.69 206.00 230.00
C 203.50 232.50 189.69 231.72 187.00 230.00
C 181.45 226.46 179.35 215.68 171.02 213.98 C 162.70 212.27 152.28 210.55 145.25 216.25 C 138.21 221.95 134.69 227.82 133.00 236.00
C 132.74 238.82 132.71 242.19 133.00 245.00
C 135.75 274.35 184.05 275.23 188.00 246.00
C 196.72 241.22 220.25 251.95 223.00 239.00 C 225.75 226.05 220.94 210.22 223.00 197.00
C 233.25 194.44 240.55 185.89 243.00 176.00
C 243.50 172.00 243.37 167.02 243.00 163.00
C 236.98 133.92 188.18 131.97 186.00 164.00
M 220.00 155.00 
C 237.02 160.38 226.60 189.77 209.33 182.67 C 192.06 175.57 201.93 149.29 220.00 155.00
M 165.00 227.00 
C 181.45 230.83 173.49 259.29 156.93 253.07 C 140.36 246.86 147.29 222.88 165.00 227.00 Z"/>
</g>
<g fill="None" fill-opacity="0.0" stroke="#29530A" stroke-opacity="1.00" stroke-width="0.3"><path d="
M 220.00 155.00 
C 201.93 149.29 192.06 175.57 209.33 182.67 C 226.60 189.77 237.02 160.38 220.00 155.00 Z"/>
</g>
<g fill="None" fill-opacity="0.0" stroke="#D6D1AA" stroke-opacity="1.00" stroke-width="0.3"><path d="
M 264.00 211.00 
C 263.69 202.85 264.91 192.95 264.00 185.00 C 263.09 177.05 266.57 166.68 263.00 160.00
C 265.62 167.46 262.15 178.01 263.00 186.00 C 263.85 193.99 262.93 203.52 264.00 211.00 Z"/>
</g>
<g fill="None" fill-opacity="0.0" stroke="#A2AD7E" stroke-opacity="1.00" stroke-width="0.3"><path d="
M 243.00 176.00 
C 244.05 171.75 243.89 167.29 243.00 163.00
C 243.37 167.02 243.50 172.00 243.00 176.00 Z"/>
</g>
<g fill="None" fill-opacity="0.0" stroke="#CFCDA8" stroke-opacity="1.00" stroke-width="0.3"><path d="
M 186.00 173.00 
C 185.80 170.09 185.80 166.91 186.00 164.00
C 185.44 167.15 185.43 169.80 186.00 173.00 Z"/>
</g>
<g fill="None" fill-opacity="0.0" stroke="#FBFCFA" stroke-opacity="1.00" stroke-width="0.3"><path d="
M 640.00 183.00 
C 634.54 179.89 625.43 186.20 620.22 187.22 C 615.02 188.25 610.25 192.59 605.75 195.75 C 601.25 198.92 597.48 202.57 594.77 207.77 C 592.06 212.98 589.97 218.76 589.00 225.00 C 588.03 231.24 590.12 239.46 592.02 244.98 C 593.93 250.49 597.25 257.61 603.93 255.93 C 610.61 254.24 615.10 252.45 620.25 249.25 C 625.40 246.06 628.42 242.39 632.08 238.08 C 635.74 233.77 638.41 228.14 640.02 223.02 C 641.64 217.91 644.13 208.04 643.00 203.00 C 641.87 197.96 644.58 185.61 640.00 183.00 Z"/>
</g>
<g fill="None" fill-opacity="0.0" stroke="#A4B992" stroke-opacity="1.00" stroke-width="0.3"><path d="
M 464.00 211.00 
C 463.49 205.70 462.69 201.58 461.00 197.00
C 462.07 201.53 463.20 206.80 464.00 211.00 Z"/>
</g>
<g fill="None" fill-opacity="0.0" stroke="#C8C8A0" stroke-opacity="1.00" stroke-width="0.3"><path d="
M 75.00 234.00 
C 79.08 230.00 77.00 218.86 77.00 213.00
C 76.59 217.29 77.79 230.17 75.00 234.00 Z"/>
</g>
<g fill="None" fill-opacity="0.0" stroke="#FDFDFC" stroke-opacity="1.00" stroke-width="0.3"><path d="
M 449.00 285.00 
C 449.09 280.69 449.16 276.31 449.00 272.00
C 448.59 261.25 444.07 248.02 436.75 240.25 C 429.44 232.47 421.45 224.54 412.08 220.92 C 402.70 217.31 387.59 208.62 377.03 213.03 C 366.47 217.44 373.20 239.75 375.02 248.98 C 376.85 258.20 383.12 268.98 390.75 276.25 C 398.39 283.52 407.92 290.35 418.78 292.22 C 429.63 294.09 448.66 301.78 449.00 285.00 Z"/>
</g>
<g fill="None" fill-opacity="0.0" stroke="#285208" stroke-opacity="1.00" stroke-width="0.3"><path d="
M 165.00 227.00 
C 147.29 222.88 140.36 246.86 156.93 253.07 C 173.49 259.29 181.45 230.83 165.00 227.00 Z"/>
</g>
<g fill="None" fill-opacity="0.0" stroke="#DCD6B6" stroke-opacity="1.00" stroke-width="0.3"><path d="
M 206.00 230.00 
C 204.19 231.27 189.13 230.92 187.00 230.00
C 189.69 231.72 203.50 232.50 206.00 230.00 Z"/>
</g>
<g fill="None" fill-opacity="0.0" stroke="#ACB380" stroke-opacity="1.00" stroke-width="0.3"><path d="
M 133.00 245.00 
C 132.71 242.19 132.74 238.82 133.00 236.00
C 132.34 239.21 132.27 241.73 133.00 245.00 Z"/>
</g>
<g fill="None" fill-opacity="0.0" stroke="#8DA87A" stroke-opacity="1.00" stroke-width="0.3"><path d="
M 486.00 255.00 
C 486.71 250.52 484.37 245.80 484.00 242.00
C 484.09 246.44 484.25 251.34 486.00 255.00 Z"/>
</g>
<g fill="None" fill-opacity="0.0" stroke="#FDFDFC" stroke-opacity="1.00" stroke-width="0.3"><path d="
M 557.00 245.00 
C 550.37 243.30 543.91 253.65 538.75 257.75 C 533.60 261.86 529.02 269.83 526.78 276.78 C 524.53 283.72 522.97 295.40 524.22 303.78 C 525.48 312.16 529.42 318.01 533.23 325.77 C 537.04 333.53 545.33 335.01 551.25 329.25 C 557.18 323.50 562.19 321.06 566.07 314.07 C 569.96 307.09 572.36 297.70 573.00 290.00 C 573.64 282.30 572.97 268.36 569.31 262.69 C 565.64 257.03 563.61 246.70 557.00 245.00 Z"/>
</g>
<g fill="None" fill-opacity="0.0" stroke="#93AD7C" stroke-opacity="1.00" stroke-width="0.3"><path d="
M 449.00 285.00 
C 449.50 280.84 449.61 276.25 449.00 272.00
C 449.16 276.31 449.09 280.69 449.00 285.00 Z"/>
</g>
<g fill="None" fill-opacity="0.0" stroke="#94A26D" stroke-opacity="1.00" stroke-width="0.3"><path d="
M 54.00 285.00 
C 55.32 282.20 57.39 279.02 59.00 276.00
C 56.93 279.10 55.26 281.35 54.00 285.00 Z"/>
</g>
<g fill="None" fill-opacity="0.0" stroke="#295309" stroke-opacity="1.00" stroke-width="0.3"><path d="
M 240.00 278.00 
C 222.86 274.83 215.97 300.06 233.00 305.00 C 250.03 309.94 256.88 281.12 240.00 278.00 Z"/>
</g>
<g fill="None" fill-opacity="0.0" stroke="#8F9C63" stroke-opacity="1.00" stroke-width="0.3"><path d="
M 119.00 293.00 
C 121.82 292.74 125.19 292.71 128.00 293.00
C 124.78 292.29 122.26 292.32 119.00 293.00 Z"/>
</g>
<g fill="None" fill-opacity="0.0" stroke="#FBFBF8" stroke-opacity="1.00" stroke-width="0.3"><path d="
M 117.00 344.00 
C 119.89 344.46 124.10 344.39 127.00 344.00
C 141.14 343.88 146.36 323.10 160.33 327.67 C 174.29 332.24 179.87 342.29 182.02 355.98 C 184.18 369.67 183.52 385.44 172.75 395.75 C 161.99 406.07 144.68 401.62 131.00 404.00
C 126.99 393.70 115.86 387.91 105.01 388.01 C 94.16 388.10 85.33 395.81 81.78 405.78 C 78.23 415.74 81.62 428.47 90.77 434.23 C 99.92 439.98 113.53 441.22 121.92 433.92 C 130.31 426.62 134.37 415.37 148.00 419.00 C 161.63 422.63 169.70 414.53 180.77 410.77 C 191.84 407.01 190.56 391.63 200.00 389.00 C 209.44 386.37 225.51 390.10 233.25 396.75 C 240.99 403.40 245.00 415.89 245.00 426.00
C 245.53 431.51 247.43 442.07 246.00 448.00 C 244.57 453.93 248.93 467.16 245.67 471.67 C 242.41 476.18 228.14 472.60 223.00 473.00 C 217.86 473.40 203.81 474.95 200.00 472.00
C 196.66 469.41 196.41 463.27 191.75 460.25 C 187.09 457.22 183.98 454.41 178.00 454.00
C 174.81 453.78 171.19 453.71 168.00 454.00
C 147.12 456.17 138.85 485.04 152.75 499.25 C 166.66 513.46 194.82 508.96 200.00 489.00
C 220.23 486.23 244.00 489.00 264.00 489.00 C 284.00 489.00 295.00 504.23 295.00 523.00
C 295.66 529.84 295.08 538.61 296.00 546.00
C 299.51 560.16 313.36 552.42 312.00 541.00 C 310.64 529.58 312.98 517.17 309.93 507.07 C 306.87 496.98 304.06 491.35 296.75 484.25 C 289.45 477.14 281.88 473.54 272.00 473.00
C 269.57 472.87 264.45 474.08 263.00 472.00
C 259.75 467.35 264.54 456.83 263.00 451.00 C 261.46 445.17 264.04 438.21 262.00 432.00 C 259.96 425.79 263.92 418.59 260.93 412.07 C 257.93 405.55 260.11 404.84 255.75 397.25 C 251.40 389.66 242.53 380.84 234.23 377.77 C 225.93 374.70 226.33 374.32 218.00 374.00
C 211.34 373.75 204.66 374.19 198.00 374.00
C 198.00 372.33 198.00 370.67 198.00 369.00
C 197.58 364.38 198.18 359.63 198.00 355.00
C 197.24 335.09 182.85 314.84 162.00 313.00
C 157.32 312.59 152.32 314.38 149.00 311.00
C 145.80 307.73 145.24 302.39 140.75 299.25 C 136.26 296.10 133.37 294.19 128.00 293.00
C 125.19 292.71 121.82 292.74 119.00 293.00
C 90.42 298.92 88.52 335.71 117.00 344.00
M 128.00 307.00 
C 142.17 311.30 133.58 335.78 118.93 330.07 C 104.27 324.37 111.85 302.10 128.00 307.00
M 111.00 424.00 
C 106.46 425.72 102.62 425.35 99.00 422.00
C 90.84 414.46 97.58 400.50 108.67 402.33 C 119.76 404.17 120.87 420.27 111.00 424.00
M 178.00 468.00 
C 193.96 471.71 186.70 498.69 170.33 492.67 C 153.96 486.65 160.89 464.02 178.00 468.00 Z"/>
</g>
<g fill="None" fill-opacity="0.0" stroke="#829865" stroke-opacity="1.00" stroke-width="0.3"><path d="
M 30.00 323.00 
C 30.00 316.34 29.87 309.66 30.00 303.00
C 29.24 309.27 29.39 316.69 30.00 323.00 Z"/>
</g>
<g fill="None" fill-opacity="0.0" stroke="#829E6D" stroke-opacity="1.00" stroke-width="0.3"><path d="
M 484.00 328.00 
C 485.86 320.12 488.67 311.39 490.00 303.00
C 487.80 311.00 485.14 319.28 484.00 328.00 Z"/>
</g>
<g fill="None" fill-opacity="0.0" stroke="#FCFDFC" stroke-opacity="1.00" stroke-width="0.3"><path d="
M 383.00 306.00 
C 369.12 304.27 370.81 330.47 372.67 340.33 C 374.53 350.18 378.53 362.83 387.75 370.25 C 396.97 377.67 404.56 383.85 418.00 385.00 C 431.44 386.15 430.34 360.98 428.33 350.67 C 426.32 340.36 421.43 327.88 412.75 321.25 C 404.07 314.62 393.51 307.31 383.00 306.00 Z"/>
</g>
<g fill="None" fill-opacity="0.0" stroke="#285308" stroke-opacity="1.00" stroke-width="0.3"><path d="
M 128.00 307.00 
C 111.85 302.10 104.27 324.37 118.93 330.07 C 133.58 335.78 142.17 311.30 128.00 307.00 Z"/>
</g>
<g fill="None" fill-opacity="0.0" stroke="#7C9053" stroke-opacity="1.00" stroke-width="0.3"><path d="
M 162.00 313.00 
C 159.07 312.40 151.77 313.02 149.00 311.00
C 152.32 314.38 157.32 312.59 162.00 313.00 Z"/>
</g>
<g fill="None" fill-opacity="0.0" stroke="#87A173" stroke-opacity="1.00" stroke-width="0.3"><path d="
M 597.00 344.00 
C 600.14 344.00 603.52 343.30 606.00 343.00
C 602.94 343.06 599.40 343.77 597.00 344.00 Z"/>
</g>
<g fill="None" fill-opacity="0.0" stroke="#8C9B62" stroke-opacity="1.00" stroke-width="0.3"><path d="
M 127.00 344.00 
C 124.10 344.39 119.89 344.46 117.00 344.00
C 120.46 345.01 123.50 344.91 127.00 344.00 Z"/>
</g>
<g fill="None" fill-opacity="0.0" stroke="#D7D2B0" stroke-opacity="1.00" stroke-width="0.3"><path d="
M 198.00 369.00 
C 198.00 369.04 199.00 369.00 199.00 369.00
C 199.43 364.23 198.58 359.07 198.00 355.00
C 198.18 359.63 197.58 364.38 198.00 369.00 Z"/>
</g>
<g fill="None" fill-opacity="0.0" stroke="#9BA570" stroke-opacity="1.00" stroke-width="0.3"><path d="
M 218.00 374.00 
C 212.66 371.68 205.16 373.66 199.00 373.00
C 199.16 371.69 198.79 370.30 199.00 369.00
C 199.00 369.00 198.00 369.04 198.00 369.00
C 198.00 370.67 198.00 372.33 198.00 374.00
C 204.66 374.19 211.34 373.75 218.00 374.00 Z"/>
</g>
<g fill="None" fill-opacity="0.0" stroke="#DAD1A9" stroke-opacity="1.00" stroke-width="0.3"><path d="
M 18.00 411.00 
C 18.29 407.99 19.00 403.75 19.00 400.00
C 18.71 403.01 18.00 407.25 18.00 411.00 Z"/>
</g>
<g fill="None" fill-opacity="0.0" stroke="#295309" stroke-opacity="1.00" stroke-width="0.3"><path d="
M 99.00 422.00 
C 102.07 424.13 107.23 424.86 111.00 424.00
C 120.87 420.27 119.76 404.17 108.67 402.33 C 97.58 400.50 90.84 414.46 99.00 422.00 Z"/>
</g>
<g fill="None" fill-opacity="0.0" stroke="#93A475" stroke-opacity="1.00" stroke-width="0.3"><path d="
M 111.00 424.00 
C 107.23 424.86 102.07 424.13 99.00 422.00
C 102.62 425.35 106.46 425.72 111.00 424.00 Z"/>
</g>
<g fill="None" fill-opacity="0.0" stroke="#89A275" stroke-opacity="1.00" stroke-width="0.3"><path d="
M 499.00 425.00 
C 509.17 424.61 519.13 425.41 529.00 426.00
C 519.42 424.63 508.93 423.58 499.00 425.00 Z"/>
</g>
<g fill="None" fill-opacity="0.0" stroke="#82955D" stroke-opacity="1.00" stroke-width="0.3"><path d="
M 200.00 472.00 
C 203.81 474.95 217.86 473.40 223.00 473.00 C 228.14 472.60 242.41 476.18 245.67 471.67 C 248.93 467.16 244.57 453.93 246.00 448.00 C 247.43 442.07 245.53 431.51 245.00 426.00
C 245.00 441.33 245.00 456.67 245.00 472.00
C 230.00 472.00 215.00 472.00 200.00 472.00 Z"/>
</g>
<g fill="None" fill-opacity="0.0" stroke="#FCFCFB" stroke-opacity="1.00" stroke-width="0.3"><path d="
M 598.00 507.00 
C 598.00 503.34 598.07 499.66 598.00 496.00
C 599.50 462.10 563.19 453.61 543.00 435.00
C 538.91 443.80 536.89 455.00 537.00 465.00 C 537.11 475.00 538.11 486.37 543.25 494.75 C 548.38 503.13 552.70 506.76 560.77 513.23 C 568.84 519.70 574.19 520.30 584.99 525.01 C 595.79 529.71 598.00 517.59 598.00 507.00 Z"/>
</g>
<g fill="None" fill-opacity="0.0" stroke="#A0AC7D" stroke-opacity="1.00" stroke-width="0.3"><path d="
M 168.00 454.00 
C 171.19 453.71 174.81 453.78 178.00 454.00
C 174.56 453.38 171.52 453.27 168.00 454.00 Z"/>
</g>
<g fill="None" fill-opacity="0.0" stroke="#275207" stroke-opacity="1.00" stroke-width="0.3"><path d="
M 178.00 468.00 
C 160.89 464.02 153.96 486.65 170.33 492.67 C 186.70 498.69 193.96 471.71 178.00 468.00 Z"/>
</g>
<g fill="None" fill-opacity="0.0" stroke="#829458" stroke-opacity="1.00" stroke-width="0.3"><path d="
M 272.00 473.00 
C 269.68 472.62 266.07 471.20 263.00 472.00
C 264.45 474.08 269.57 472.87 272.00 473.00 Z"/>
</g>
<g fill="None" fill-opacity="0.0" stroke="#95AE81" stroke-opacity="1.00" stroke-width="0.3"><path d="
M 598.00 507.00 
C 598.33 503.55 598.43 499.54 598.00 496.00
C 598.07 499.66 598.00 503.34 598.00 507.00 Z"/>
</g>
<g fill="None" fill-opacity="0.0" stroke="#87A36D" stroke-opacity="1.00" stroke-width="0.3"><path d="
M 370.00 596.00 
C 370.00 571.00 370.00 546.00 370.00 521.00
C 367.73 544.45 367.72 572.48 370.00 596.00 Z"/>
</g>
<g fill="None" fill-opacity="0.0" stroke="#809356" stroke-opacity="1.00" stroke-width="0.3"><path d="
M 296.00 546.00 
C 295.08 538.61 295.66 529.84 295.00 523.00
C 295.00 530.56 294.31 539.17 296.00 546.00 Z"/>
</g>
<g fill="None" fill-opacity="0.0" stroke="#F9F9F5" stroke-opacity="1.00" stroke-width="0.3"><path d="
M 209.00 566.00 
C 217.82 598.58 267.89 592.67 268.00 559.00 C 268.11 525.33 217.07 519.15 210.00 552.00
C 197.62 553.54 199.58 541.34 189.67 537.33 C 179.76 533.32 175.78 550.30 184.75 555.25 C 193.72 560.20 198.02 566.91 209.00 566.00
M 240.00 544.00 
C 258.18 545.37 255.71 575.97 237.00 574.00 C 218.28 572.02 220.88 542.56 240.00 544.00 Z"/>
</g>
<g fill="None" fill-opacity="0.0" stroke="#275207" stroke-opacity="1.00" stroke-width="0.3"><path d="
M 240.00 544.00 
C 220.88 542.56 218.28 572.02 237.00 574.00 C 255.71 575.97 258.18 545.37 240.00 544.00 Z"/>
</g>
<g fill="None" fill-opacity="0.0" stroke="#B8BA8A" stroke-opacity="1.00" stroke-width="0.3"><path d="
M 185.00 601.00 
C 180.37 601.00 175.62 601.31 171.00 601.00
C 175.53 601.81 180.48 601.44 185.00 601.00 Z"/>
</g>
<g fill="None" fill-opacity="0.0" stroke="#EBDBA5" stroke-opacity="1.00" stroke-width="0.3"><path d="
M 274.00 658.00 
C 277.53 655.14 288.39 655.04 293.00 654.00
C 314.87 649.07 332.58 627.31 339.00 607.00
C 336.39 611.73 331.76 616.50 329.92 621.92 C 328.07 627.34 323.06 630.09 319.75 634.75 C 316.44 639.42 311.02 641.74 307.08 645.08 C 303.15 648.42 296.16 651.12 292.02 653.02 C 287.89 654.93 274.50 654.62 274.00 658.00 Z"/>
</g>
<g fill="None" fill-opacity="0.0" stroke="#B7A34A" stroke-opacity="1.00" stroke-width="0.3"><path d="
M 274.00 658.00 
C 274.00 658.00 274.04 659.00 274.00 659.00
C 280.70 658.37 287.03 656.12 293.00 654.00
C 288.39 655.04 277.53 655.14 274.00 658.00 Z"/>
</g>
<g fill="#245003" fill-opacity="1.00" stroke="None">
<path d="
M 0.00 730.00 
L 730.00 730.00
L 730.00 0.00
L 0.00 0.00
L 0.00 730.00
M 336.00 98.00 
C 342.97 110.63 343.00 124.39 343.00 139.00
C 347.61 186.57 343.15 236.46 344.00 285.00 C 344.85 333.54 344.88 383.40 344.00 432.00 C 343.12 480.60 347.61 531.37 343.00 579.00
C 343.00 588.99 341.90 597.82 339.00 607.00
C 332.58 627.31 314.87 649.07 293.00 654.00
C 287.03 656.12 280.70 658.37 274.00 659.00
C 264.28 659.91 250.06 659.45 241.33 656.67 C 232.59 653.90 223.63 652.15 216.75 646.25 C 209.88 640.35 202.53 639.62 197.75 630.25 C 192.97 620.88 182.56 618.62 172.00 620.00 C 161.44 621.38 152.58 616.27 143.92 613.08 C 135.27 609.88 130.06 604.58 123.25 598.75 C 116.43 592.93 112.57 585.99 109.03 577.97 C 105.49 569.95 101.97 557.88 104.00 549.00
C 91.27 548.81 80.99 544.15 70.30 537.70 C 59.62 531.25 57.50 522.30 50.69 512.31 C 43.89 502.31 50.31 485.32 43.75 476.25 C 37.19 467.18 29.02 461.13 25.23 449.77 C 21.43 438.41 16.95 423.93 18.00 411.00
C 18.00 407.25 18.71 403.01 19.00 400.00
C 19.00 386.42 22.38 373.80 29.92 361.92 C 37.47 350.05 30.00 336.86 30.00 323.00
C 29.39 316.69 29.24 309.27 30.00 303.00
C 30.21 292.66 34.46 282.49 38.31 273.31 C 42.15 264.12 48.33 258.85 53.75 250.75 C 59.17 242.65 68.98 239.90 75.00 234.00
C 77.79 230.17 76.59 217.29 77.00 213.00
C 77.00 179.98 106.75 149.83 139.00 147.00
C 141.71 135.53 144.95 124.85 152.25 115.25 C 159.55 105.65 167.13 100.37 177.70 94.70 C 188.26 89.02 203.23 88.93 215.00 87.00 C 226.77 85.07 232.92 73.82 245.02 71.02 C 257.13 68.23 270.25 61.39 284.00 64.00
C 306.10 65.50 325.31 78.62 336.00 98.00
M 484.00 242.00 
C 484.37 245.80 486.71 250.52 486.00 255.00
C 490.21 246.42 496.60 239.15 501.77 230.77 C 506.94 222.39 515.15 215.12 516.98 204.98 C 518.81 194.83 519.59 180.01 523.77 170.77 C 527.95 161.53 531.84 152.90 539.25 146.25 C 546.66 139.59 555.25 133.19 564.08 130.08 C 572.90 126.96 590.12 119.06 593.00 130.00
C 594.97 137.48 594.92 145.38 594.00 153.00
C 593.77 164.50 589.41 175.08 583.70 184.70 C 577.98 194.31 570.93 198.60 562.25 205.25 C 553.57 211.91 537.69 208.76 530.70 216.70 C 523.70 224.63 519.81 233.26 514.23 242.23 C 508.65 251.20 504.97 260.79 500.68 270.68 C 496.39 280.56 491.73 292.10 490.00 303.00
C 488.67 311.39 485.86 320.12 484.00 328.00
C 480.96 351.38 475.59 374.30 470.00 397.00
C 489.56 389.11 512.74 380.40 529.75 367.75 C 546.75 355.09 571.10 348.34 580.32 328.32 C 589.54 308.30 595.86 289.14 615.25 274.25 C 634.64 259.36 660.43 252.31 686.00 255.00
C 683.12 297.34 651.68 341.66 606.00 343.00
C 603.52 343.30 600.14 344.00 597.00 344.00
C 576.78 344.00 563.56 365.91 546.30 374.30 C 529.05 382.70 513.46 397.68 495.00 404.00
C 521.65 409.04 552.95 414.66 580.22 409.22 C 607.49 403.78 606.09 375.80 628.23 361.23 C 650.37 346.66 678.51 341.88 704.00 353.00
C 700.21 367.80 692.70 381.00 680.75 391.75 C 668.80 402.51 654.27 411.25 637.00 410.00 C 619.73 408.75 600.96 414.02 586.00 421.00
C 597.56 423.42 609.31 432.51 622.00 432.00 C 634.70 431.49 650.13 423.43 663.07 429.93 C 676.01 436.42 679.43 438.67 688.92 451.08 C 698.41 463.49 684.11 468.68 671.00 470.00 C 657.88 471.32 642.55 471.56 631.75 464.25 C 620.96 456.93 617.15 449.23 606.25 442.75 C 595.36 436.26 583.61 433.64 570.93 431.07 C 558.24 428.50 542.00 428.39 529.00 426.00
C 519.13 425.41 509.17 424.61 499.00 425.00
C 465.61 426.27 441.55 455.58 430.68 485.68 C 419.80 515.78 420.10 565.71 435.92 595.08 C 451.75 624.44 479.29 642.46 510.00 651.00
C 501.27 655.02 488.38 652.51 477.00 653.00 C 465.62 653.49 452.63 652.76 441.00 653.00 C 429.37 653.24 417.75 652.88 406.00 653.00 C 394.25 653.12 381.82 652.91 370.00 653.00
C 370.00 634.00 370.00 615.00 370.00 596.00
C 367.72 572.48 367.73 544.45 370.00 521.00
C 370.00 483.17 390.31 455.94 413.30 427.30 C 436.30 398.66 446.16 370.71 457.93 334.93 C 469.69 299.15 467.72 249.43 464.00 211.00
C 463.20 206.80 462.07 201.53 461.00 197.00
C 458.32 185.66 455.38 174.05 450.68 163.32 C 445.98 152.60 437.38 147.97 428.25 140.75 C 419.11 133.54 413.53 128.96 408.08 116.92 C 402.62 104.89 403.10 93.13 403.98 77.98 C 404.85 62.83 419.27 67.05 429.23 73.77 C 439.19 80.49 447.50 82.65 453.75 93.25 C 460.00 103.84 465.08 114.83 464.00 128.00 C 462.92 141.17 465.20 154.45 469.78 166.22 C 474.36 178.00 476.49 189.63 478.93 202.07 C 481.36 214.52 483.74 229.00 484.00 242.00
M 498.00 79.00 
C 504.34 86.48 509.11 90.54 513.31 99.69 C 517.50 108.85 519.12 119.47 518.00 130.00 C 516.89 140.53 513.29 146.58 508.23 156.23 C 503.17 165.88 494.24 166.24 488.25 156.75 C 482.25 147.27 479.91 141.71 477.67 131.33 C 475.44 120.94 477.46 108.55 481.77 99.77 C 486.08 91.00 489.22 83.65 498.00 79.00
M 385.00 138.00 
C 394.08 138.24 405.39 147.20 413.75 151.25 C 422.10 155.31 429.90 164.92 433.77 173.23 C 437.64 181.54 443.11 203.52 431.00 205.00 C 418.88 206.47 405.15 203.86 396.30 197.70 C 387.45 191.53 382.31 180.47 379.69 172.31 C 377.08 164.14 374.32 137.72 385.00 138.00
M 640.00 183.00 
C 644.58 185.61 641.87 197.96 643.00 203.00 C 644.13 208.04 641.64 217.91 640.02 223.02 C 638.41 228.14 635.74 233.77 632.08 238.08 C 628.42 242.39 625.40 246.06 620.25 249.25 C 615.10 252.45 610.61 254.24 603.93 255.93 C 597.25 257.61 593.93 250.49 592.02 244.98 C 590.12 239.46 588.03 231.24 589.00 225.00 C 589.97 218.76 592.06 212.98 594.77 207.77 C 597.48 202.57 601.25 198.92 605.75 195.75 C 610.25 192.59 615.02 188.25 620.22 187.22 C 625.43 186.20 634.54 179.89 640.00 183.00
M 449.00 272.00 
C 449.61 276.25 449.50 280.84 449.00 285.00
C 448.66 301.78 429.63 294.09 418.78 292.22 C 407.92 290.35 398.39 283.52 390.75 276.25 C 383.12 268.98 376.85 258.20 375.02 248.98 C 373.20 239.75 366.47 217.44 377.03 213.03 C 387.59 208.62 402.70 217.31 412.08 220.92 C 421.45 224.54 429.44 232.47 436.75 240.25 C 444.07 248.02 448.59 261.25 449.00 272.00
M 557.00 245.00 
C 563.61 246.70 565.64 257.03 569.31 262.69 C 572.97 268.36 573.64 282.30 573.00 290.00 C 572.36 297.70 569.96 307.09 566.07 314.07 C 562.19 321.06 557.18 323.50 551.25 329.25 C 545.33 335.01 537.04 333.53 533.23 325.77 C 529.42 318.01 525.48 312.16 524.22 303.78 C 522.97 295.40 524.53 283.72 526.78 276.78 C 529.02 269.83 533.60 261.86 538.75 257.75 C 543.91 253.65 550.37 243.30 557.00 245.00
M 383.00 306.00 
C 393.51 307.31 404.07 314.62 412.75 321.25 C 421.43 327.88 426.32 340.36 428.33 350.67 C 430.34 360.98 431.44 386.15 418.00 385.00 C 404.56 383.85 396.97 377.67 387.75 370.25 C 378.53 362.83 374.53 350.18 372.67 340.33 C 370.81 330.47 369.12 304.27 383.00 306.00
M 598.00 496.00 
C 598.43 499.54 598.33 503.55 598.00 507.00
C 598.00 517.59 595.79 529.71 584.99 525.01 C 574.19 520.30 568.84 519.70 560.77 513.23 C 552.70 506.76 548.38 503.13 543.25 494.75 C 538.11 486.37 537.11 475.00 537.00 465.00 C 536.89 455.00 538.91 443.80 543.00 435.00
C 563.19 453.61 599.50 462.10 598.00 496.00 Z"/>
</g>
<g fill="#FCFCF9" fill-opacity="1.00" stroke="None">
<path d="
M 77.00 213.00 
C 77.00 218.86 79.08 230.00 75.00 234.00
C 68.98 239.90 59.17 242.65 53.75 250.75 C 48.33 258.85 42.15 264.12 38.31 273.31 C 34.46 282.49 30.21 292.66 30.00 303.00
C 29.87 309.66 30.00 316.34 30.00 323.00
C 30.00 336.86 37.47 350.05 29.92 361.92 C 22.38 373.80 19.00 386.42 19.00 400.00
C 19.00 403.75 18.29 407.99 18.00 411.00
C 16.95 423.93 21.43 438.41 25.23 449.77 C 29.02 461.13 37.19 467.18 43.75 476.25 C 50.31 485.32 43.89 502.31 50.69 512.31 C 57.50 522.30 59.62 531.25 70.30 537.70 C 80.99 544.15 91.27 548.81 104.00 549.00
C 101.97 557.88 105.49 569.95 109.03 577.97 C 112.57 585.99 116.43 592.93 123.25 598.75 C 130.06 604.58 135.27 609.88 143.92 613.08 C 152.58 616.27 161.44 621.38 172.00 620.00 C 182.56 618.62 192.97 620.88 197.75 630.25 C 202.53 639.62 209.88 640.35 216.75 646.25 C 223.63 652.15 232.59 653.90 241.33 656.67 C 250.06 659.45 264.28 659.91 274.00 659.00
C 274.04 659.00 274.00 658.00 274.00 658.00
C 274.50 654.62 287.89 654.93 292.02 653.02 C 296.16 651.12 303.15 648.42 307.08 645.08 C 311.02 641.74 316.44 639.42 319.75 634.75 C 323.06 630.09 328.07 627.34 329.92 621.92 C 331.76 616.50 336.39 611.73 339.00 607.00
C 341.90 597.82 343.00 588.99 343.00 579.00
C 343.00 432.33 343.00 285.67 343.00 139.00
C 343.00 124.39 342.97 110.63 336.00 98.00
C 329.80 91.49 322.38 83.12 313.75 77.25 C 305.13 71.37 293.89 66.30 284.00 64.00
C 270.25 61.39 257.13 68.23 245.02 71.02 C 232.92 73.82 226.77 85.07 215.00 87.00 C 203.23 88.93 188.26 89.02 177.70 94.70 C 167.13 100.37 159.55 105.65 152.25 115.25 C 144.95 124.85 141.71 135.53 139.00 147.00
C 106.75 149.83 77.00 179.98 77.00 213.00
M 285.00 83.00 
C 301.05 84.09 319.09 95.80 322.78 114.22 C 326.46 132.65 323.00 162.07 324.00 183.00 C 325.00 203.93 323.25 231.47 324.00 253.00
C 317.69 249.44 313.76 244.16 308.25 238.75 C 302.74 233.34 299.04 229.47 292.75 224.25 C 286.47 219.02 282.04 213.50 281.00 205.00 C 279.96 196.50 280.95 185.47 280.00 176.00 C 279.05 166.54 281.06 158.64 287.92 152.92 C 294.78 147.20 292.12 136.97 288.23 130.77 C 284.34 124.57 272.85 121.42 265.93 123.93 C 259.00 126.43 252.90 132.03 252.02 140.02 C 251.15 148.02 256.74 155.67 263.00 160.00
C 266.57 166.68 263.09 177.05 264.00 185.00 C 264.91 192.95 263.69 202.85 264.00 211.00
C 264.36 220.56 270.10 226.17 277.23 231.77 C 284.36 237.37 287.44 243.04 294.75 248.25 C 302.05 253.47 304.60 259.99 312.25 265.75 C 319.90 271.52 325.84 276.86 324.00 288.00 C 322.17 299.14 324.93 310.66 324.00 322.00 C 323.07 333.34 324.70 345.58 324.00 357.00
C 315.25 362.15 309.93 352.09 303.25 346.75 C 296.56 341.42 291.73 335.90 284.77 330.23 C 277.81 324.56 274.21 318.33 266.25 312.75 C 258.28 307.17 265.83 296.55 264.22 287.78 C 262.62 279.01 258.42 271.41 249.92 267.08 C 241.43 262.74 228.83 262.48 220.77 267.77 C 212.71 273.07 208.19 280.46 208.00 290.00 C 207.81 299.54 211.51 307.96 219.23 313.77 C 226.95 319.58 239.49 320.30 249.00 318.00
C 254.79 324.36 260.35 330.31 266.75 336.25 C 273.15 342.19 278.72 347.43 285.25 353.75 C 291.78 360.07 296.77 364.33 303.75 371.25 C 310.73 378.16 326.64 373.14 324.00 387.00 C 321.36 400.86 325.18 410.19 324.00 423.00 C 322.82 435.81 324.51 446.69 324.00 459.00 C 323.49 471.31 324.18 482.98 324.00 495.00 C 323.82 507.02 323.97 519.25 324.00 531.00 C 324.03 542.75 323.74 555.70 324.00 567.00 C 324.26 578.30 324.16 590.59 321.22 600.22 C 318.28 609.85 315.48 616.56 308.25 623.25 C 301.02 629.94 294.86 633.62 285.78 636.78 C 276.69 639.93 263.40 640.77 253.93 639.07 C 244.45 637.38 233.69 637.00 226.30 630.70 C 218.92 624.40 212.46 622.00 208.23 612.77 C 204.00 603.54 196.52 596.55 185.00 601.00
C 180.48 601.44 175.53 601.81 171.00 601.00
C 160.53 600.29 150.00 595.83 141.75 589.25 C 133.51 582.66 127.98 575.99 124.23 565.77 C 120.47 555.55 121.22 543.86 129.92 534.92 C 138.63 525.99 124.98 511.04 116.77 522.77 C 108.56 534.50 97.71 530.27 86.92 526.08 C 76.12 521.89 73.45 514.25 67.23 504.77 C 61.01 495.29 71.32 479.62 65.75 471.25 C 60.17 462.89 51.34 459.04 46.70 449.30 C 42.06 439.56 38.99 428.70 38.00 417.00 C 37.02 405.30 40.79 391.74 42.93 380.93 C 45.06 370.12 55.22 363.77 55.98 352.98 C 56.73 342.18 47.87 331.44 48.22 319.78 C 48.57 308.12 50.19 295.99 54.00 285.00
C 55.26 281.35 56.93 279.10 59.00 276.00
C 63.56 267.46 70.60 260.50 78.25 254.25 C 85.90 248.00 100.23 245.73 97.07 233.93 C 93.92 222.13 95.98 208.43 99.98 197.98 C 103.97 187.53 108.56 181.68 117.75 174.75 C 126.95 167.82 136.90 164.15 150.00 165.00 C 163.10 165.85 159.13 145.65 162.93 136.93 C 166.73 128.20 171.51 118.58 181.23 114.23 C 190.95 109.88 202.27 104.73 214.00 106.00 C 225.73 107.27 234.50 101.16 243.08 94.08 C 251.67 87.01 263.06 83.74 274.00 83.00
C 277.77 82.32 281.29 82.34 285.00 83.00
M 240.00 278.00 
C 256.88 281.12 250.03 309.94 233.00 305.00 C 215.97 300.06 222.86 274.83 240.00 278.00 Z"/>
</g>
<g fill="#E5D69C" fill-opacity="1.00" stroke="None">
<path d="
M 336.00 98.00 
C 325.31 78.62 306.10 65.50 284.00 64.00
C 293.89 66.30 305.13 71.37 313.75 77.25 C 322.38 83.12 329.80 91.49 336.00 98.00 Z"/>
</g>
<g fill="#FCFDFC" fill-opacity="1.00" stroke="None">
<path d="
M 461.00 197.00 
C 462.69 201.58 463.49 205.70 464.00 211.00
C 467.72 249.43 469.69 299.15 457.93 334.93 C 446.16 370.71 436.30 398.66 413.30 427.30 C 390.31 455.94 370.00 483.17 370.00 521.00
C 370.00 546.00 370.00 571.00 370.00 596.00
C 370.00 615.00 370.00 634.00 370.00 653.00
C 381.82 652.91 394.25 653.12 406.00 653.00 C 417.75 652.88 429.37 653.24 441.00 653.00 C 452.63 652.76 465.62 653.49 477.00 653.00 C 488.38 652.51 501.27 655.02 510.00 651.00
C 479.29 642.46 451.75 624.44 435.92 595.08 C 420.10 565.71 419.80 515.78 430.68 485.68 C 441.55 455.58 465.61 426.27 499.00 425.00
C 508.93 423.58 519.42 424.63 529.00 426.00
C 542.00 428.39 558.24 428.50 570.93 431.07 C 583.61 433.64 595.36 436.26 606.25 442.75 C 617.15 449.23 620.96 456.93 631.75 464.25 C 642.55 471.56 657.88 471.32 671.00 470.00 C 684.11 468.68 698.41 463.49 688.92 451.08 C 679.43 438.67 676.01 436.42 663.07 429.93 C 650.13 423.43 634.70 431.49 622.00 432.00 C 609.31 432.51 597.56 423.42 586.00 421.00
C 600.96 414.02 619.73 408.75 637.00 410.00 C 654.27 411.25 668.80 402.51 680.75 391.75 C 692.70 381.00 700.21 367.80 704.00 353.00
C 678.51 341.88 650.37 346.66 628.23 361.23 C 606.09 375.80 607.49 403.78 580.22 409.22 C 552.95 414.66 521.65 409.04 495.00 404.00
C 513.46 397.68 529.05 382.70 546.30 374.30 C 563.56 365.91 576.78 344.00 597.00 344.00
C 599.40 343.77 602.94 343.06 606.00 343.00
C 651.68 341.66 683.12 297.34 686.00 255.00
C 660.43 252.31 634.64 259.36 615.25 274.25 C 595.86 289.14 589.54 308.30 580.32 328.32 C 571.10 348.34 546.75 355.09 529.75 367.75 C 512.74 380.40 489.56 389.11 470.00 397.00
C 475.59 374.30 480.96 351.38 484.00 328.00
C 485.14 319.28 487.80 311.00 490.00 303.00
C 491.73 292.10 496.39 280.56 500.68 270.68 C 504.97 260.79 508.65 251.20 514.23 242.23 C 519.81 233.26 523.70 224.63 530.70 216.70 C 537.69 208.76 553.57 211.91 562.25 205.25 C 570.93 198.60 577.98 194.31 583.70 184.70 C 589.41 175.08 593.77 164.50 594.00 153.00
C 594.16 145.24 594.19 137.47 593.00 130.00
C 590.12 119.06 572.90 126.96 564.08 130.08 C 555.25 133.19 546.66 139.59 539.25 146.25 C 531.84 152.90 527.95 161.53 523.77 170.77 C 519.59 180.01 518.81 194.83 516.98 204.98 C 515.15 215.12 506.94 222.39 501.77 230.77 C 496.60 239.15 490.21 246.42 486.00 255.00
C 484.25 251.34 484.09 246.44 484.00 242.00
C 483.74 229.00 481.36 214.52 478.93 202.07 C 476.49 189.63 474.36 178.00 469.78 166.22 C 465.20 154.45 462.92 141.17 464.00 128.00 C 465.08 114.83 460.00 103.84 453.75 93.25 C 447.50 82.65 439.19 80.49 429.23 73.77 C 419.27 67.05 404.85 62.83 403.98 77.98 C 403.10 93.13 402.62 104.89 408.08 116.92 C 413.53 128.96 419.11 133.54 428.25 140.75 C 437.38 147.97 445.98 152.60 450.68 163.32 C 455.38 174.05 458.32 185.66 461.00 197.00 Z"/>
</g>
<g fill="#FCFCFB" fill-opacity="1.00" stroke="None">
<path d="
M 498.00 79.00 
C 489.22 83.65 486.08 91.00 481.77 99.77 C 477.46 108.55 475.44 120.94 477.67 131.33 C 479.91 141.71 482.25 147.27 488.25 156.75 C 494.24 166.24 503.17 165.88 508.23 156.23 C 513.29 146.58 516.89 140.53 518.00 130.00 C 519.12 119.47 517.50 108.85 513.31 99.69 C 509.11 90.54 504.34 86.48 498.00 79.00 Z"/>
</g>
<g fill="#AAAF7D" fill-opacity="1.00" stroke="None">
<path d="
M 274.00 83.00 
C 277.55 82.76 281.45 82.76 285.00 83.00
C 281.29 82.34 277.77 82.32 274.00 83.00 Z"/>
</g>
<g fill="#255105" fill-opacity="1.00" stroke="None">
<path d="
M 59.00 276.00 
C 57.39 279.02 55.32 282.20 54.00 285.00
C 50.19 295.99 48.57 308.12 48.22 319.78 C 47.87 331.44 56.73 342.18 55.98 352.98 C 55.22 363.77 45.06 370.12 42.93 380.93 C 40.79 391.74 37.02 405.30 38.00 417.00 C 38.99 428.70 42.06 439.56 46.70 449.30 C 51.34 459.04 60.17 462.89 65.75 471.25 C 71.32 479.62 61.01 495.29 67.23 504.77 C 73.45 514.25 76.12 521.89 86.92 526.08 C 97.71 530.27 108.56 534.50 116.77 522.77 C 124.98 511.04 138.63 525.99 129.92 534.92 C 121.22 543.86 120.47 555.55 124.23 565.77 C 127.98 575.99 133.51 582.66 141.75 589.25 C 150.00 595.83 160.53 600.29 171.00 601.00
C 175.62 601.31 180.37 601.00 185.00 601.00
C 196.52 596.55 204.00 603.54 208.23 612.77 C 212.46 622.00 218.92 624.40 226.30 630.70 C 233.69 637.00 244.45 637.38 253.93 639.07 C 263.40 640.77 276.69 639.93 285.78 636.78 C 294.86 633.62 301.02 629.94 308.25 623.25 C 315.48 616.56 318.28 609.85 321.22 600.22 C 324.16 590.59 324.26 578.30 324.00 567.00 C 323.74 555.70 324.03 542.75 324.00 531.00 C 323.97 519.25 323.82 507.02 324.00 495.00 C 324.18 482.98 323.49 471.31 324.00 459.00 C 324.51 446.69 322.82 435.81 324.00 423.00 C 325.18 410.19 321.36 400.86 324.00 387.00 C 326.64 373.14 310.73 378.16 303.75 371.25 C 296.77 364.33 291.78 360.07 285.25 353.75 C 278.72 347.43 273.15 342.19 266.75 336.25 C 260.35 330.31 254.79 324.36 249.00 318.00
C 239.49 320.30 226.95 319.58 219.23 313.77 C 211.51 307.96 207.81 299.54 208.00 290.00 C 208.19 280.46 212.71 273.07 220.77 267.77 C 228.83 262.48 241.43 262.74 249.92 267.08 C 258.42 271.41 262.62 279.01 264.22 287.78 C 265.83 296.55 258.28 307.17 266.25 312.75 C 274.21 318.33 277.81 324.56 284.77 330.23 C 291.73 335.90 296.56 341.42 303.25 346.75 C 309.93 352.09 315.25 362.15 324.00 357.00
C 324.70 345.58 323.07 333.34 324.00 322.00 C 324.93 310.66 322.17 299.14 324.00 288.00 C 325.84 276.86 319.90 271.52 312.25 265.75 C 304.60 259.99 302.05 253.47 294.75 248.25 C 287.44 243.04 284.36 237.37 277.23 231.77 C 270.10 226.17 264.36 220.56 264.00 211.00
C 262.93 203.52 263.85 193.99 263.00 186.00 C 262.15 178.01 265.62 167.46 263.00 160.00
C 256.74 155.67 251.15 148.02 252.02 140.02 C 252.90 132.03 259.00 126.43 265.93 123.93 C 272.85 121.42 284.34 124.57 288.23 130.77 C 292.12 136.97 294.78 147.20 287.92 152.92 C 281.06 158.64 279.05 166.54 280.00 176.00 C 280.95 185.47 279.96 196.50 281.00 205.00 C 282.04 213.50 286.47 219.02 292.75 224.25 C 299.04 229.47 302.74 233.34 308.25 238.75 C 313.76 244.16 317.69 249.44 324.00 253.00
C 323.25 231.47 325.00 203.93 324.00 183.00 C 323.00 162.07 326.46 132.65 322.78 114.22 C 319.09 95.80 301.05 84.09 285.00 83.00
C 281.45 82.76 277.55 82.76 274.00 83.00
C 263.06 83.74 251.67 87.01 243.08 94.08 C 234.50 101.16 225.73 107.27 214.00 106.00 C 202.27 104.73 190.95 109.88 181.23 114.23 C 171.51 118.58 166.73 128.20 162.93 136.93 C 159.13 145.65 163.10 165.85 150.00 165.00 C 136.90 164.15 126.95 167.82 117.75 174.75 C 108.56 181.68 103.97 187.53 99.98 197.98 C 95.98 208.43 93.92 222.13 97.07 233.93 C 100.23 245.73 85.90 248.00 78.25 254.25 C 70.60 260.50 63.56 267.46 59.00 276.00
M 243.00 163.00 
C 243.89 167.29 244.05 171.75 243.00 176.00
C 240.55 185.89 233.25 194.44 223.00 197.00
C 220.94 210.22 225.75 226.05 223.00 239.00 C 220.25 251.95 196.72 241.22 188.00 246.00
C 184.05 275.23 135.75 274.35 133.00 245.00
C 132.27 241.73 132.34 239.21 133.00 236.00
C 134.69 227.82 138.21 221.95 145.25 216.25 C 152.28 210.55 162.70 212.27 171.02 213.98 C 179.35 215.68 181.45 226.46 187.00 230.00
C 189.13 230.92 204.19 231.27 206.00 230.00
C 209.31 226.69 206.03 218.76 207.00 214.00 C 207.97 209.24 206.27 201.98 207.00 197.00
C 196.42 194.01 186.38 184.55 186.00 173.00
C 185.43 169.80 185.44 167.15 186.00 164.00
C 188.18 131.97 236.98 133.92 243.00 163.00
M 128.00 293.00 
C 133.37 294.19 136.26 296.10 140.75 299.25 C 145.24 302.39 145.80 307.73 149.00 311.00
C 151.77 313.02 159.07 312.40 162.00 313.00
C 182.85 314.84 197.24 335.09 198.00 355.00
C 198.58 359.07 199.43 364.23 199.00 369.00
C 198.79 370.30 199.16 371.69 199.00 373.00
C 205.16 373.66 212.66 371.68 218.00 374.00
C 226.33 374.32 225.93 374.70 234.23 377.77 C 242.53 380.84 251.40 389.66 255.75 397.25 C 260.11 404.84 257.93 405.55 260.93 412.07 C 263.92 418.59 259.96 425.79 262.00 432.00 C 264.04 438.21 261.46 445.17 263.00 451.00 C 264.54 456.83 259.75 467.35 263.00 472.00
C 266.07 471.20 269.68 472.62 272.00 473.00
C 281.88 473.54 289.45 477.14 296.75 484.25 C 304.06 491.35 306.87 496.98 309.93 507.07 C 312.98 517.17 310.64 529.58 312.00 541.00 C 313.36 552.42 299.51 560.16 296.00 546.00
C 294.31 539.17 295.00 530.56 295.00 523.00
C 295.00 504.23 284.00 489.00 264.00 489.00 C 244.00 489.00 220.23 486.23 200.00 489.00
C 194.82 508.96 166.66 513.46 152.75 499.25 C 138.85 485.04 147.12 456.17 168.00 454.00
C 171.52 453.27 174.56 453.38 178.00 454.00
C 183.98 454.41 187.09 457.22 191.75 460.25 C 196.41 463.27 196.66 469.41 200.00 472.00
C 215.00 472.00 230.00 472.00 245.00 472.00
C 245.00 456.67 245.00 441.33 245.00 426.00
C 245.00 415.89 240.99 403.40 233.25 396.75 C 225.51 390.10 209.44 386.37 200.00 389.00 C 190.56 391.63 191.84 407.01 180.77 410.77 C 169.70 414.53 161.63 422.63 148.00 419.00 C 134.37 415.37 130.31 426.62 121.92 433.92 C 113.53 441.22 99.92 439.98 90.77 434.23 C 81.62 428.47 78.23 415.74 81.78 405.78 C 85.33 395.81 94.16 388.10 105.01 388.01 C 115.86 387.91 126.99 393.70 131.00 404.00
C 144.68 401.62 161.99 406.07 172.75 395.75 C 183.52 385.44 184.18 369.67 182.02 355.98 C 179.87 342.29 174.29 332.24 160.33 327.67 C 146.36 323.10 141.14 343.88 127.00 344.00
C 123.50 344.91 120.46 345.01 117.00 344.00
C 88.52 335.71 90.42 298.92 119.00 293.00
C 122.26 292.32 124.78 292.29 128.00 293.00
M 209.00 566.00 
C 198.02 566.91 193.72 560.20 184.75 555.25 C 175.78 550.30 179.76 533.32 189.67 537.33 C 199.58 541.34 197.62 553.54 210.00 552.00
C 217.07 519.15 268.11 525.33 268.00 559.00 C 267.89 592.67 217.82 598.58 209.00 566.00 Z"/>
</g>
<g fill="#849F6F" fill-opacity="1.00" stroke="None">
<path d="
M 594.00 153.00 
C 594.92 145.38 594.97 137.48 593.00 130.00
C 594.19 137.47 594.16 145.24 594.00 153.00 Z"/>
</g>
<g fill="#FBFCFA" fill-opacity="1.00" stroke="None">
<path d="
M 385.00 138.00 
C 374.32 137.72 377.08 164.14 379.69 172.31 C 382.31 180.47 387.45 191.53 396.30 197.70 C 405.15 203.86 418.88 206.47 431.00 205.00 C 443.11 203.52 437.64 181.54 433.77 173.23 C 429.90 164.92 422.10 155.31 413.75 151.25 C 405.39 147.20 394.08 138.24 385.00 138.00 Z"/>
</g>
<g fill="#ACAE7D" fill-opacity="1.00" stroke="None">
<path d="
M 343.00 579.00 
C 347.61 531.37 343.12 480.60 344.00 432.00 C 344.88 383.40 344.85 333.54 344.00 285.00 C 343.15 236.46 347.61 186.57 343.00 139.00
C 343.00 285.67 343.00 432.33 343.00 579.00 Z"/>
</g>
<g fill="#FBFAF7" fill-opacity="1.00" stroke="None">
<path d="
M 186.00 164.00 
C 185.80 166.91 185.80 170.09 186.00 173.00
C 186.38 184.55 196.42 194.01 207.00 197.00
C 206.27 201.98 207.97 209.24 207.00 214.00 C 206.03 218.76 209.31 226.69 206.00 230.00
C 203.50 232.50 189.69 231.72 187.00 230.00
C 181.45 226.46 179.35 215.68 171.02 213.98 C 162.70 212.27 152.28 210.55 145.25 216.25 C 138.21 221.95 134.69 227.82 133.00 236.00
C 132.74 238.82 132.71 242.19 133.00 245.00
C 135.75 274.35 184.05 275.23 188.00 246.00
C 196.72 241.22 220.25 251.95 223.00 239.00 C 225.75 226.05 220.94 210.22 223.00 197.00
C 233.25 194.44 240.55 185.89 243.00 176.00
C 243.50 172.00 243.37 167.02 243.00 163.00
C 236.98 133.92 188.18 131.97 186.00 164.00
M 220.00 155.00 
C 237.02 160.38 226.60 189.77 209.33 182.67 C 192.06 175.57 201.93 149.29 220.00 155.00
M 165.00 227.00 
C 181.45 230.83 173.49 259.29 156.93 253.07 C 140.36 246.86 147.29 222.88 165.00 227.00 Z"/>
</g>
<g fill="#29530A" fill-opacity="1.00" stroke="None">
<path d="
M 220.00 155.00 
C 201.93 149.29 192.06 175.57 209.33 182.67 C 226.60 189.77 237.02 160.38 220.00 155.00 Z"/>
</g>
<g fill="#D6D1AA" fill-opacity="1.00" stroke="None">
<path d="
M 264.00 211.00 
C 263.69 202.85 264.91 192.95 264.00 185.00 C 263.09 177.05 266.57 166.68 263.00 160.00
C 265.62 167.46 262.15 178.01 263.00 186.00 C 263.85 193.99 262.93 203.52 264.00 211.00 Z"/>
</g>
<g fill="#A2AD7E" fill-opacity="1.00" stroke="None">
<path d="
M 243.00 176.00 
C 244.05 171.75 243.89 167.29 243.00 163.00
C 243.37 167.02 243.50 172.00 243.00 176.00 Z"/>
</g>
<g fill="#CFCDA8" fill-opacity="1.00" stroke="None">
<path d="
M 186.00 173.00 
C 185.80 170.09 185.80 166.91 186.00 164.00
C 185.44 167.15 185.43 169.80 186.00 173.00 Z"/>
</g>
<g fill="#FBFCFA" fill-opacity="1.00" stroke="None">
<path d="
M 640.00 183.00 
C 634.54 179.89 625.43 186.20 620.22 187.22 C 615.02 188.25 610.25 192.59 605.75 195.75 C 601.25 198.92 597.48 202.57 594.77 207.77 C 592.06 212.98 589.97 218.76 589.00 225.00 C 588.03 231.24 590.12 239.46 592.02 244.98 C 593.93 250.49 597.25 257.61 603.93 255.93 C 610.61 254.24 615.10 252.45 620.25 249.25 C 625.40 246.06 628.42 242.39 632.08 238.08 C 635.74 233.77 638.41 228.14 640.02 223.02 C 641.64 217.91 644.13 208.04 643.00 203.00 C 641.87 197.96 644.58 185.61 640.00 183.00 Z"/>
</g>
<g fill="#A4B992" fill-opacity="1.00" stroke="None">
<path d="
M 464.00 211.00 
C 463.49 205.70 462.69 201.58 461.00 197.00
C 462.07 201.53 463.20 206.80 464.00 211.00 Z"/>
</g>
<g fill="#C8C8A0" fill-opacity="1.00" stroke="None">
<path d="
M 75.00 234.00 
C 79.08 230.00 77.00 218.86 77.00 213.00
C 76.59 217.29 77.79 230.17 75.00 234.00 Z"/>
</g>
<g fill="#FDFDFC" fill-opacity="1.00" stroke="None">
<path d="
M 449.00 285.00 
C 449.09 280.69 449.16 276.31 449.00 272.00
C 448.59 261.25 444.07 248.02 436.75 240.25 C 429.44 232.47 421.45 224.54 412.08 220.92 C 402.70 217.31 387.59 208.62 377.03 213.03 C 366.47 217.44 373.20 239.75 375.02 248.98 C 376.85 258.20 383.12 268.98 390.75 276.25 C 398.39 283.52 407.92 290.35 418.78 292.22 C 429.63 294.09 448.66 301.78 449.00 285.00 Z"/>
</g>
<g fill="#285208" fill-opacity="1.00" stroke="None">
<path d="
M 165.00 227.00 
C 147.29 222.88 140.36 246.86 156.93 253.07 C 173.49 259.29 181.45 230.83 165.00 227.00 Z"/>
</g>
<g fill="#DCD6B6" fill-opacity="1.00" stroke="None">
<path d="
M 206.00 230.00 
C 204.19 231.27 189.13 230.92 187.00 230.00
C 189.69 231.72 203.50 232.50 206.00 230.00 Z"/>
</g>
<g fill="#ACB380" fill-opacity="1.00" stroke="None">
<path d="
M 133.00 245.00 
C 132.71 242.19 132.74 238.82 133.00 236.00
C 132.34 239.21 132.27 241.73 133.00 245.00 Z"/>
</g>
<g fill="#8DA87A" fill-opacity="1.00" stroke="None">
<path d="
M 486.00 255.00 
C 486.71 250.52 484.37 245.80 484.00 242.00
C 484.09 246.44 484.25 251.34 486.00 255.00 Z"/>
</g>
<g fill="#FDFDFC" fill-opacity="1.00" stroke="None">
<path d="
M 557.00 245.00 
C 550.37 243.30 543.91 253.65 538.75 257.75 C 533.60 261.86 529.02 269.83 526.78 276.78 C 524.53 283.72 522.97 295.40 524.22 303.78 C 525.48 312.16 529.42 318.01 533.23 325.77 C 537.04 333.53 545.33 335.01 551.25 329.25 C 557.18 323.50 562.19 321.06 566.07 314.07 C 569.96 307.09 572.36 297.70 573.00 290.00 C 573.64 282.30 572.97 268.36 569.31 262.69 C 565.64 257.03 563.61 246.70 557.00 245.00 Z"/>
</g>
<g fill="#93AD7C" fill-opacity="1.00" stroke="None">
<path d="
M 449.00 285.00 
C 449.50 280.84 449.61 276.25 449.00 272.00
C 449.16 276.31 449.09 280.69 449.00 285.00 Z"/>
</g>
<g fill="#94A26D" fill-opacity="1.00" stroke="None">
<path d="
M 54.00 285.00 
C 55.32 282.20 57.39 279.02 59.00 276.00
C 56.93 279.10 55.26 281.35 54.00 285.00 Z"/>
</g>
<g fill="#295309" fill-opacity="1.00" stroke="None">
<path d="
M 240.00 278.00 
C 222.86 274.83 215.97 300.06 233.00 305.00 C 250.03 309.94 256.88 281.12 240.00 278.00 Z"/>
</g>
<g fill="#8F9C63" fill-opacity="1.00" stroke="None">
<path d="
M 119.00 293.00 
C 121.82 292.74 125.19 292.71 128.00 293.00
C 124.78 292.29 122.26 292.32 119.00 293.00 Z"/>
</g>
<g fill="#FBFBF8" fill-opacity="1.00" stroke="None">
<path d="
M 117.00 344.00 
C 119.89 344.46 124.10 344.39 127.00 344.00
C 141.14 343.88 146.36 323.10 160.33 327.67 C 174.29 332.24 179.87 342.29 182.02 355.98 C 184.18 369.67 183.52 385.44 172.75 395.75 C 161.99 406.07 144.68 401.62 131.00 404.00
C 126.99 393.70 115.86 387.91 105.01 388.01 C 94.16 388.10 85.33 395.81 81.78 405.78 C 78.23 415.74 81.62 428.47 90.77 434.23 C 99.92 439.98 113.53 441.22 121.92 433.92 C 130.31 426.62 134.37 415.37 148.00 419.00 C 161.63 422.63 169.70 414.53 180.77 410.77 C 191.84 407.01 190.56 391.63 200.00 389.00 C 209.44 386.37 225.51 390.10 233.25 396.75 C 240.99 403.40 245.00 415.89 245.00 426.00
C 245.53 431.51 247.43 442.07 246.00 448.00 C 244.57 453.93 248.93 467.16 245.67 471.67 C 242.41 476.18 228.14 472.60 223.00 473.00 C 217.86 473.40 203.81 474.95 200.00 472.00
C 196.66 469.41 196.41 463.27 191.75 460.25 C 187.09 457.22 183.98 454.41 178.00 454.00
C 174.81 453.78 171.19 453.71 168.00 454.00
C 147.12 456.17 138.85 485.04 152.75 499.25 C 166.66 513.46 194.82 508.96 200.00 489.00
C 220.23 486.23 244.00 489.00 264.00 489.00 C 284.00 489.00 295.00 504.23 295.00 523.00
C 295.66 529.84 295.08 538.61 296.00 546.00
C 299.51 560.16 313.36 552.42 312.00 541.00 C 310.64 529.58 312.98 517.17 309.93 507.07 C 306.87 496.98 304.06 491.35 296.75 484.25 C 289.45 477.14 281.88 473.54 272.00 473.00
C 269.57 472.87 264.45 474.08 263.00 472.00
C 259.75 467.35 264.54 456.83 263.00 451.00 C 261.46 445.17 264.04 438.21 262.00 432.00 C 259.96 425.79 263.92 418.59 260.93 412.07 C 257.93 405.55 260.11 404.84 255.75 397.25 C 251.40 389.66 242.53 380.84 234.23 377.77 C 225.93 374.70 226.33 374.32 218.00 374.00
C 211.34 373.75 204.66 374.19 198.00 374.00
C 198.00 372.33 198.00 370.67 198.00 369.00
C 197.58 364.38 198.18 359.63 198.00 355.00
C 197.24 335.09 182.85 314.84 162.00 313.00
C 157.32 312.59 152.32 314.38 149.00 311.00
C 145.80 307.73 145.24 302.39 140.75 299.25 C 136.26 296.10 133.37 294.19 128.00 293.00
C 125.19 292.71 121.82 292.74 119.00 293.00
C 90.42 298.92 88.52 335.71 117.00 344.00
M 128.00 307.00 
C 142.17 311.30 133.58 335.78 118.93 330.07 C 104.27 324.37 111.85 302.10 128.00 307.00
M 111.00 424.00 
C 106.46 425.72 102.62 425.35 99.00 422.00
C 90.84 414.46 97.58 400.50 108.67 402.33 C 119.76 404.17 120.87 420.27 111.00 424.00
M 178.00 468.00 
C 193.96 471.71 186.70 498.69 170.33 492.67 C 153.96 486.65 160.89 464.02 178.00 468.00 Z"/>
</g>
<g fill="#829865" fill-opacity="1.00" stroke="None">
<path d="
M 30.00 323.00 
C 30.00 316.34 29.87 309.66 30.00 303.00
C 29.24 309.27 29.39 316.69 30.00 323.00 Z"/>
</g>
<g fill="#829E6D" fill-opacity="1.00" stroke="None">
<path d="
M 484.00 328.00 
C 485.86 320.12 488.67 311.39 490.00 303.00
C 487.80 311.00 485.14 319.28 484.00 328.00 Z"/>
</g>
<g fill="#FCFDFC" fill-opacity="1.00" stroke="None">
<path d="
M 383.00 306.00 
C 369.12 304.27 370.81 330.47 372.67 340.33 C 374.53 350.18 378.53 362.83 387.75 370.25 C 396.97 377.67 404.56 383.85 418.00 385.00 C 431.44 386.15 430.34 360.98 428.33 350.67 C 426.32 340.36 421.43 327.88 412.75 321.25 C 404.07 314.62 393.51 307.31 383.00 306.00 Z"/>
</g>
<g fill="#285308" fill-opacity="1.00" stroke="None">
<path d="
M 128.00 307.00 
C 111.85 302.10 104.27 324.37 118.93 330.07 C 133.58 335.78 142.17 311.30 128.00 307.00 Z"/>
</g>
<g fill="#7C9053" fill-opacity="1.00" stroke="None">
<path d="
M 162.00 313.00 
C 159.07 312.40 151.77 313.02 149.00 311.00
C 152.32 314.38 157.32 312.59 162.00 313.00 Z"/>
</g>
<g fill="#87A173" fill-opacity="1.00" stroke="None">
<path d="
M 597.00 344.00 
C 600.14 344.00 603.52 343.30 606.00 343.00
C 602.94 343.06 599.40 343.77 597.00 344.00 Z"/>
</g>
<g fill="#8C9B62" fill-opacity="1.00" stroke="None">
<path d="
M 127.00 344.00 
C 124.10 344.39 119.89 344.46 117.00 344.00
C 120.46 345.01 123.50 344.91 127.00 344.00 Z"/>
</g>
<g fill="#D7D2B0" fill-opacity="1.00" stroke="None">
<path d="
M 198.00 369.00 
C 198.00 369.04 199.00 369.00 199.00 369.00
C 199.43 364.23 198.58 359.07 198.00 355.00
C 198.18 359.63 197.58 364.38 198.00 369.00 Z"/>
</g>
<g fill="#9BA570" fill-opacity="1.00" stroke="None">
<path d="
M 218.00 374.00 
C 212.66 371.68 205.16 373.66 199.00 373.00
C 199.16 371.69 198.79 370.30 199.00 369.00
C 199.00 369.00 198.00 369.04 198.00 369.00
C 198.00 370.67 198.00 372.33 198.00 374.00
C 204.66 374.19 211.34 373.75 218.00 374.00 Z"/>
</g>
<g fill="#DAD1A9" fill-opacity="1.00" stroke="None">
<path d="
M 18.00 411.00 
C 18.29 407.99 19.00 403.75 19.00 400.00
C 18.71 403.01 18.00 407.25 18.00 411.00 Z"/>
</g>
<g fill="#295309" fill-opacity="1.00" stroke="None">
<path d="
M 99.00 422.00 
C 102.07 424.13 107.23 424.86 111.00 424.00
C 120.87 420.27 119.76 404.17 108.67 402.33 C 97.58 400.50 90.84 414.46 99.00 422.00 Z"/>
</g>
<g fill="#93A475" fill-opacity="1.00" stroke="None">
<path d="
M 111.00 424.00 
C 107.23 424.86 102.07 424.13 99.00 422.00
C 102.62 425.35 106.46 425.72 111.00 424.00 Z"/>
</g>
<g fill="#89A275" fill-opacity="1.00" stroke="None">
<path d="
M 499.00 425.00 
C 509.17 424.61 519.13 425.41 529.00 426.00
C 519.42 424.63 508.93 423.58 499.00 425.00 Z"/>
</g>
<g fill="#82955D" fill-opacity="1.00" stroke="None">
<path d="
M 200.00 472.00 
C 203.81 474.95 217.86 473.40 223.00 473.00 C 228.14 472.60 242.41 476.18 245.67 471.67 C 248.93 467.16 244.57 453.93 246.00 448.00 C 247.43 442.07 245.53 431.51 245.00 426.00
C 245.00 441.33 245.00 456.67 245.00 472.00
C 230.00 472.00 215.00 472.00 200.00 472.00 Z"/>
</g>
<g fill="#FCFCFB" fill-opacity="1.00" stroke="None">
<path d="
M 598.00 507.00 
C 598.00 503.34 598.07 499.66 598.00 496.00
C 599.50 462.10 563.19 453.61 543.00 435.00
C 538.91 443.80 536.89 455.00 537.00 465.00 C 537.11 475.00 538.11 486.37 543.25 494.75 C 548.38 503.13 552.70 506.76 560.77 513.23 C 568.84 519.70 574.19 520.30 584.99 525.01 C 595.79 529.71 598.00 517.59 598.00 507.00 Z"/>
</g>
<g fill="#A0AC7D" fill-opacity="1.00" stroke="None">
<path d="
M 168.00 454.00 
C 171.19 453.71 174.81 453.78 178.00 454.00
C 174.56 453.38 171.52 453.27 168.00 454.00 Z"/>
</g>
<g fill="#275207" fill-opacity="1.00" stroke="None">
<path d="
M 178.00 468.00 
C 160.89 464.02 153.96 486.65 170.33 492.67 C 186.70 498.69 193.96 471.71 178.00 468.00 Z"/>
</g>
<g fill="#829458" fill-opacity="1.00" stroke="None">
<path d="
M 272.00 473.00 
C 269.68 472.62 266.07 471.20 263.00 472.00
C 264.45 474.08 269.57 472.87 272.00 473.00 Z"/>
</g>
<g fill="#95AE81" fill-opacity="1.00" stroke="None">
<path d="
M 598.00 507.00 
C 598.33 503.55 598.43 499.54 598.00 496.00
C 598.07 499.66 598.00 503.34 598.00 507.00 Z"/>
</g>
<g fill="#87A36D" fill-opacity="1.00" stroke="None">
<path d="
M 370.00 596.00 
C 370.00 571.00 370.00 546.00 370.00 521.00
C 367.73 544.45 367.72 572.48 370.00 596.00 Z"/>
</g>
<g fill="#809356" fill-opacity="1.00" stroke="None">
<path d="
M 296.00 546.00 
C 295.08 538.61 295.66 529.84 295.00 523.00
C 295.00 530.56 294.31 539.17 296.00 546.00 Z"/>
</g>
<g fill="#F9F9F5" fill-opacity="1.00" stroke="None">
<path d="
M 209.00 566.00 
C 217.82 598.58 267.89 592.67 268.00 559.00 C 268.11 525.33 217.07 519.15 210.00 552.00
C 197.62 553.54 199.58 541.34 189.67 537.33 C 179.76 533.32 175.78 550.30 184.75 555.25 C 193.72 560.20 198.02 566.91 209.00 566.00
M 240.00 544.00 
C 258.18 545.37 255.71 575.97 237.00 574.00 C 218.28 572.02 220.88 542.56 240.00 544.00 Z"/>
</g>
<g fill="#275207" fill-opacity="1.00" stroke="None">
<path d="
M 240.00 544.00 
C 220.88 542.56 218.28 572.02 237.00 574.00 C 255.71 575.97 258.18 545.37 240.00 544.00 Z"/>
</g>
<g fill="#B8BA8A" fill-opacity="1.00" stroke="None">
<path d="
M 185.00 601.00 
C 180.37 601.00 175.62 601.31 171.00 601.00
C 175.53 601.81 180.48 601.44 185.00 601.00 Z"/>
</g>
<g fill="#EBDBA5" fill-opacity="1.00" stroke="None">
<path d="
M 274.00 658.00 
C 277.53 655.14 288.39 655.04 293.00 654.00
C 314.87 649.07 332.58 627.31 339.00 607.00
C 336.39 611.73 331.76 616.50 329.92 621.92 C 328.07 627.34 323.06 630.09 319.75 634.75 C 316.44 639.42 311.02 641.74 307.08 645.08 C 303.15 648.42 296.16 651.12 292.02 653.02 C 287.89 654.93 274.50 654.62 274.00 658.00 Z"/>
</g>
<g fill="#B7A34A" fill-opacity="1.00" stroke="None">
<path d="
M 274.00 658.00 
C 274.00 658.00 274.04 659.00 274.00 659.00
C 280.70 658.37 287.03 656.12 293.00 654.00
C 288.39 655.04 277.53 655.14 274.00 658.00 Z"/>
</g>
</svg>