<?xml version="1.0" encoding="utf-8"?>
<!DOCTYPE svg PUBLIC "-//W3C//DTD SVG 1.0//EN" "http://www.w3.org/TR/2001/REC-SVG-20010904/DTD/svg10.dtd">
<svg version="1.0" xmlns="http://www.w3.org/2000/svg" width="70px" height="70px" viewBox="0 0 70 70" preserveAspectRatio="xMidYMid meet">
 <g fill="#ffffff">
 </g>
 <g fill="#f7f7f7">
 </g>
 <g fill="#efefef">
 </g>
 <g fill="#e6e6e6">
 </g>
 <g fill="#dedede">
 </g>
 <g fill="#d6d6d6">
 </g>
 <g fill="#cecece">
 </g>
 <g fill="#c5c5c5">
 </g>
 <g fill="#bdbdbd">
  <path d="M4.2 66.7 c-4 -4.3 -3.1 -5.8 11.1 -17.8 7.2 -6.2 13.5 -11.5 13.9 -11.9 0.4 -0.3 -3.3 -4.7 -8.2 -9.8 -7.1 -7.2 -9.6 -9.2 -11.8 -9.2 -2.2 0 -3.3 -0.9 -5.5 -4.5 -3.2 -5.5 -3.2 -5.3 -0.6 -8.1 l2.1 -2.2 4.9 3 c3.8 2.4 4.9 3.7 4.9 5.7 0 1.9 2.4 5 9.1 11.8 l9.1 9.3 2.9 -2.1 c3.3 -2.3 3.4 -2.7 1.4 -5.3 -0.9 -1.2 -1.5 -4.2 -1.5 -7.4 0 -10.4 6.7 -17.2 16.9 -17.2 2.8 0 5.1 0.2 5.1 0.4 0 0.2 -2.2 2.7 -5 5.4 -2.7 2.7 -5 5.4 -5 5.8 0 0.5 2.1 3 4.7 5.6 l4.7 4.8 5.8 -5.7 5.8 -5.7 0 6 c0 6.7 -2.1 10.9 -7.3 14.8 -3 2.2 -11.9 2.9 -16.3 1.3 -1.6 -0.5 -2.5 0 -4.3 2.4 -2.1 2.8 -2.2 3.3 -0.7 4.7 1.3 1.4 1.9 1.4 4.1 0.2 2.5 -1.3 2.8 -1.1 11.5 7.5 5 4.9 9 9.6 9 10.4 0 1.7 -7.9 10.1 -9.4 10.1 -1.7 0 -18.6 -17.3 -18.6 -19 0 -0.9 0.5 -2.1 1.2 -2.8 1 -1 0.8 -1.6 -0.7 -3.2 -2 -1.9 -2.1 -1.8 -13.9 11.5 -13 14.7 -15 15.8 -19.4 11.2z m6.3 -2.5 c0.8 -2 -1.9 -4.7 -3.9 -3.9 -2.6 1 -3.2 3.8 -1.2 5.3 2.1 1.5 4.2 0.9 5.1 -1.4z"/>
 </g>
 <g fill="#b5b5b5">
 </g>
 <g fill="#adadad">
 </g>
 <g fill="#a5a5a5">
 </g>
 <g fill="#9c9c9c">
 </g>
 <g fill="#949494">
 </g>
 <g fill="#8c8c8c">
 </g>
 <g fill="#848484">
 </g>
 <g fill="#7b7b7b">
 </g>
 <g fill="#737373">
 </g>
 <g fill="#6b6b6b">
 </g>
 <g fill="#636363">
 </g>
 <g fill="#5a5a5a">
 </g>
 <g fill="#525252">
 </g>
 <g fill="#4a4a4a">
 </g>
 <g fill="#424242">
 </g>
 <g fill="#3a3a3a">
 </g>
 <g fill="#313131">
 </g>
 <g fill="#292929">
 </g>
 <g fill="#212121">
 </g>
 <g fill="#191919">
 </g>
 <g fill="#101010">
 </g>
 <g fill="#080808">
 </g>
 <g fill="#000000">
 </g>
</svg>