<?xml version="1.0" encoding="UTF-8"?> <!-- Generator: Adobe Illustrator 21.0.0, SVG Export Plug-In . SVG Version: 6.00 Build 0) --> <svg xmlns="http://www.w3.org/2000/svg" xmlns:xlink="http://www.w3.org/1999/xlink" id="Слой_1" x="0px" y="0px" viewBox="0 0 741 200" style="enable-background:new 0 0 741 200;" xml:space="preserve"> <style type="text/css"> .st0{fill:#7F0808;} .st1{fill:#FFFFFF;} </style> <path class="st0" d="M138.8,178.5H57.8c-23.2,0-42-18.8-42-42V55.5c0-23.2,18.8-42,42-42h81.1c23.2,0,42,18.8,42,42v81.1 C180.8,159.7,162,178.5,138.8,178.5z"></path> <g> <path class="st1" d="M136.6,145.7c-3.2-0.2-6.5-0.3-9.7-0.7c-6.8-0.9-12.9,1.2-18.9,4.2c-5.7,2.9-11.3,5.9-17.2,8.4 c-11.4,4.7-24.7-1.9-30.1-9.7c-4.4-6.3-3.8-11.9,1.9-17.1c2.2-2,4.5-3.9,6.9-5.7c5.3-3.7,7.9-8.7,8-15.2c0-1.5,0.3-3.1,0.6-4.6 c0.7-3.3,2.8-5.6,5.5-7.4c5.1-3.5,10.5-6.3,16.9-6.6c9.4-0.5,17.7,1.8,23.3,10.1c1,1.5,2.1,2.9,3.2,4.4c3.9,5.3,9,8.6,15.7,9.4 c1.8,0.2,3.7,0.7,5.4,1.3c4.8,1.8,7.7,5.4,8.2,10.3c0.2,2.6-0.9,5.5-1.9,8C150.8,142.8,145.8,145.7,136.6,145.7z"></path> <path class="st1" d="M105.5,73.2c0.1-4.2,0.9-8.2,3.2-11.7c1.9-3,4.5-5.2,8.4-5c3.4,0.1,5.9,2.1,7.7,4.8c3.6,5.2,4.4,11,3.6,17.1 c-0.5,3.8-1.9,7.3-4.7,10.1c-3.6,3.6-8.4,3.8-12.2,0.4c-3.8-3.5-5.3-8-5.9-12.9C105.6,75.1,105.5,74.2,105.5,73.2z"></path> <path class="st1" d="M102.1,74.3c-0.7,2.5-1,5.1-2,7.5c-2.4,5.6-8,7.1-13.1,3.7c-4.9-3.3-7.4-8.2-8.5-13.8 c-0.9-4.6-0.8-9.3,1.9-13.4c2.8-4.4,7.7-5.5,12.1-2.7c5.1,3.3,7.6,8.3,8.8,14.1c0.3,1.5,0.4,3,0.5,4.4 C101.9,74.2,102,74.2,102.1,74.3z"></path> <path class="st1" d="M55.6,81.6c0.5-2.3,0.7-4.3,1.4-6.1c2-5.3,7-7,12-4.2c4.7,2.7,7.5,6.9,9.2,11.9c1.5,4.3,2.1,8.6,0.6,13 c-1.9,5.8-6.7,7.8-12.1,5c-4.6-2.4-7.3-6.4-9-11C56.7,87.3,56.3,84.3,55.6,81.6z"></path> <path class="st1" d="M67.1,116.8c-0.1,5-2.7,8.7-6.8,9.4c-2.7,0.5-5.3-0.1-7.7-1.5c-7.1-4.2-11.1-10.3-11-18.7 c0.1-6.9,5.6-10.5,12.1-8.3C61.1,100.2,67.3,109,67.1,116.8z"></path> <path class="st1" d="M152,95.4c0,2.9-0.7,6.2-2.4,9.1c-3.5,6-9.8,6.6-14.4,1.4c-4.9-5.5-5.9-15.9-2.3-22.4c3.9-6.9,11.3-7,15.7-0.3 C151,86.8,152,90.7,152,95.4z"></path> <path class="st1" d="M88.8,51.2c-3.5-0.2-6.3,0.7-8.8,3c-3.1-6.9-2.7-14.1-2.3-21.3C82.2,38.5,86.6,44.1,88.8,51.2z"></path> <path class="st1" d="M104.2,36.8c8.7,3.2,14.2,9.3,17.2,18.1c-2.9,0-5.6,0-8.6,0C111.9,48.3,108.2,42.5,104.2,36.8z"></path> <path class="st1" d="M56.4,71.2c-3.1-6.1-1.5-18.8,3.4-24.4c0.1,7.1,0.3,13.9,3.6,19.8C60.9,68.2,58.7,69.7,56.4,71.2z"></path> <path class="st1" d="M48.7,93.8c-2.4,1.6-4.7,3-7.1,4.5c-2.7-8.6-1.4-16.7,3.7-24.3C45.4,80.9,45.6,87.8,48.7,93.8z"></path> <path class="st1" d="M146.3,77c-2.7-0.2-5.4-0.4-8.3-0.7c-0.1-6.7-3.1-12.9-6.5-19C138.9,60.1,145.2,69,146.3,77z"></path> </g> <g> <polygon class="st1" points="290.8,35.2 279,35.2 278.1,35.2 278.1,38.3 259.4,108.6 239.8,35.2 228,35.2 224,35.2 224,148.3 239.8,148.3 239.8,79.6 255.1,136.7 263.7,136.7 278.1,82.7 278.1,148.3 294,148.3 294,35.2 "></polygon> <path class="st1" d="M423.9,134.7V86.9V73.3h-13.6h-14h-11.6v13.6h0.1c0,5.4,0,10.9-0.1,13.9c-0.5,8.9-3.5,33.9-10.6,33.9H370v2.4 v11.2v10h11.8v-10h36.9v10h11.8v-10v-11.2v-2.4L423.9,134.7L423.9,134.7z M396.2,107.5c0.2-4.3,0.2-13.1,0.2-20.6h13.9v47.8h-21.4 C393.2,134.7,395.8,114.6,396.2,107.5z"></path> <path class="st1" d="M491.1,97.2V83.3c0-5.5-4.5-10-10-10h-38.9v75h38.9c5.5,0,10-4.5,10-10v-15.6c0-5.5-4.5-10-10-10h-0.6v-5.6 h0.6C486.6,107.2,491.1,102.7,491.1,97.2z M475.8,84.5V94c0,5.5-4.5,10-10,10h-10V84.5H475.8z M455.8,137.1v-22.6h10 c5.5,0,10,4.5,10,10v12.6H455.8z"></path> <path class="st1" d="M309.5,83.3v55c0,5.5,4.5,10,10,10l28.5-0.1c5.5,0,9.9-4.5,9.9-10v-13.5h-15.8v7.8h-16.8v-17.4H348 c5.5,0,10-4.5,10-10V83.3c0-5.5-4.5-10-10-10h-28.5C314,73.4,309.5,77.8,309.5,83.3z M342.1,106.4h-16.8V89.2h16.8V106.4z"></path> <path class="st1" d="M507.3,83.3v55c0,5.5,4.5,10,10,10l28.5-0.1c5.5,0,9.9-4.5,9.9-10v-13.5h-15.8v7.8h-16.8v-17.4h22.6 c5.5,0,10-4.5,10-10V83.3c0-5.5-4.5-10-10-10h-28.5C511.8,73.4,507.3,77.8,507.3,83.3z M539.9,106.4h-16.8V89.2h16.8V106.4z"></path> <path class="st1" d="M621.2,134.7V86.9V73.3h-13.6h-14H582v13.6h0.1c0,5.4,0,10.9-0.1,13.9c-0.5,8.9-3.5,33.9-10.6,33.9h-4.1v2.4 v11.2v10h11.8v-10H616v10h11.8v-10v-11.2v-2.4L621.2,134.7L621.2,134.7z M607.5,134.7h-21.4c4.4,0,7-20.2,7.3-27.2 c0.2-4.3,0.2-13.1,0.2-20.6h13.9V134.7z"></path> <path class="st1" d="M654.7,105.7V73.4h-16v75h38.9c5.5,0,10-4.5,10-10v-27.7c0-5.5-4.5-10-10-10L654.7,105.7z M670.2,137.1h-15.5 v-17.6l15.5-5V137.1z"></path> </g> </svg> 