<svg id="svg" fill="#384938" stroke="#384938" width="200" height="200" version="1.1" viewBox="144 144 512 512" xmlns="http://www.w3.org/2000/svg">
    <g id="IconSvg_bgCarrier" stroke-width="0"></g>
    <g id="IconSvg_tracerCarrier" stroke-linecap="round" stroke-linejoin="round" stroke="#CCCCCC" stroke-width="0">
      <path xmlns="http://www.w3.org/2000/svg" d="m401.12 486.34-7.5742-18.926c-4.2031 1.8125-8.7227 2.9141-13.445 3.2109-6.9258 15.367-21.727 25.773-38.445 25.82l-5.1641-0.30078c-2.0156 2.2344-4.25 4.2656-6.6602 6.0312 0.48828 11.508 2.4414 22.168 4.1562 32.434 1.9375 11.539 3.7773 22.402-0.48828 33.867-4.4883 12.074-15.398 24.246-36.855 38.949-5.6992 3.9062-8.1875 11.051-6.1406 17.648 2.0312 6.5977 8.1406 11.082 15.035 11.082h188.93c6.6133 0 12.516-4.1406 14.785-10.344 2.2656-6.2188 0.41016-13.18-4.6445-17.445-18.277-15.383-27.648-27.223-31.582-38.477-3.7305-10.676-2.332-20.469-0.85156-31.488 1.3555-9.9492 2.9609-20.656 3.1641-32.984-4.4258-2.3477-8.4219-5.4961-11.824-9.2734l-5.1641 0.30078c-16.719-0.046874-31.52-10.453-38.445-25.82-3.6211-0.21875-7.1328-0.92969-10.484-2.0625l-8.2969 17.773zm-0.91406-322.5h-0.20312c-12.074 0-23.098 5.3203-30.953 14.059-1.6523-0.20313-3.3203-0.30078-5.0391-0.30078-16.766 0-31.629 10.406-38.574 25.82-21.191 1.3711-38.777 19.383-40.07 42.555-5.1953 2.1719-9.918 5.3984-13.918 9.4766-3.0703 2.7383-5.6055 5.7461-7.6055 9.1328-14.391 2.0625-26.734 11.793-32.875 25.426-21.191 1.3711-38.777 19.383-40.07 42.555-5.1953 2.1719-9.918 5.3984-13.918 9.4766-8.5156 7.5898-13.145 17.176-13.145 31.441v1.3086c0 7.4609 1.8125 13.996 4.832 19.664 4.7852 9.7305 12.723 17.254 22.23 21.238 1.2891 23.176 18.879 41.203 40.07 42.555 6.9258 15.383 21.727 25.773 38.445 25.836l5.1641-0.31641c7.8555 8.7383 18.879 14.059 30.953 14.059h0.20312c11.98-0.046875 22.938-5.3672 30.75-14.059l5.1641 0.31641c16.719-0.0625 31.52-10.453 38.445-25.82 7.2422-0.47266 14.027-2.832 19.902-6.6914 5.8711 3.8555 12.66 6.2188 19.902 6.6914 6.9258 15.367 21.727 25.758 38.445 25.82l5.1641-0.31641c7.8555 8.7383 18.879 14.059 30.953 14.059h0.20312c11.98-0.046875 22.938-5.3672 30.75-14.059l5.1641 0.31641c16.719-0.0625 31.52-10.453 38.445-25.836 21.191-1.3555 38.777-19.383 40.07-42.555 5.1953-2.1719 9.918-5.3984 13.918-9.4609 8.5156-7.5898 13.145-17.191 13.145-31.441v-1.3086c0-7.4766-1.8125-13.996-4.832-19.68-4.7852-9.7305-12.723-17.254-22.23-21.238-1.2891-23.176-18.879-41.188-40.07-42.555-6.25-13.871-18.926-23.695-33.613-25.52-4.8633-8.4062-12.172-14.91-20.781-18.516-1.2891-23.176-18.879-41.188-40.07-42.555-6.9258-15.367-21.727-25.773-38.445-25.82l-5.1641 0.30078c-7.8086-8.6914-18.766-13.996-30.75-14.059z" fill-rule="evenodd"></path>

      </g>
     <g id="IconSvg_iconCarrier">
      <path xmlns="http://www.w3.org/2000/svg" d="m401.12 486.34-7.5742-18.926c-4.2031 1.8125-8.7227 2.9141-13.445 3.2109-6.9258 15.367-21.727 25.773-38.445 25.82l-5.1641-0.30078c-2.0156 2.2344-4.25 4.2656-6.6602 6.0312 0.48828 11.508 2.4414 22.168 4.1562 32.434 1.9375 11.539 3.7773 22.402-0.48828 33.867-4.4883 12.074-15.398 24.246-36.855 38.949-5.6992 3.9062-8.1875 11.051-6.1406 17.648 2.0312 6.5977 8.1406 11.082 15.035 11.082h188.93c6.6133 0 12.516-4.1406 14.785-10.344 2.2656-6.2188 0.41016-13.18-4.6445-17.445-18.277-15.383-27.648-27.223-31.582-38.477-3.7305-10.676-2.332-20.469-0.85156-31.488 1.3555-9.9492 2.9609-20.656 3.1641-32.984-4.4258-2.3477-8.4219-5.4961-11.824-9.2734l-5.1641 0.30078c-16.719-0.046874-31.52-10.453-38.445-25.82-3.6211-0.21875-7.1328-0.92969-10.484-2.0625l-8.2969 17.773zm-0.91406-322.5h-0.20312c-12.074 0-23.098 5.3203-30.953 14.059-1.6523-0.20313-3.3203-0.30078-5.0391-0.30078-16.766 0-31.629 10.406-38.574 25.82-21.191 1.3711-38.777 19.383-40.07 42.555-5.1953 2.1719-9.918 5.3984-13.918 9.4766-3.0703 2.7383-5.6055 5.7461-7.6055 9.1328-14.391 2.0625-26.734 11.793-32.875 25.426-21.191 1.3711-38.777 19.383-40.07 42.555-5.1953 2.1719-9.918 5.3984-13.918 9.4766-8.5156 7.5898-13.145 17.176-13.145 31.441v1.3086c0 7.4609 1.8125 13.996 4.832 19.664 4.7852 9.7305 12.723 17.254 22.23 21.238 1.2891 23.176 18.879 41.203 40.07 42.555 6.9258 15.383 21.727 25.773 38.445 25.836l5.1641-0.31641c7.8555 8.7383 18.879 14.059 30.953 14.059h0.20312c11.98-0.046875 22.938-5.3672 30.75-14.059l5.1641 0.31641c16.719-0.0625 31.52-10.453 38.445-25.82 7.2422-0.47266 14.027-2.832 19.902-6.6914 5.8711 3.8555 12.66 6.2188 19.902 6.6914 6.9258 15.367 21.727 25.758 38.445 25.82l5.1641-0.31641c7.8555 8.7383 18.879 14.059 30.953 14.059h0.20312c11.98-0.046875 22.938-5.3672 30.75-14.059l5.1641 0.31641c16.719-0.0625 31.52-10.453 38.445-25.836 21.191-1.3555 38.777-19.383 40.07-42.555 5.1953-2.1719 9.918-5.3984 13.918-9.4609 8.5156-7.5898 13.145-17.191 13.145-31.441v-1.3086c0-7.4766-1.8125-13.996-4.832-19.68-4.7852-9.7305-12.723-17.254-22.23-21.238-1.2891-23.176-18.879-41.188-40.07-42.555-6.25-13.871-18.926-23.695-33.613-25.52-4.8633-8.4062-12.172-14.91-20.781-18.516-1.2891-23.176-18.879-41.188-40.07-42.555-6.9258-15.367-21.727-25.773-38.445-25.82l-5.1641 0.30078c-7.8086-8.6914-18.766-13.996-30.75-14.059z" fill-rule="evenodd"></path>

      </g>
      </svg>