<?xml version="1.0" encoding="utf-8"?>
<!-- Generator: Adobe Illustrator 26.0.0, SVG Export Plug-In . SVG Version: 6.00 Build 0)  -->
<svg version="1.1" id="Layer_1" xmlns="http://www.w3.org/2000/svg" xmlns:xlink="http://www.w3.org/1999/xlink" x="0px" y="0px"
	 viewBox="0 0 24 24" style="enable-background:new 0 0 24 24;" xml:space="preserve">
<style type="text/css">
	.st0{fill:#E89F0A;}
</style>
<path class="st0" d="M4,3C3.6,3,3,3.3,3,4c0,4.5,1.8,8.9,5,12c3.2,3.1,7.5,5,12,5c0.7,0,1-0.6,1-1v-3.5c0-0.5-0.4-1-1-1
	c-0.6,0-1.4-0.1-1.9-0.1c-0.5-0.1-1.2-0.3-1.7-0.4c-0.1,0-0.2,0-0.3,0c-0.3,0-0.5,0.1-0.7,0.3l-2.2,2.2c-1.5-0.8-2.8-1.7-3.8-2.8
	c-1-1-2-2.3-2.8-3.8l2.2-2.2c0.3-0.3,0.4-0.7,0.3-1C8.9,7.1,8.7,6.4,8.7,5.9C8.6,5.4,8.5,4.6,8.5,4c0-0.5-0.5-1-1-1H4z M12,3v2
	c3.9,0,7,3.1,7,7h2C21,7,17,3,12,3z M5,5h1.5c0,0.5,0.1,0.9,0.1,1.2C6.7,6.6,6.9,7.1,7,7.6L5.8,8.8C5.4,7.6,5.1,6.3,5,5z M12,7v2
	c1.7,0,3,1.3,3,3h2C17,9.2,14.8,7,12,7z M16.4,17c0.5,0.1,0.9,0.2,1.3,0.3c0.3,0.1,0.7,0.1,1.2,0.1V19c-1.3-0.1-2.6-0.3-3.8-0.8
	L16.4,17z"/>
</svg>
