<svg id="svg" fill="#e0a423" stroke="#e0a423" width="55" height="55" version="1.1" viewBox="144 144 512 512" xmlns="http://www.w3.org/2000/svg">
    <g id="IconSvg_bgCarrier" stroke-width="0"></g>
    <g id="IconSvg_tracerCarrier" stroke-linecap="round" stroke-linejoin="round" stroke="#CCCCCC" stroke-width="0">
      <path xmlns="http://www.w3.org/2000/svg" d="m293.34 207.1c335.87 0 301.07-36.312 301.07 299.56 0 48.414-39.336 87.75-87.75 87.75-335.87 0-299.56 34.797-299.56-301.07 0-48.414 37.824-86.238 86.238-86.238zm60.52 226.94c27.234-48.414 95.316-131.62 140.7-146.75 37.824-12.105 45.387 30.258 27.234 39.336-95.316 43.875-136.16 154.32-155.83 178.53-12.105 16.641-36.312 9.0781-40.848-6.0508-36.312-118.01-39.336-74.133-52.953-98.34-18.156-34.797 46.902-62.031 81.699 33.285z" fill-rule="evenodd"></path>

      </g>
     <g id="IconSvg_iconCarrier">
      <path xmlns="http://www.w3.org/2000/svg" d="m293.34 207.1c335.87 0 301.07-36.312 301.07 299.56 0 48.414-39.336 87.75-87.75 87.75-335.87 0-299.56 34.797-299.56-301.07 0-48.414 37.824-86.238 86.238-86.238zm60.52 226.94c27.234-48.414 95.316-131.62 140.7-146.75 37.824-12.105 45.387 30.258 27.234 39.336-95.316 43.875-136.16 154.32-155.83 178.53-12.105 16.641-36.312 9.0781-40.848-6.0508-36.312-118.01-39.336-74.133-52.953-98.34-18.156-34.797 46.902-62.031 81.699 33.285z" fill-rule="evenodd"></path>

      </g>
      </svg>