<svg id="svg" fill="#384938" stroke="#384938" width="200" height="200" version="1.1" viewBox="144 144 512 512" xmlns="http://www.w3.org/2000/svg">
    <g id="IconSvg_bgCarrier" stroke-width="0"></g>
    <g id="IconSvg_tracerCarrier" stroke-linecap="round" stroke-linejoin="round" stroke="#CCCCCC" stroke-width="0">
      <path xmlns="http://www.w3.org/2000/svg" d="m401.02 236.34c4.7383 0.03125 9.4609 0.1875 14.184 0.5 9.3203 0.61328 18.605 1.793 27.785 3.5352 21.742 4.1289 42.844 11.406 62.613 21.352 19.754 9.9297 38.152 22.488 54.84 36.98 14.086 12.234 26.965 25.848 38.535 40.477 3.9492 4.9883 7.7422 10.09 11.391 15.305 1.2266 1.75 2.4297 3.5117 3.625 5.293 1.4844 2.2148 2.9219 4.4531 4.207 6.793 3.6602 6.707 6.2031 14.012 7.5117 21.543 2.2539 13.07 0.70312 26.703-4.4414 38.93-1.168 2.7734-2.5117 5.4688-4.0234 8.0625-1.0195 1.7461-2.1289 3.4297-3.2539 5.1094-1.582 2.3633-3.1992 4.7031-4.8477 7.0273-6.5039 9.1758-13.484 18.004-20.918 26.434-19.762 22.387-42.836 41.918-68.637 56.992-16.547 9.668-34.191 17.473-52.539 23.027-21.387 6.4805-43.684 9.8555-66.031 9.9531-22.695 0.097656-45.367-3.1797-67.117-9.6641-18.688-5.5742-36.652-13.48-53.488-23.316-25.801-15.074-48.875-34.613-68.629-56.992-7.4414-8.4297-14.422-17.266-20.918-26.434-1.6484-2.3242-3.2656-4.6641-4.8516-7.0352-1.125-1.6758-2.2344-3.3594-3.25-5.1016-1.5117-2.6016-2.8633-5.2891-4.0273-8.0625-5.1484-12.227-6.6992-25.859-4.4414-38.934 1.2969-7.5273 3.8477-14.832 7.5117-21.539 1.2773-2.3477 2.7148-4.582 4.207-6.8008 1.1875-1.7734 2.3984-3.5352 3.6211-5.2891 3.6406-5.2109 7.4414-10.316 11.387-15.305 11.578-14.625 24.449-28.238 38.535-40.473 16.191-14.062 33.988-26.293 53.07-36.082 19.691-10.098 40.73-17.555 62.438-21.871 8.8242-1.7539 17.75-2.9883 26.719-3.6992 4.7109-0.37109 9.4258-0.58594 14.141-0.67969 1.6992-0.027344 3.3984-0.039062 5.0938-0.035156zm-1.0156 60.316c-57.074 0-103.34 46.266-103.34 103.34 0 57.078 46.262 103.34 103.34 103.34 57.07 0 103.34-46.258 103.34-103.34 0-57.07-46.266-103.34-103.34-103.34zm54.996 103.34c0 30.371-24.629 54.996-54.996 54.996-30.371 0-54.996-24.625-54.996-54.996 0-30.367 24.625-54.988 54.996-54.988 30.367 0 54.996 24.621 54.996 54.988z" fill-rule="evenodd"></path>

      </g>
     <g id="IconSvg_iconCarrier">
      <path xmlns="http://www.w3.org/2000/svg" d="m401.02 236.34c4.7383 0.03125 9.4609 0.1875 14.184 0.5 9.3203 0.61328 18.605 1.793 27.785 3.5352 21.742 4.1289 42.844 11.406 62.613 21.352 19.754 9.9297 38.152 22.488 54.84 36.98 14.086 12.234 26.965 25.848 38.535 40.477 3.9492 4.9883 7.7422 10.09 11.391 15.305 1.2266 1.75 2.4297 3.5117 3.625 5.293 1.4844 2.2148 2.9219 4.4531 4.207 6.793 3.6602 6.707 6.2031 14.012 7.5117 21.543 2.2539 13.07 0.70312 26.703-4.4414 38.93-1.168 2.7734-2.5117 5.4688-4.0234 8.0625-1.0195 1.7461-2.1289 3.4297-3.2539 5.1094-1.582 2.3633-3.1992 4.7031-4.8477 7.0273-6.5039 9.1758-13.484 18.004-20.918 26.434-19.762 22.387-42.836 41.918-68.637 56.992-16.547 9.668-34.191 17.473-52.539 23.027-21.387 6.4805-43.684 9.8555-66.031 9.9531-22.695 0.097656-45.367-3.1797-67.117-9.6641-18.688-5.5742-36.652-13.48-53.488-23.316-25.801-15.074-48.875-34.613-68.629-56.992-7.4414-8.4297-14.422-17.266-20.918-26.434-1.6484-2.3242-3.2656-4.6641-4.8516-7.0352-1.125-1.6758-2.2344-3.3594-3.25-5.1016-1.5117-2.6016-2.8633-5.2891-4.0273-8.0625-5.1484-12.227-6.6992-25.859-4.4414-38.934 1.2969-7.5273 3.8477-14.832 7.5117-21.539 1.2773-2.3477 2.7148-4.582 4.207-6.8008 1.1875-1.7734 2.3984-3.5352 3.6211-5.2891 3.6406-5.2109 7.4414-10.316 11.387-15.305 11.578-14.625 24.449-28.238 38.535-40.473 16.191-14.062 33.988-26.293 53.07-36.082 19.691-10.098 40.73-17.555 62.438-21.871 8.8242-1.7539 17.75-2.9883 26.719-3.6992 4.7109-0.37109 9.4258-0.58594 14.141-0.67969 1.6992-0.027344 3.3984-0.039062 5.0938-0.035156zm-1.0156 60.316c-57.074 0-103.34 46.266-103.34 103.34 0 57.078 46.262 103.34 103.34 103.34 57.07 0 103.34-46.258 103.34-103.34 0-57.07-46.266-103.34-103.34-103.34zm54.996 103.34c0 30.371-24.629 54.996-54.996 54.996-30.371 0-54.996-24.625-54.996-54.996 0-30.367 24.625-54.988 54.996-54.988 30.367 0 54.996 24.621 54.996 54.988z" fill-rule="evenodd"></path>

      </g>
      </svg>