<svg id="svg" fill="#384938" stroke="#384938" width="200" height="200" version="1.1" viewBox="144 144 512 512" xmlns="http://www.w3.org/2000/svg">
    <g id="IconSvg_bgCarrier" stroke-width="0"></g>
    <g id="IconSvg_tracerCarrier" stroke-linecap="round" stroke-linejoin="round" stroke="#CCCCCC" stroke-width="0">
      <g xmlns="http://www.w3.org/2000/svg">
  <path d="m504.64 394.11c0-13.379-10.844-24.223-24.223-24.223h-166.64c-13.379 0-24.223 10.844-24.223 24.223 0 13.375 10.844 24.223 24.223 24.223h166.64c13.375-0.003906 24.223-10.848 24.223-24.223z"></path>
  <path d="m584.53 344.28h-6.332v-41.312c0-32.891-26.758-59.645-59.645-59.645h-240.99c-32.891 0-59.645 26.758-59.645 59.645v41.312h-11.203c-27.984 0-49.902 26.199-49.902 59.645v100.19c0 15.895 6.2148 30.859 17.5 42.145 7.8828 7.8828 17.57 13.281 28.109 15.828v19.961c0 13.375 10.844 24.223 24.223 24.223 13.375 0 24.223-10.844 24.223-24.223v-18.289h297.05v18.289c0 13.375 10.844 24.223 24.223 24.223 13.375 0 24.223-10.844 24.223-24.223v-20.684c24.785-7.2383 42.953-30.156 42.953-57.25v-100.19c-0.007812-32.887-24.582-59.645-54.785-59.645zm-379.27 59.645c0-5.8477 2-9.7148 3.2305-11.203h9.4336v74.969c0 13.375 10.844 24.223 24.223 24.223h174.32c13.375 0 24.223-10.844 24.223-24.223 0-13.375-10.844-24.223-24.223-24.223h-150.11v-140.5c0-6.0703 5.1289-11.203 11.203-11.203h240.99c6.0742 0 11.203 5.1289 11.203 11.203v140.5h-33.844c-13.375 0-24.223 10.844-24.223 24.223 0 13.375 10.844 24.223 24.223 24.223h58.062c13.375 0 24.223-10.844 24.223-24.223v-74.965h6.332c2.2305 0 6.332 4.25 6.332 11.199v100.19c0 6.0703-5.1289 11.199-11.203 11.199h-363.21c-3.9844 0-6.6523-2.0742-7.8906-3.3086-1.2344-1.2383-3.3086-3.9062-3.3086-7.8906z"></path>
 </g>

      </g>
     <g id="IconSvg_iconCarrier">
      <g xmlns="http://www.w3.org/2000/svg">
  <path d="m504.64 394.11c0-13.379-10.844-24.223-24.223-24.223h-166.64c-13.379 0-24.223 10.844-24.223 24.223 0 13.375 10.844 24.223 24.223 24.223h166.64c13.375-0.003906 24.223-10.848 24.223-24.223z"></path>
  <path d="m584.53 344.28h-6.332v-41.312c0-32.891-26.758-59.645-59.645-59.645h-240.99c-32.891 0-59.645 26.758-59.645 59.645v41.312h-11.203c-27.984 0-49.902 26.199-49.902 59.645v100.19c0 15.895 6.2148 30.859 17.5 42.145 7.8828 7.8828 17.57 13.281 28.109 15.828v19.961c0 13.375 10.844 24.223 24.223 24.223 13.375 0 24.223-10.844 24.223-24.223v-18.289h297.05v18.289c0 13.375 10.844 24.223 24.223 24.223 13.375 0 24.223-10.844 24.223-24.223v-20.684c24.785-7.2383 42.953-30.156 42.953-57.25v-100.19c-0.007812-32.887-24.582-59.645-54.785-59.645zm-379.27 59.645c0-5.8477 2-9.7148 3.2305-11.203h9.4336v74.969c0 13.375 10.844 24.223 24.223 24.223h174.32c13.375 0 24.223-10.844 24.223-24.223 0-13.375-10.844-24.223-24.223-24.223h-150.11v-140.5c0-6.0703 5.1289-11.203 11.203-11.203h240.99c6.0742 0 11.203 5.1289 11.203 11.203v140.5h-33.844c-13.375 0-24.223 10.844-24.223 24.223 0 13.375 10.844 24.223 24.223 24.223h58.062c13.375 0 24.223-10.844 24.223-24.223v-74.965h6.332c2.2305 0 6.332 4.25 6.332 11.199v100.19c0 6.0703-5.1289 11.199-11.203 11.199h-363.21c-3.9844 0-6.6523-2.0742-7.8906-3.3086-1.2344-1.2383-3.3086-3.9062-3.3086-7.8906z"></path>
 </g>

      </g>
      </svg>