<svg id="svg" fill="#384938" stroke="#384938" width="200" height="200" version="1.1" viewBox="84 84 632 632" xmlns="http://www.w3.org/2000/svg" stroke-width="10">
    <g id="IconSvg_bgCarrier" stroke-width="0"></g>
    <g id="IconSvg_tracerCarrier" stroke-linecap="round" stroke-linejoin="round" stroke="#CCCCCC" stroke-width="0">
      <path xmlns="http://www.w3.org/2000/svg" d="m326.67 468.79-1.8086 161.57 145.55 1.6523 1.8359-161.57-145.55-1.6797zm181.93-15.992c0.054688-4.7891-1.7969-9.4023-5.1445-12.828-3.3477-3.4258-7.918-5.3789-12.707-5.4336l-181.7-2.0664c-4.793-0.054688-9.4062 1.7969-12.832 5.1445-3.4258 3.3516-5.3828 7.9219-5.4336 12.715l-2.0312 179.62-78.145-0.88281 2.5977-229.22 186.55-148.48 186.41 153.08-2.5977 228.84-77.02-0.875zm-97.207-238.6 216.77 178.01 16.02-15.676-241.84-209.82-246.51 204.32 15.574 15.926 217.29-172.94c3.2344-2.5703 7.2539-3.957 11.383-3.9258 4.1328 0.03125 8.1289 1.4805 11.324 4.1016z" fill-rule="evenodd"></path>

      </g>
     <g id="IconSvg_iconCarrier">
      <path xmlns="http://www.w3.org/2000/svg" d="m326.67 468.79-1.8086 161.57 145.55 1.6523 1.8359-161.57-145.55-1.6797zm181.93-15.992c0.054688-4.7891-1.7969-9.4023-5.1445-12.828-3.3477-3.4258-7.918-5.3789-12.707-5.4336l-181.7-2.0664c-4.793-0.054688-9.4062 1.7969-12.832 5.1445-3.4258 3.3516-5.3828 7.9219-5.4336 12.715l-2.0312 179.62-78.145-0.88281 2.5977-229.22 186.55-148.48 186.41 153.08-2.5977 228.84-77.02-0.875zm-97.207-238.6 216.77 178.01 16.02-15.676-241.84-209.82-246.51 204.32 15.574 15.926 217.29-172.94c3.2344-2.5703 7.2539-3.957 11.383-3.9258 4.1328 0.03125 8.1289 1.4805 11.324 4.1016z" fill-rule="evenodd"></path>

      </g>
      </svg>