<svg id="svg" fill="#384938" stroke="#384938" width="200" height="200" version="1.1" viewBox="144 144 512 512" xmlns="http://www.w3.org/2000/svg">
    <g id="IconSvg_bgCarrier" stroke-width="0"></g>
    <g id="IconSvg_tracerCarrier" stroke-linecap="round" stroke-linejoin="round" stroke="#CCCCCC" stroke-width="0">
      <g xmlns="http://www.w3.org/2000/svg" fill-rule="evenodd">
  <path d="m576.24 316.05c0 44.34-35.945 80.281-80.281 80.281-44.336 0-80.281-35.941-80.281-80.281 0-44.336 35.945-80.281 80.281-80.281 44.336 0 80.281 35.945 80.281 80.281"></path>
  <path d="m451.73 401.81h5.707c8.9258 11.473 22.863 18.852 38.523 18.852 15.66 0 29.598-7.3828 38.523-18.852h5.707c44.664 0 81.211 36.543 81.211 81.211v81.211h-250.88v-81.211c0-44.664 36.543-81.211 81.211-81.211z"></path>
  <path d="m304.04 235.77c44.336 0 80.281 35.941 80.281 80.281 0 44.336-35.941 80.281-80.281 80.281-44.336 0-80.281-35.941-80.281-80.281 0-44.336 35.941-80.281 80.281-80.281z"></path>
  <path d="m362.61 564.23h-184.02v-81.211c0-44.664 36.543-81.211 81.211-81.211h5.707c8.9258 11.473 22.863 18.852 38.523 18.852 15.66 0 29.598-7.3828 38.523-18.852h5.707c16.715 0 32.293 5.1211 45.242 13.867-18.898 16.371-30.898 40.52-30.898 67.34z"></path>
 </g>

      </g>
     <g id="IconSvg_iconCarrier">
      <g xmlns="http://www.w3.org/2000/svg" fill-rule="evenodd">
  <path d="m576.24 316.05c0 44.34-35.945 80.281-80.281 80.281-44.336 0-80.281-35.941-80.281-80.281 0-44.336 35.945-80.281 80.281-80.281 44.336 0 80.281 35.945 80.281 80.281"></path>
  <path d="m451.73 401.81h5.707c8.9258 11.473 22.863 18.852 38.523 18.852 15.66 0 29.598-7.3828 38.523-18.852h5.707c44.664 0 81.211 36.543 81.211 81.211v81.211h-250.88v-81.211c0-44.664 36.543-81.211 81.211-81.211z"></path>
  <path d="m304.04 235.77c44.336 0 80.281 35.941 80.281 80.281 0 44.336-35.941 80.281-80.281 80.281-44.336 0-80.281-35.941-80.281-80.281 0-44.336 35.941-80.281 80.281-80.281z"></path>
  <path d="m362.61 564.23h-184.02v-81.211c0-44.664 36.543-81.211 81.211-81.211h5.707c8.9258 11.473 22.863 18.852 38.523 18.852 15.66 0 29.598-7.3828 38.523-18.852h5.707c16.715 0 32.293 5.1211 45.242 13.867-18.898 16.371-30.898 40.52-30.898 67.34z"></path>
 </g>

      </g>
      </svg>