<svg id="svg" fill="#384938" stroke="#384938" width="200" height="200" version="1.1" viewBox="99 99 602 602" xmlns="http://www.w3.org/2000/svg">
    <g id="IconSvg_bgCarrier" stroke-width="0"></g>
    <g id="IconSvg_tracerCarrier" stroke-linecap="round" stroke-linejoin="round" stroke="#CCCCCC" stroke-width="0">
      <g xmlns="http://www.w3.org/2000/svg">
  <path d="m617.34 495.02c-7.8203 10.062-19.949 15.824-32.691 15.527-12.742-0.29297-24.59-6.6094-31.938-17.023l-1.6523-2.2031v-0.003906c-9.3789-12.953-21.098-24.031-34.559-32.668-21.926-13.469-47.438-19.922-73.129-18.5-4.3477 1.1328-8.7891-1.4766-9.9219-5.8242-1.1289-4.3477 1.4805-8.7891 5.8281-9.918l4.25-2.2031c32.039-16.375 68.406-11.57 101.16 3.2266 3.1719 1.543 6.9961 0.22266 8.5391-2.9531 1.543-3.1719 0.22266-6.9961-2.9492-8.5391-36.453-18.617-79.527-19.055-116.35-1.1836-1.0625 0.53516-2.3555 0.25-3.0977-0.68359-0.74219-0.92969-0.73047-2.2539 0.027344-3.1719 3.0977-3.7852 6.5234-7.2891 10.234-10.469 2.5195-2.125 5.1953-4.1719 7.8711-6.2969v-0.003906c5.3711-3.8047 10.379-8.1016 14.957-12.828 8.7227-8.4492 12.445-20.812 9.8398-32.672-0.97656-3.3906-4.5195-5.3477-7.9102-4.3672-3.3906 0.97656-5.3477 4.5195-4.3672 7.9102 1.1094 7.5547-1.5 15.18-7.0078 20.469-4.0625 4.1406-8.4883 7.9062-13.227 11.258-2.832 2.125-5.8242 4.3281-8.582 6.7695h0.003907c-12.988 11.059-22.797 25.379-28.418 41.484-0.33203 1.0039-0.96484 1.8828-1.8125 2.5195l-6.2969 4.6445-0.78906 0.62891h0.003907c-10.887 8.8594-22.5 16.785-34.719 23.695l-4.9609 2.3633c-23.617 8.6602-54.633-5.2734-59.355-29.992v-1.1016l0.003907-0.003906c-1.7734-9.7344-1.7734-19.707 0-29.441 1.6602-9.6211 1.8711-19.438 0.62891-29.125-0.5-3.9492-1.2383-7.8672-2.2031-11.73 0.55859-11.082 6.418-21.219 15.742-27.234 7.1797-5.0234 14.859-9.2969 22.91-12.754 4.0156-1.8906 7.8711-3.8555 12.203-5.9844h-0.003907c1.6445-0.87109 2.8281-2.418 3.2383-4.2344 0.40625-1.8164 0-3.7188-1.1133-5.2109-2.0273-2.7539-5.8398-3.4766-8.7344-1.6523-3.6992 1.9688-7.8711 3.8555-11.492 5.668h-0.003906c-8.832 3.8203-17.246 8.543-25.109 14.09-3.7656 2.8633-7.1758 6.168-10.156 9.8398-1.0938 1.5156-2.8516 2.4141-4.7227 2.4141-1.8711 0-3.6289-0.89844-4.7227-2.4141-2.125-3.3281-4.4648-6.5078-7.0078-9.5234-1.7305-2.0469-3.543-4.0156-5.2734-5.9844-7.2422-7.8711-14.09-15.742-14.012-24.324 0-3.5234-2.8555-6.375-6.3789-6.375-3.5195 0-6.375 2.8516-6.375 6.375 0 13.777 9.1328 23.617 17.32 33.062 1.7305 1.9688 3.3867 3.7773 4.9609 5.668h-0.003906c7.5078 9.2031 12.887 19.957 15.746 31.488v0.78906-0.003906c0.085937 0.65625 0.27344 1.293 0.55078 1.8906 1.375 6.0977 2.0898 12.328 2.125 18.578-0.14453 4.4141-2.1367 8.5664-5.4883 11.438-3.3555 2.875-7.7617 4.2109-12.145 3.6758-11.176-2.5117-22.168-5.7734-32.906-9.7617-51.797-19.129-87.93-62.977-72.5-121.94 17.711-67.621 86.594-99.977 149.57-105.8l-0.003906 0.003906c42.969-3.7227 86.25-0.96094 128.39 8.1836l1.8125 0.94531h-0.003906c6.9062 7.9219 9.2031 18.863 6.0625 28.891-6.0625 11.18-20.625 15.191-32.273 15.273-8.4688-0.23828-16.895-1.2148-25.191-2.9141-5.9844-1.0234-12.203-2.125-18.5-2.6758-19.918-1.8125-36.449 2.9922-46.602 13.539-2.2812 2.3398-2.4844 6.0039-0.47266 8.582 1.2109 1.3867 2.9609 2.1797 4.8008 2.1797 1.8398 0 3.5898-0.79297 4.8008-2.1797 9.9961-10.469 27.078-10.629 36.367-9.8398 5.7461 0.55078 11.492 1.4961 17.477 2.5195h0.003906c2.3867 0.42969 4.2695 2.2852 4.7383 4.6641 0.46875 2.3828-0.56641 4.8125-2.6133 6.1172-1.418 0.94531-2.9141 1.8906-4.25 2.9922-5.3594 3.7656-9.5039 9.0078-11.938 15.086-2.4336 6.082-3.043 12.738-1.7617 19.156 0.76953 2.8672 3.4102 4.8242 6.375 4.7266 1.9023-0.089844 3.668-1.0234 4.8086-2.5469 1.1445-1.5234 1.5469-3.4766 1.0977-5.3281-0.5-3.9688 0.10156-8 1.7383-11.652 1.6406-3.6523 4.25-6.7852 7.5508-9.0508 7.3398-5.1562 15.555-8.9453 24.246-11.176l2.4414-0.86719h-0.003907c11.203-3.0508 21.496-8.7773 29.996-16.688 5.7812-6.2695 9.4453-14.203 10.469-22.672 0.60156-5.1328 3.5664-9.6875 8.0156-12.316 4.4492-2.625 9.8711-3.0195 14.656-1.0664 53.832 22.238 98.328 62.395 125.95 113.67 1.332 2.5508 0.88281 5.6719-1.1172 7.7422s-5.1016 2.6289-7.6992 1.3906c-2.5195-1.1016-5.1172-2.2031-7.8711-3.1484-7.5156-2.6367-15.266-4.5586-23.145-5.75-4.7461-3.9414-8.6992-8.75-11.648-14.168-1.5742-2.4414-3.2266-5.0391-5.0391-7.8711-9.4336-12.781-22.828-22.082-38.102-26.449-1.7148-0.44531-3.5391-0.15625-5.0352 0.80078-1.4922 0.95703-2.5195 2.4922-2.8359 4.2344-0.52734 3.2656 1.4688 6.4102 4.6445 7.3203 12.609 3.5234 23.688 11.137 31.488 21.648 1.5742 2.125 3.0703 4.4102 4.5664 6.8477v0.003906c0.66406 1.0508 0.69922 2.3789 0.09375 3.4648-0.60938 1.0859-1.7617 1.75-3.0078 1.7305-7.8711 0-15.742 0-22.199 0.78906h-4.0938v-0.003906c-8.7031 1.1016-17.508 1.1016-26.211 0-8.7891-1.0156-16.637-5.9688-21.336-13.461-1.6289-3.1289-5.4883-4.3438-8.6172-2.7148-3.1328 1.6289-4.3477 5.4883-2.7188 8.6211 6.4609 11.062 17.684 18.504 30.387 20.152 9.7734 1.2578 19.668 1.2578 29.441 0h4.0156c14.211-1.2383 28.512-0.97266 42.668 0.78516h1.4961-0.003906c7.2109 1.0547 14.301 2.7969 21.176 5.1953 18.406 6.0195 33.863 18.754 43.297 35.66 21.57 71.242 6.1406 115.72-14.406 142.25z"></path>
  <path d="m550.36 512.57c-0.52734 2.1016-1.1562 4.1758-1.8906 6.2188-9.7617 26.844-30.465 25.426-42.824 21.727-0.69141-0.85547-1.4258-1.668-2.2031-2.4414-3.9844-3.7695-8.3672-7.0938-13.066-9.918-2.5977-1.7305-5.1172-3.3047-7.3984-5.0391-15.742-11.887-22.672-17.004-17.871-35.816 0.89063-3.4141-1.1562-6.9023-4.5664-7.793-3.4141-0.89453-6.9023 1.1523-7.793 4.5625-6.1406 23.617 3.0703 34.164 22.355 49.121 2.6758 2.125 5.5117 3.9375 7.8711 5.668 2.3633 1.7305 5.1172 3.3047 7.3984 5.1172h0.003906c-1.043 1.0859-2.1484 2.1133-3.3086 3.0703-13.496 10.703-21.215 27.098-20.859 44.32l1.3398 30.699h-0.003907c0.17188 3.8398-1.1797 7.5898-3.7578 10.434-2.582 2.8477-6.1797 4.5586-10.016 4.7617-3.957 0.32422-7.875-0.98047-10.844-3.6094-2.9727-2.6289-4.7422-6.3594-4.9023-10.324-1.3398-27.395-7.8711-84.152-36.449-90.922h0.003907c-8.7422-2.043-16.637-6.7461-22.594-13.461 10.852-10.309 25.645-15.395 40.539-13.934 3.5 0.41406 6.6719-2.0898 7.0859-5.5898 0.41406-3.5-2.0898-6.6719-5.5898-7.0859-18.047-1.7812-36.016 4.1055-49.516 16.219-5.2773-9.8086-8.793-20.465-10.391-31.488 15-7.4531 29.148-16.504 42.195-27l7.0078-5.1953 1.6523-1.3398c1.668-1.5547 3.9648-2.2539 6.2188-1.8906 1.9883 0.33984 3.75 1.4805 4.8789 3.1484 2.2031 3.4062 5.2773 6.1602 8.9062 7.9766 3.625 1.8125 7.6719 2.6211 11.719 2.3359 18.891-1.332 37.797 2.3281 54.82 10.621 17.027 8.2891 31.566 20.918 42.164 36.613 2.7852 3.8047 6.0352 7.2422 9.6836 10.234z"></path>
 </g>

      </g>
     <g id="IconSvg_iconCarrier">
      <g xmlns="http://www.w3.org/2000/svg">
  <path d="m617.34 495.02c-7.8203 10.062-19.949 15.824-32.691 15.527-12.742-0.29297-24.59-6.6094-31.938-17.023l-1.6523-2.2031v-0.003906c-9.3789-12.953-21.098-24.031-34.559-32.668-21.926-13.469-47.438-19.922-73.129-18.5-4.3477 1.1328-8.7891-1.4766-9.9219-5.8242-1.1289-4.3477 1.4805-8.7891 5.8281-9.918l4.25-2.2031c32.039-16.375 68.406-11.57 101.16 3.2266 3.1719 1.543 6.9961 0.22266 8.5391-2.9531 1.543-3.1719 0.22266-6.9961-2.9492-8.5391-36.453-18.617-79.527-19.055-116.35-1.1836-1.0625 0.53516-2.3555 0.25-3.0977-0.68359-0.74219-0.92969-0.73047-2.2539 0.027344-3.1719 3.0977-3.7852 6.5234-7.2891 10.234-10.469 2.5195-2.125 5.1953-4.1719 7.8711-6.2969v-0.003906c5.3711-3.8047 10.379-8.1016 14.957-12.828 8.7227-8.4492 12.445-20.812 9.8398-32.672-0.97656-3.3906-4.5195-5.3477-7.9102-4.3672-3.3906 0.97656-5.3477 4.5195-4.3672 7.9102 1.1094 7.5547-1.5 15.18-7.0078 20.469-4.0625 4.1406-8.4883 7.9062-13.227 11.258-2.832 2.125-5.8242 4.3281-8.582 6.7695h0.003907c-12.988 11.059-22.797 25.379-28.418 41.484-0.33203 1.0039-0.96484 1.8828-1.8125 2.5195l-6.2969 4.6445-0.78906 0.62891h0.003907c-10.887 8.8594-22.5 16.785-34.719 23.695l-4.9609 2.3633c-23.617 8.6602-54.633-5.2734-59.355-29.992v-1.1016l0.003907-0.003906c-1.7734-9.7344-1.7734-19.707 0-29.441 1.6602-9.6211 1.8711-19.438 0.62891-29.125-0.5-3.9492-1.2383-7.8672-2.2031-11.73 0.55859-11.082 6.418-21.219 15.742-27.234 7.1797-5.0234 14.859-9.2969 22.91-12.754 4.0156-1.8906 7.8711-3.8555 12.203-5.9844h-0.003907c1.6445-0.87109 2.8281-2.418 3.2383-4.2344 0.40625-1.8164 0-3.7188-1.1133-5.2109-2.0273-2.7539-5.8398-3.4766-8.7344-1.6523-3.6992 1.9688-7.8711 3.8555-11.492 5.668h-0.003906c-8.832 3.8203-17.246 8.543-25.109 14.09-3.7656 2.8633-7.1758 6.168-10.156 9.8398-1.0938 1.5156-2.8516 2.4141-4.7227 2.4141-1.8711 0-3.6289-0.89844-4.7227-2.4141-2.125-3.3281-4.4648-6.5078-7.0078-9.5234-1.7305-2.0469-3.543-4.0156-5.2734-5.9844-7.2422-7.8711-14.09-15.742-14.012-24.324 0-3.5234-2.8555-6.375-6.3789-6.375-3.5195 0-6.375 2.8516-6.375 6.375 0 13.777 9.1328 23.617 17.32 33.062 1.7305 1.9688 3.3867 3.7773 4.9609 5.668h-0.003906c7.5078 9.2031 12.887 19.957 15.746 31.488v0.78906-0.003906c0.085937 0.65625 0.27344 1.293 0.55078 1.8906 1.375 6.0977 2.0898 12.328 2.125 18.578-0.14453 4.4141-2.1367 8.5664-5.4883 11.438-3.3555 2.875-7.7617 4.2109-12.145 3.6758-11.176-2.5117-22.168-5.7734-32.906-9.7617-51.797-19.129-87.93-62.977-72.5-121.94 17.711-67.621 86.594-99.977 149.57-105.8l-0.003906 0.003906c42.969-3.7227 86.25-0.96094 128.39 8.1836l1.8125 0.94531h-0.003906c6.9062 7.9219 9.2031 18.863 6.0625 28.891-6.0625 11.18-20.625 15.191-32.273 15.273-8.4688-0.23828-16.895-1.2148-25.191-2.9141-5.9844-1.0234-12.203-2.125-18.5-2.6758-19.918-1.8125-36.449 2.9922-46.602 13.539-2.2812 2.3398-2.4844 6.0039-0.47266 8.582 1.2109 1.3867 2.9609 2.1797 4.8008 2.1797 1.8398 0 3.5898-0.79297 4.8008-2.1797 9.9961-10.469 27.078-10.629 36.367-9.8398 5.7461 0.55078 11.492 1.4961 17.477 2.5195h0.003906c2.3867 0.42969 4.2695 2.2852 4.7383 4.6641 0.46875 2.3828-0.56641 4.8125-2.6133 6.1172-1.418 0.94531-2.9141 1.8906-4.25 2.9922-5.3594 3.7656-9.5039 9.0078-11.938 15.086-2.4336 6.082-3.043 12.738-1.7617 19.156 0.76953 2.8672 3.4102 4.8242 6.375 4.7266 1.9023-0.089844 3.668-1.0234 4.8086-2.5469 1.1445-1.5234 1.5469-3.4766 1.0977-5.3281-0.5-3.9688 0.10156-8 1.7383-11.652 1.6406-3.6523 4.25-6.7852 7.5508-9.0508 7.3398-5.1562 15.555-8.9453 24.246-11.176l2.4414-0.86719h-0.003907c11.203-3.0508 21.496-8.7773 29.996-16.688 5.7812-6.2695 9.4453-14.203 10.469-22.672 0.60156-5.1328 3.5664-9.6875 8.0156-12.316 4.4492-2.625 9.8711-3.0195 14.656-1.0664 53.832 22.238 98.328 62.395 125.95 113.67 1.332 2.5508 0.88281 5.6719-1.1172 7.7422s-5.1016 2.6289-7.6992 1.3906c-2.5195-1.1016-5.1172-2.2031-7.8711-3.1484-7.5156-2.6367-15.266-4.5586-23.145-5.75-4.7461-3.9414-8.6992-8.75-11.648-14.168-1.5742-2.4414-3.2266-5.0391-5.0391-7.8711-9.4336-12.781-22.828-22.082-38.102-26.449-1.7148-0.44531-3.5391-0.15625-5.0352 0.80078-1.4922 0.95703-2.5195 2.4922-2.8359 4.2344-0.52734 3.2656 1.4688 6.4102 4.6445 7.3203 12.609 3.5234 23.688 11.137 31.488 21.648 1.5742 2.125 3.0703 4.4102 4.5664 6.8477v0.003906c0.66406 1.0508 0.69922 2.3789 0.09375 3.4648-0.60938 1.0859-1.7617 1.75-3.0078 1.7305-7.8711 0-15.742 0-22.199 0.78906h-4.0938v-0.003906c-8.7031 1.1016-17.508 1.1016-26.211 0-8.7891-1.0156-16.637-5.9688-21.336-13.461-1.6289-3.1289-5.4883-4.3438-8.6172-2.7148-3.1328 1.6289-4.3477 5.4883-2.7188 8.6211 6.4609 11.062 17.684 18.504 30.387 20.152 9.7734 1.2578 19.668 1.2578 29.441 0h4.0156c14.211-1.2383 28.512-0.97266 42.668 0.78516h1.4961-0.003906c7.2109 1.0547 14.301 2.7969 21.176 5.1953 18.406 6.0195 33.863 18.754 43.297 35.66 21.57 71.242 6.1406 115.72-14.406 142.25z"></path>
  <path d="m550.36 512.57c-0.52734 2.1016-1.1562 4.1758-1.8906 6.2188-9.7617 26.844-30.465 25.426-42.824 21.727-0.69141-0.85547-1.4258-1.668-2.2031-2.4414-3.9844-3.7695-8.3672-7.0938-13.066-9.918-2.5977-1.7305-5.1172-3.3047-7.3984-5.0391-15.742-11.887-22.672-17.004-17.871-35.816 0.89063-3.4141-1.1562-6.9023-4.5664-7.793-3.4141-0.89453-6.9023 1.1523-7.793 4.5625-6.1406 23.617 3.0703 34.164 22.355 49.121 2.6758 2.125 5.5117 3.9375 7.8711 5.668 2.3633 1.7305 5.1172 3.3047 7.3984 5.1172h0.003906c-1.043 1.0859-2.1484 2.1133-3.3086 3.0703-13.496 10.703-21.215 27.098-20.859 44.32l1.3398 30.699h-0.003907c0.17188 3.8398-1.1797 7.5898-3.7578 10.434-2.582 2.8477-6.1797 4.5586-10.016 4.7617-3.957 0.32422-7.875-0.98047-10.844-3.6094-2.9727-2.6289-4.7422-6.3594-4.9023-10.324-1.3398-27.395-7.8711-84.152-36.449-90.922h0.003907c-8.7422-2.043-16.637-6.7461-22.594-13.461 10.852-10.309 25.645-15.395 40.539-13.934 3.5 0.41406 6.6719-2.0898 7.0859-5.5898 0.41406-3.5-2.0898-6.6719-5.5898-7.0859-18.047-1.7812-36.016 4.1055-49.516 16.219-5.2773-9.8086-8.793-20.465-10.391-31.488 15-7.4531 29.148-16.504 42.195-27l7.0078-5.1953 1.6523-1.3398c1.668-1.5547 3.9648-2.2539 6.2188-1.8906 1.9883 0.33984 3.75 1.4805 4.8789 3.1484 2.2031 3.4062 5.2773 6.1602 8.9062 7.9766 3.625 1.8125 7.6719 2.6211 11.719 2.3359 18.891-1.332 37.797 2.3281 54.82 10.621 17.027 8.2891 31.566 20.918 42.164 36.613 2.7852 3.8047 6.0352 7.2422 9.6836 10.234z"></path>
 </g>

      </g>
      </svg>