<?xml version="1.0" encoding="utf-8"?>
<!-- Generator: Adobe Illustrator 26.0.0, SVG Export Plug-In . SVG Version: 6.00 Build 0)  -->
<svg version="1.1" id="Layer_1" xmlns="http://www.w3.org/2000/svg" xmlns:xlink="http://www.w3.org/1999/xlink" x="0px" y="0px"
	 viewBox="0 0 24 24" style="enable-background:new 0 0 24 24;" xml:space="preserve">
<style type="text/css">
	.st0{fill:#E89F0A}
</style>
<path class="st0" d="M4,4C2.9,4,2,4.9,2,6v1.7l1,0.6L4,9l8,5l8-5l1-0.6l1-0.6V6c0-1.1-0.9-2-2-2H4z M4,6h16v0.8l-8,5l-8-5V6z
	 M2,10.1V18c0,1.1,0.9,2,2,2h16c1.1,0,2-0.9,2-2v-7.9l-2,1.2V18H4v-6.7L2,10.1z"/>
</svg>
