<?xml version="1.0" standalone="no"?>
<!DOCTYPE svg PUBLIC "-//W3C//DTD SVG 20010904//EN"
"http://www.w3.org/TR/2001/REC-SVG-20010904/DTD/svg10.dtd">
<svg version="1.0" xmlns="http://www.w3.org/2000/svg"
width="50.000000pt" height="50.000000pt" viewBox="0 0 256.000000 256.000000"
preserveAspectRatio="xMidYMid meet">

<g transform="translate(0.000000,256.000000) scale(0.100000,-0.100000)"
fill="#4C4C4C" stroke="none">
<path d="M100 2460 c-43 -43 -7 -120 56 -120 l24 0 0 -1060 0 -1060 -30 0
c-65 0 -94 -79 -44 -119 27 -21 28 -21 1176 -21 l1149 0 24 25 c14 13 25 33
25 43 0 30 -38 72 -66 72 l-24 0 0 660 0 660 25 0 c32 0 65 33 65 64 0 13 -9
34 -19 47 l-19 24 -406 3 -406 3 0 -731 0 -730 -70 0 -70 0 0 1060 0 1060 25
0 c30 0 75 41 75 68 0 11 -9 31 -21 46 l-20 26 -715 0 c-701 0 -714 0 -734
-20z m484 -281 c25 -19 26 -25 26 -110 0 -101 -15 -129 -69 -129 -49 0 -71 39
-70 124 1 84 7 104 40 122 33 18 42 17 73 -7z m290 0 c25 -19 26 -25 26 -114
0 -86 -2 -95 -22 -109 -34 -24 -73 -20 -97 10 -17 21 -21 41 -21 95 0 76 12
112 44 127 31 15 40 14 70 -9z m290 0 c25 -19 26 -25 26 -111 0 -105 -12 -128
-65 -128 -50 0 -69 29 -73 111 -5 78 8 121 41 137 32 15 41 14 71 -9z m-571
-407 c14 -12 17 -32 17 -104 0 -100 -15 -128 -69 -128 -48 0 -71 39 -71 119 0
90 8 111 43 126 33 14 52 11 80 -13z m290 0 c14 -12 17 -32 17 -105 0 -104
-12 -127 -66 -127 -51 0 -74 37 -74 121 0 80 13 115 49 127 29 10 48 6 74 -16z
m290 0 c14 -12 17 -32 17 -105 0 -104 -12 -127 -66 -127 -51 0 -74 37 -74 121
0 80 13 115 49 127 29 10 48 6 74 -16z m-589 -393 c25 -19 26 -25 26 -110 0
-101 -15 -129 -69 -129 -50 0 -71 38 -71 132 0 70 3 82 25 103 30 30 54 31 89
4z m290 0 c25 -19 26 -25 26 -110 0 -76 -3 -92 -20 -109 -27 -27 -66 -25 -96
6 -25 24 -26 30 -23 110 4 76 7 88 28 105 30 24 52 24 85 -2z m279 10 c34 -18
37 -28 37 -121 0 -75 -3 -91 -20 -108 -25 -25 -61 -26 -91 -1 -20 16 -24 30
-27 92 -4 84 8 126 40 139 31 12 36 12 61 -1z m751 -10 c25 -19 26 -25 26
-110 0 -76 -3 -92 -20 -109 -27 -27 -66 -25 -96 6 -25 24 -26 30 -23 110 4 76
7 88 28 105 30 24 52 24 85 -2z m279 10 c34 -18 37 -28 37 -121 0 -75 -3 -91
-20 -108 -25 -25 -61 -26 -91 -1 -20 16 -24 30 -27 92 -4 84 8 126 40 139 31
12 36 12 61 -1z m-1599 -410 c25 -19 26 -25 26 -110 0 -101 -15 -129 -69 -129
-49 0 -71 39 -71 127 0 81 10 110 43 123 33 13 42 12 71 -11z m290 0 c25 -19
26 -25 26 -110 0 -101 -15 -129 -69 -129 -49 0 -71 39 -71 127 0 81 10 110 43
123 33 13 42 12 71 -11z m290 0 c25 -19 26 -25 26 -110 0 -101 -15 -129 -69
-129 -48 0 -71 39 -71 121 0 81 12 116 42 129 34 13 43 12 72 -11z m740 0 c25
-19 26 -25 26 -110 0 -101 -15 -129 -69 -129 -49 0 -71 39 -71 127 0 81 10
110 43 123 33 13 42 12 71 -11z m290 0 c25 -19 26 -25 26 -110 0 -101 -15
-129 -69 -129 -48 0 -71 39 -71 121 0 81 12 116 42 129 34 13 43 12 72 -11z
m-1607 -401 c22 -21 23 -27 23 -190 l0 -168 -70 0 -70 0 0 165 c0 163 0 166
25 190 30 31 62 32 92 3z m291 2 c21 -20 22 -29 22 -190 l0 -170 -70 0 -70 0
0 165 c0 163 0 166 25 190 29 30 64 32 93 5z m292 0 c18 -18 20 -33 20 -190
l0 -170 -70 0 -70 0 0 165 c0 163 0 166 25 190 29 30 68 32 95 5z m740 -30
c18 -18 20 -33 20 -175 l0 -155 -70 0 -70 0 0 150 c0 147 1 152 25 175 29 30
68 32 95 5z m290 0 c18 -18 20 -33 20 -175 l0 -155 -71 0 -70 0 3 156 c3 150
4 157 27 175 30 25 66 24 91 -1z"/>
</g>
</svg>