<svg version="1.1" id="Layer_1" xmlns="http://www.w3.org/2000/svg" xmlns:xlink="http://www.w3.org/1999/xlink" x="0px" y="0px"
	 width="60px" height="60px" viewBox="0 0 512 512" enable-background="new 0 0 512 512" xml:space="preserve">
<path fill="#4C4C4C" opacity="1.000000" stroke="none"
	d="
M513.000000,64.000000
	C513.000000,198.023331 513.000000,332.046661 512.632446,466.649902
	C509.886566,476.933899 503.735291,482.901825 494.145355,485.370728
	C476.946777,489.798584 461.850586,476.993103 461.891296,461.147308
	C462.117828,373.021210 462.000000,284.894226 462.000000,196.767563
	C462.000000,194.978302 462.000000,193.189041 462.000000,191.308929
	C325.133636,191.308929 188.654495,191.308929 52.000000,191.308929
	C52.000000,193.433365 52.000000,195.249893 52.000000,197.066422
	C52.000000,285.193085 52.059517,373.319916 51.829464,461.445984
	C51.817593,465.994049 50.181206,471.042938 47.834606,474.985840
	C40.563007,487.204071 22.934942,489.765228 12.790231,482.054810
	C8.202782,478.568146 4.890691,473.403412 0.999998,469.000000
	C1.000000,333.976685 1.000000,198.953354 1.361771,63.357246
	C4.479799,57.214909 6.513203,51.113853 10.138508,46.183281
	C18.412001,34.930984 29.642580,28.053284 43.994877,28.045662
	C186.077774,27.970211 328.160706,27.971603 470.243622,28.043932
	C484.449188,28.051163 495.530396,35.048302 503.808350,45.948708
	C507.827148,51.240635 509.994507,57.938576 513.000000,64.000000
M72.500160,132.000000
	C65.725784,132.000000 58.951405,132.000000 52.287052,132.000000
	C52.287052,134.976547 52.287052,137.383926 52.287052,139.719345
	C188.985687,139.719345 325.397125,139.719345 461.712921,139.719345
	C461.712921,137.022629 461.712921,134.620590 461.712921,132.000000
	C332.117371,132.000000 202.808746,132.000000 72.500160,132.000000
M91.500000,162.000000
	C78.398811,162.000000 65.297623,162.000000 52.273247,162.000000
	C52.273247,164.619751 52.273247,166.691071 52.273247,168.636414
	C189.010834,168.636414 325.474945,168.636414 461.822449,168.636414
	C461.822449,166.314514 461.822449,164.362457 461.822449,162.000000
	C338.596985,162.000000 215.548492,162.000000 91.500000,162.000000
M62.523109,105.000000
	C59.074265,105.000000 55.625416,105.000000 52.268105,105.000000
	C52.268105,107.281525 52.268105,109.021744 52.268105,110.812546
	C188.893677,110.812546 325.251587,110.812546 461.804443,110.812546
	C461.804443,108.890495 461.804443,107.152428 461.804443,105.000000
	C328.945099,105.000000 196.231689,105.000000 62.523109,105.000000
z"/>
<path fill="#4C4C4C" opacity="1.000000" stroke="none"
	d="
M0.999998,469.468658
	C4.890691,473.403412 8.202782,478.568146 12.790231,482.054810
	C22.934942,489.765228 40.563007,487.204071 47.834606,474.985840
	C50.181206,471.042938 51.817593,465.994049 51.829464,461.445984
	C52.059517,373.319916 52.000000,285.193085 52.000000,197.066422
	C52.000000,195.249893 52.000000,193.433365 52.000000,191.308929
	C188.654495,191.308929 325.133636,191.308929 462.000000,191.308929
	C462.000000,193.189041 462.000000,194.978302 462.000000,196.767563
	C462.000000,284.894226 462.117828,373.021210 461.891296,461.147308
	C461.850586,476.993103 476.946777,489.798584 494.145355,485.370728
	C503.735291,482.901825 509.886566,476.933899 512.632446,467.114899
	C513.000000,482.322174 513.000000,497.644379 513.000000,512.959839
	C342.333313,512.953125 171.666656,512.953125 1.000000,512.953125
	C1.000000,498.583282 1.000000,484.260284 0.999998,469.468658
M93.297768,462.826233
	C96.682434,470.818481 102.736481,476.458099 111.046532,477.700104
	C119.196304,478.918213 127.799652,478.887146 135.968552,477.735138
	C145.957428,476.326477 154.655167,467.258026 155.050690,456.896912
	C155.287247,450.699921 156.001068,444.521118 156.508438,438.234070
	C223.533630,438.234070 290.604431,438.234070 357.493805,438.234070
	C358.006714,445.177185 358.534790,451.871216 358.988037,458.570343
	C359.633972,468.117462 371.441772,479.119507 381.679474,478.103333
	C387.455750,477.530029 393.338989,477.872650 399.168060,478.027649
	C409.859741,478.311981 421.801788,468.266968 421.847656,456.497314
	C421.966766,425.916443 421.664490,395.324005 420.859558,364.753815
	C420.466858,349.839935 416.214996,335.501953 411.338348,321.435791
	C428.460175,316.912262 434.264313,301.893280 429.581879,287.663971
	C428.331482,283.864227 424.294922,280.262207 420.631012,278.119080
	C411.837372,272.975464 403.171814,277.893829 394.392883,279.883820
	C391.601288,273.102234 388.763428,266.313416 386.007843,259.491364
	C380.814728,246.634705 376.325378,233.412811 364.313232,224.741608
	C355.891541,218.662292 346.880157,214.086288 336.350647,214.059799
	C284.185547,213.928604 232.019470,213.874786 179.854721,214.062592
	C159.433929,214.136093 144.503159,224.468491 135.242859,241.946411
	C128.839478,254.032150 124.572868,267.250000 119.425362,279.782013
	C114.546837,278.516541 109.779099,277.098694 104.929688,276.063446
	C97.242439,274.422394 86.433136,280.103882 84.317261,287.323212
	C81.124886,298.215454 82.391205,309.832062 94.284958,317.715973
	C96.728790,319.335907 99.525200,320.423950 102.007072,321.680176
	C100.374695,327.471191 98.681862,332.826294 97.366577,338.272583
	C94.226761,351.273865 91.765007,364.329803 91.917702,377.853607
	C92.203690,403.183136 91.969109,428.518250 92.044640,453.850769
	C92.052780,456.582336 92.678619,459.312073 93.157852,462.434448
M359.032806,261.275909
	C358.346436,259.144592 357.832672,256.937958 356.941406,254.896072
	C354.237640,248.701813 351.783936,242.428696 346.160522,237.955460
	C338.354095,231.745697 329.440521,229.955078 319.791870,229.972549
	C282.461609,230.040085 245.130966,229.941513 207.800858,230.045486
	C199.556213,230.068451 191.257294,230.185440 183.084946,231.134155
	C174.781281,232.098099 167.500504,235.948181 163.079849,243.324585
	C159.724915,248.922729 157.044235,254.976929 154.549881,261.028656
	C148.204498,276.423737 141.926102,291.853394 136.030396,307.424225
	C132.708221,316.198273 137.890778,322.992950 147.306046,322.994263
	C220.466965,323.004639 293.627869,323.005524 366.788788,322.993073
	C376.062347,322.991516 381.318756,316.007690 377.959778,307.324371
	C372.067902,292.093292 365.643311,277.068298 359.032806,261.275909
M345.500275,363.000000
	C340.168579,363.000000 334.791718,363.435516 329.516663,362.888947
	C323.028107,362.216675 319.172394,367.800629 319.035400,373.132202
	C318.881439,379.126404 318.901306,385.129730 319.028381,391.125183
	C319.150543,396.887207 323.492157,400.991302 329.245575,400.995972
	C344.240997,401.008057 359.238068,400.873230 374.230957,401.067413
	C379.622620,401.137207 383.376343,398.771088 383.886444,393.795715
	C384.664642,386.205780 385.082306,378.382935 384.088776,370.865753
	C383.202820,364.162506 380.487640,363.000763 373.491943,363.000183
	C364.494690,362.999451 355.497437,363.000000 345.500275,363.000000
M129.000000,391.185669
	C129.042740,397.234161 132.614151,400.969604 138.568268,400.985962
	C153.871765,401.027985 169.175537,401.027130 184.479034,400.985748
	C190.063507,400.970642 193.938873,397.083862 193.987289,391.515472
	C194.042267,385.194885 194.038406,378.873169 193.988495,372.552490
	C193.944229,366.946930 190.107422,363.031586 184.547028,363.015656
	C168.910843,362.970825 153.274429,362.980652 137.638168,363.011047
	C132.530045,363.020996 129.033783,366.607605 129.007370,371.786804
	C128.975983,377.941376 129.000000,384.096191 129.000000,391.185669
z"/>
<path fill="#4C4C4C" opacity="1.000000" stroke="none"
	d="
M359.237366,261.616425
	C365.643311,277.068298 372.067902,292.093292 377.959778,307.324371
	C381.318756,316.007690 376.062347,322.991516 366.788788,322.993073
	C293.627869,323.005524 220.466965,323.004639 147.306046,322.994263
	C137.890778,322.992950 132.708221,316.198273 136.030396,307.424225
	C141.926102,291.853394 148.204498,276.423737 154.549881,261.028656
	C157.044235,254.976929 159.724915,248.922729 163.079849,243.324585
	C167.500504,235.948181 174.781281,232.098099 183.084946,231.134155
	C191.257294,230.185440 199.556213,230.068451 207.800858,230.045486
	C245.130966,229.941513 282.461609,230.040085 319.791870,229.972549
	C329.440521,229.955078 338.354095,231.745697 346.160522,237.955460
	C351.783936,242.428696 354.237640,248.701813 356.941406,254.896072
	C357.832672,256.937958 358.346436,259.144592 359.237366,261.616425
z"/>
<path fill="#4C4C4C" opacity="1.000000" stroke="none"
	d="
M346.000244,363.000000
	C355.497437,363.000000 364.494690,362.999451 373.491943,363.000183
	C380.487640,363.000763 383.202820,364.162506 384.088776,370.865753
	C385.082306,378.382935 384.664642,386.205780 383.886444,393.795715
	C383.376343,398.771088 379.622620,401.137207 374.230957,401.067413
	C359.238068,400.873230 344.240997,401.008057 329.245575,400.995972
	C323.492157,400.991302 319.150543,396.887207 319.028381,391.125183
	C318.901306,385.129730 318.881439,379.126404 319.035400,373.132202
	C319.172394,367.800629 323.028107,362.216675 329.516663,362.888947
	C334.791718,363.435516 340.168579,363.000000 346.000244,363.000000
z"/>
<path fill="#4C4C4C" opacity="1.000000" stroke="none"
	d="
M129.000000,390.718292
	C129.000000,384.096191 128.975983,377.941376 129.007370,371.786804
	C129.033783,366.607605 132.530045,363.020996 137.638168,363.011047
	C153.274429,362.980652 168.910843,362.970825 184.547028,363.015656
	C190.107422,363.031586 193.944229,366.946930 193.988495,372.552490
	C194.038406,378.873169 194.042267,385.194885 193.987289,391.515472
	C193.938873,397.083862 190.107422,400.970642 184.479034,400.985748
	C169.175537,401.027130 153.871765,401.027985 138.568268,400.985962
	C132.614151,400.969604 129.042740,397.234161 129.000000,390.718292
z"/>
</svg>