<?xml version="1.0" standalone="no"?>
<!DOCTYPE svg PUBLIC "-//W3C//DTD SVG 20010904//EN"
 "http://www.w3.org/TR/2001/REC-SVG-20010904/DTD/svg10.dtd">
<svg version="1.0" xmlns="http://www.w3.org/2000/svg"
 width="50.000000pt" height="50.000000pt" viewBox="0 0 256.000000 256.000000"
 preserveAspectRatio="xMidYMid meet">

<g transform="translate(0.000000,256.000000) scale(0.100000,-0.100000)"
fill="#4C4C4C" stroke="none">
<path d="M12 2258 c-16 -16 -16 -220 0 -236 7 -7 38 -12 70 -12 l58 0 0 -300
0 -300 -58 0 c-32 0 -63 -5 -70 -12 -16 -16 -16 -220 0 -236 7 -7 38 -12 70
-12 l58 0 0 -300 0 -300 -58 0 c-32 0 -63 -5 -70 -12 -16 -16 -16 -220 0 -236
17 -17 2519 -17 2536 0 16 16 16 220 0 236 -7 7 -38 12 -70 12 l-58 0 0 300 0
300 58 0 c32 0 63 5 70 12 16 16 16 220 0 236 -7 7 -38 12 -70 12 l-58 0 0
300 0 300 58 0 c32 0 63 5 70 12 16 16 16 220 0 236 -17 17 -2519 17 -2536 0z
m298 -548 l0 -300 -55 0 -55 0 0 300 0 300 55 0 55 0 0 -300z m240 0 l0 -300
-90 0 -90 0 0 300 0 300 90 0 90 0 0 -300z m170 0 l0 -300 -55 0 -55 0 0 300
0 300 55 0 55 0 0 -300z m240 0 l0 -300 -90 0 -90 0 0 300 0 300 90 0 90 0 0
-300z m170 0 l0 -300 -55 0 -55 0 0 300 0 300 55 0 55 0 0 -300z m240 0 l0
-300 -90 0 -90 0 0 300 0 300 90 0 90 0 0 -300z m170 0 l0 -300 -55 0 -55 0 0
300 0 300 55 0 55 0 0 -300z m240 0 l0 -300 -90 0 -90 0 0 300 0 300 90 0 90
0 0 -300z m170 0 l0 -300 -55 0 -55 0 0 300 0 300 55 0 55 0 0 -300z m240 0
l0 -300 -90 0 -90 0 0 300 0 300 90 0 90 0 0 -300z m170 0 l0 -300 -55 0 -55
0 0 300 0 300 55 0 55 0 0 -300z m-2050 -860 l0 -300 -55 0 -55 0 0 300 0 300
55 0 55 0 0 -300z m240 0 l0 -300 -90 0 -90 0 0 300 0 300 90 0 90 0 0 -300z
m170 0 l0 -300 -55 0 -55 0 0 300 0 300 55 0 55 0 0 -300z m224 218 c12 -62
16 -139 16 -300 l0 -218 -90 0 -90 0 0 300 0 300 74 0 73 0 17 -82z m836 -218
l0 -300 -90 0 -90 0 0 218 c0 161 4 238 16 300 l17 82 73 0 74 0 0 -300z m170
0 l0 -300 -55 0 -55 0 0 300 0 300 55 0 55 0 0 -300z m240 0 l0 -300 -90 0
-90 0 0 300 0 300 90 0 90 0 0 -300z m170 0 l0 -300 -55 0 -55 0 0 300 0 300
55 0 55 0 0 -300z m-1055 180 c0 -63 -1 -65 -25 -65 -23 0 -25 4 -28 54 -4 68
2 83 30 79 21 -3 23 -8 23 -68z m-175 -330 l0 -150 -55 0 -55 0 0 150 0 150
55 0 55 0 0 -150z m240 0 l0 -150 -90 0 -90 0 0 150 0 150 90 0 90 0 0 -150z
m170 0 l0 -150 -55 0 -55 0 0 150 0 150 55 0 55 0 0 -150z"/>
</g>
</svg>
