<?xml version="1.0" standalone="no"?>
<!DOCTYPE svg PUBLIC "-//W3C//DTD SVG 20010904//EN"
 "http://www.w3.org/TR/2001/REC-SVG-20010904/DTD/svg10.dtd">
<svg version="1.0" xmlns="http://www.w3.org/2000/svg"
 width="50.000000pt" height="50.000000pt" viewBox="0 0 256.000000 256.000000"
 preserveAspectRatio="xMidYMid meet">

<g transform="translate(0.000000,256.000000) scale(0.100000,-0.100000)"
fill="#4C4C4C" stroke="none">
<path d="M632 2498 c-16 -16 -15 -43 1 -56 7 -6 37 -12 66 -14 l54 -3 67 -250
c37 -137 70 -260 74 -271 5 -18 0 -26 -26 -42 -92 -57 -89 -185 4 -242 18 -11
45 -20 60 -20 20 0 32 -8 43 -30 20 -38 67 -63 105 -55 28 6 80 56 80 76 0 5
49 9 110 9 l109 0 16 -30 c20 -38 67 -63 105 -55 38 8 80 59 80 95 0 37 -42
87 -80 95 -19 4 -41 1 -61 -9 -45 -22 -294 -23 -335 -1 -36 19 -52 19 -88 0
-62 -33 -136 -9 -136 44 0 16 9 36 21 47 20 18 44 19 395 22 358 3 374 4 384
22 8 15 6 24 -10 40 -15 15 -18 25 -11 38 18 35 101 321 101 349 0 18 -9 38
-21 49 -20 18 -44 19 -450 22 l-428 3 -10 37 c-6 20 -13 51 -17 67 -15 67 -27
75 -112 75 -47 0 -83 -5 -90 -12z m438 -288 l0 -30 -80 0 c-62 0 -80 3 -80 14
0 8 -3 21 -6 30 -5 14 6 16 80 16 l86 0 0 -30z m190 0 c0 -30 -1 -30 -55 -30
-54 0 -55 0 -55 30 0 30 1 30 55 30 54 0 55 0 55 -30z m190 0 c0 -30 -1 -30
-55 -30 -54 0 -55 0 -55 30 0 30 1 30 55 30 54 0 55 0 55 -30z m230 26 c0 -3
-4 -16 -10 -30 -9 -24 -14 -26 -75 -26 l-65 0 0 30 0 30 75 0 c41 0 75 -2 75
-4z m-612 -168 c-3 -33 -4 -33 -60 -36 -32 -2 -58 -2 -58 0 0 2 -4 18 -9 36
l-10 32 70 0 70 0 -3 -32z m190 0 c-3 -32 -4 -33 -55 -36 l-53 -3 0 35 0 36
56 0 55 0 -3 -32z m190 0 c-3 -32 -4 -33 -55 -36 l-53 -3 0 35 0 36 56 0 55 0
-3 -32z m179 0 c-12 -29 -19 -33 -55 -36 l-42 -3 0 35 0 36 55 0 55 0 -13 -32z
m-557 -148 c0 -29 -2 -30 -44 -30 -31 0 -46 5 -50 16 -14 37 -7 44 44 44 49 0
50 -1 50 -30z m190 0 c0 -30 -1 -30 -55 -30 -54 0 -55 0 -55 30 0 30 1 30 55
30 54 0 55 0 55 -30z m190 0 c0 -30 -1 -30 -55 -30 -54 0 -55 0 -55 30 0 30 1
30 55 30 54 0 55 0 55 -30z m130 10 c-6 -11 -19 -24 -30 -30 -18 -10 -20 -7
-20 20 0 27 3 30 30 30 27 0 30 -2 20 -20z"/>
<path d="M300 2120 c-6 -12 -10 -38 -8 -58 l3 -37 238 -3 c265 -3 247 -9 226
74 l-11 44 -219 0 c-210 0 -219 -1 -229 -20z"/>
<path d="M1815 2128 c-16 -43 -35 -101 -35 -104 0 -3 109 -3 243 -2 l242 3 3
37 c2 20 -2 46 -8 58 -10 19 -19 20 -226 20 -163 0 -216 -3 -219 -12z"/>
<path d="M77 1933 c-12 -11 -8 -118 5 -131 9 -9 95 -12 325 -12 l313 0 13 33
c8 17 26 46 40 63 15 18 27 37 27 43 0 12 -711 16 -723 4z"/>
<path d="M1756 1903 c4 -21 7 -55 6 -75 l-2 -38 354 0 c293 0 356 2 365 14 7
9 11 38 9 73 l-3 58 -369 3 -368 2 8 -37z"/>
<path d="M210 1035 l0 -675 405 0 405 0 0 314 0 315 24 28 24 28 212 0 212 0
24 -28 24 -28 0 -315 0 -314 405 0 405 0 0 675 0 675 -359 0 -360 0 15 -35
c41 -99 -24 -217 -133 -240 -46 -9 -109 11 -152 51 -34 30 -45 34 -94 34 -45
0 -58 -4 -67 -19 -13 -24 -66 -57 -107 -66 -45 -9 -109 11 -151 49 -20 18 -57
42 -82 53 -58 25 -103 71 -126 128 l-19 45 -252 0 -253 0 0 -675z m338 257 l3
-93 -93 3 -93 3 -3 79 c-2 44 -1 85 2 93 4 11 26 13 93 11 l88 -3 3 -93z m327
3 l0 -90 -92 -3 -93 -3 0 89 c0 49 3 92 7 96 4 4 46 5 93 4 l85 -3 0 -90z
m663 8 l3 -83 -261 0 -260 0 0 78 c0 43 3 82 7 86 4 3 119 5 257 4 l251 -3 3
-82z m331 73 c8 -9 11 -43 9 -93 l-3 -78 -89 -3 c-65 -2 -92 1 -98 10 -12 20
-10 152 4 166 18 18 162 16 177 -2z m326 -81 l0 -90 -90 0 -90 0 -3 79 c-2 44
-1 85 2 93 4 11 26 13 93 11 l88 -3 0 -90z m-1647 -327 l-3 -93 -90 0 -90 0
-3 79 c-2 44 -1 85 2 93 4 9 30 13 96 13 l91 0 -3 -92z m327 -3 l0 -90 -90 0
-90 0 -3 93 -3 93 93 -3 93 -3 0 -90z m1003 12 c2 -50 -1 -84 -9 -93 -15 -18
-159 -20 -177 -2 -13 13 -17 134 -6 163 5 13 21 15 98 13 l91 -3 3 -78z m317
-12 l0 -90 -90 0 -90 0 -3 79 c-2 44 -1 85 2 93 4 11 26 13 93 11 l88 -3 0
-90z m-1317 -322 l3 -93 -261 0 -260 0 0 88 c0 49 3 92 7 96 4 3 119 5 257 4
l251 -3 3 -92z m1320 -1 l3 -92 -258 2 -258 3 -3 70 c-2 38 0 80 3 92 l5 23
253 -2 252 -3 3 -93z"/>
<path d="M1100 665 l0 -305 180 0 180 0 0 305 0 305 -180 0 -180 0 0 -305z"/>
<path d="M87 262 c-13 -15 -17 -39 -17 -115 l0 -97 1210 0 1210 0 0 98 c0 83
-3 102 -18 115 -17 16 -114 17 -1194 17 -1126 0 -1176 -1 -1191 -18z"/>
</g>
</svg>
